<svg xmlns="http://www.w3.org/2000/svg" xmlns:xlink="http://www.w3.org/1999/xlink" contentStyleType="text/css" height="573px" preserveAspectRatio="none" style="width:1030px;height:573px;background:#FFFFFF;" version="1.1" viewBox="0 0 1030 573" width="1030px" zoomAndPan="magnify"><title>Deployment Diagram</title><defs/><g><text fill="#000000" font-family="sans-serif" font-size="14" font-weight="bold" lengthAdjust="spacing" textLength="167.125" x="424.4375" y="22.9951">Deployment Diagram</text><!--cluster Client Devices--><g id="cluster_Client Devices"><polygon fill="none" points="449,53.2969,459,43.2969,778,43.2969,778,135.5969,768,145.5969,449,145.5969,449,53.2969" style="stroke:#181818;stroke-width:1.0;"/><line style="stroke:#181818;stroke-width:1.0;" x1="768" x2="778" y1="53.2969" y2="43.2969"/><line style="stroke:#181818;stroke-width:1.0;" x1="449" x2="768" y1="53.2969" y2="53.2969"/><line style="stroke:#181818;stroke-width:1.0;" x1="768" x2="768" y1="53.2969" y2="145.5969"/><text fill="#000000" font-family="sans-serif" font-size="14" font-weight="bold" lengthAdjust="spacing" textLength="112.0684" x="553.4658" y="69.292">Client Devices</text></g><!--cluster Load Balancer--><g id="cluster_Load Balancer"><polygon fill="none" points="350,187.5969,360,177.5969,614,177.5969,614,285.8969,604,295.8969,350,295.8969,350,187.5969" style="stroke:#181818;stroke-width:1.0;"/><line style="stroke:#181818;stroke-width:1.0;" x1="604" x2="614" y1="187.5969" y2="177.5969"/><line style="stroke:#181818;stroke-width:1.0;" x1="350" x2="604" y1="187.5969" y2="187.5969"/><line style="stroke:#181818;stroke-width:1.0;" x1="604" x2="604" y1="187.5969" y2="295.8969"/><text fill="#000000" font-family="sans-serif" font-size="14" font-weight="bold" lengthAdjust="spacing" textLength="111.9111" x="422.0444" y="203.592">Load Balancer</text></g><!--cluster Backend Server Cluster--><g id="cluster_Backend Server Cluster"><polygon fill="none" points="306,337.8969,316,327.8969,906,327.8969,906,420.1869,896,430.1869,306,430.1869,306,337.8969" style="stroke:#181818;stroke-width:1.0;"/><line style="stroke:#181818;stroke-width:1.0;" x1="896" x2="906" y1="337.8969" y2="327.8969"/><line style="stroke:#181818;stroke-width:1.0;" x1="306" x2="896" y1="337.8969" y2="337.8969"/><line style="stroke:#181818;stroke-width:1.0;" x1="896" x2="896" y1="337.8969" y2="430.1869"/><text fill="#000000" font-family="sans-serif" font-size="14" font-weight="bold" lengthAdjust="spacing" textLength="185.4316" x="509.2842" y="353.892">Backend Server Cluster</text></g><!--cluster Database Server--><g id="cluster_Database Server"><polygon fill="none" points="16,464.1869,26,454.1869,223,454.1869,223,546.4869,213,556.4869,16,556.4869,16,464.1869" style="stroke:#181818;stroke-width:1.0;"/><line style="stroke:#181818;stroke-width:1.0;" x1="213" x2="223" y1="464.1869" y2="454.1869"/><line style="stroke:#181818;stroke-width:1.0;" x1="16" x2="213" y1="464.1869" y2="464.1869"/><line style="stroke:#181818;stroke-width:1.0;" x1="213" x2="213" y1="464.1869" y2="556.4869"/><text fill="#000000" font-family="sans-serif" font-size="14" font-weight="bold" lengthAdjust="spacing" textLength="131.3867" x="49.8066" y="480.182">Database Server</text></g><!--cluster Cache Server--><g id="cluster_Cache Server"><polygon fill="none" points="247,464.1869,257,454.1869,427,454.1869,427,546.4869,417,556.4869,247,556.4869,247,464.1869" style="stroke:#181818;stroke-width:1.0;"/><line style="stroke:#181818;stroke-width:1.0;" x1="417" x2="427" y1="464.1869" y2="454.1869"/><line style="stroke:#181818;stroke-width:1.0;" x1="247" x2="417" y1="464.1869" y2="464.1869"/><line style="stroke:#181818;stroke-width:1.0;" x1="417" x2="417" y1="464.1869" y2="556.4869"/><text fill="#000000" font-family="sans-serif" font-size="14" font-weight="bold" lengthAdjust="spacing" textLength="104.3643" x="280.8179" y="480.182">Cache Server</text></g><!--cluster Storage Service--><g id="cluster_Storage Service"><polygon fill="none" points="451,464.1869,461,454.1869,735,454.1869,735,546.4869,725,556.4869,451,556.4869,451,464.1869" style="stroke:#181818;stroke-width:1.0;"/><line style="stroke:#181818;stroke-width:1.0;" x1="725" x2="735" y1="464.1869" y2="454.1869"/><line style="stroke:#181818;stroke-width:1.0;" x1="451" x2="725" y1="464.1869" y2="464.1869"/><line style="stroke:#181818;stroke-width:1.0;" x1="725" x2="725" y1="464.1869" y2="556.4869"/><text fill="#000000" font-family="sans-serif" font-size="14" font-weight="bold" lengthAdjust="spacing" textLength="125.3369" x="526.3315" y="480.182">Storage Service</text></g><!--cluster Notification System--><g id="cluster_Notification System"><polygon fill="none" points="759,464.1869,769,454.1869,1013,454.1869,1013,546.4869,1003,556.4869,759,556.4869,759,464.1869" style="stroke:#181818;stroke-width:1.0;"/><line style="stroke:#181818;stroke-width:1.0;" x1="1003" x2="1013" y1="464.1869" y2="454.1869"/><line style="stroke:#181818;stroke-width:1.0;" x1="759" x2="1003" y1="464.1869" y2="464.1869"/><line style="stroke:#181818;stroke-width:1.0;" x1="1003" x2="1003" y1="464.1869" y2="556.4869"/><text fill="#000000" font-family="sans-serif" font-size="14" font-weight="bold" lengthAdjust="spacing" textLength="155.7295" x="804.1353" y="480.182">Notification System</text></g><!--entity iOS Device--><g id="elem_iOS Device"><rect fill="#F1F1F1" height="46.2969" rx="2.5" ry="2.5" style="stroke:#181818;stroke-width:0.5;" width="116.125" x="464.94" y="83.2969"/><rect fill="#F1F1F1" height="10" style="stroke:#181818;stroke-width:0.5;" width="15" x="561.065" y="88.2969"/><rect fill="#F1F1F1" height="2" style="stroke:#181818;stroke-width:0.5;" width="4" x="559.065" y="90.2969"/><rect fill="#F1F1F1" height="2" style="stroke:#181818;stroke-width:0.5;" width="4" x="559.065" y="94.2969"/><text fill="#000000" font-family="sans-serif" font-size="14" lengthAdjust="spacing" textLength="76.125" x="479.94" y="116.292">iOS Device</text></g><!--entity Android Device--><g id="elem_Android Device"><rect fill="#F1F1F1" height="46.2969" rx="2.5" ry="2.5" style="stroke:#181818;stroke-width:0.5;" width="146.7637" x="615.62" y="83.2969"/><rect fill="#F1F1F1" height="10" style="stroke:#181818;stroke-width:0.5;" width="15" x="742.3837" y="88.2969"/><rect fill="#F1F1F1" height="2" style="stroke:#181818;stroke-width:0.5;" width="4" x="740.3837" y="90.2969"/><rect fill="#F1F1F1" height="2" style="stroke:#181818;stroke-width:0.5;" width="4" x="740.3837" y="94.2969"/><text fill="#000000" font-family="sans-serif" font-size="14" lengthAdjust="spacing" textLength="106.7637" x="630.62" y="116.292">Android Device</text></g><!--entity Load Balancer System--><g id="elem_Load Balancer System"><rect fill="#F1F1F1" height="46.2969" rx="2.5" ry="2.5" style="stroke:#181818;stroke-width:0.5;" width="196.5293" x="373.74" y="225.5969"/><rect fill="#F1F1F1" height="10" style="stroke:#181818;stroke-width:0.5;" width="15" x="550.2693" y="230.5969"/><rect fill="#F1F1F1" height="2" style="stroke:#181818;stroke-width:0.5;" width="4" x="548.2693" y="232.5969"/><rect fill="#F1F1F1" height="2" style="stroke:#181818;stroke-width:0.5;" width="4" x="548.2693" y="236.5969"/><text fill="#000000" font-family="sans-serif" font-size="14" lengthAdjust="spacing" textLength="156.5293" x="388.74" y="258.592">Load Balancer System</text></g><!--entity NestJS/Django Server Instance 1--><g id="elem_NestJS/Django Server Instance 1"><rect fill="#F1F1F1" height="46.2969" rx="2.5" ry="2.5" style="stroke:#181818;stroke-width:0.5;" width="266.8916" x="321.55" y="367.8969"/><rect fill="#F1F1F1" height="10" style="stroke:#181818;stroke-width:0.5;" width="15" x="568.4416" y="372.8969"/><rect fill="#F1F1F1" height="2" style="stroke:#181818;stroke-width:0.5;" width="4" x="566.4416" y="374.8969"/><rect fill="#F1F1F1" height="2" style="stroke:#181818;stroke-width:0.5;" width="4" x="566.4416" y="378.8969"/><text fill="#000000" font-family="sans-serif" font-size="14" lengthAdjust="spacing" textLength="226.8916" x="336.55" y="400.892">NestJS/Django Server Instance 1</text></g><!--entity NestJS/Django Server Instance 2--><g id="elem_NestJS/Django Server Instance 2"><rect fill="#F1F1F1" height="46.2969" rx="2.5" ry="2.5" style="stroke:#181818;stroke-width:0.5;" width="266.8916" x="623.55" y="367.8969"/><rect fill="#F1F1F1" height="10" style="stroke:#181818;stroke-width:0.5;" width="15" x="870.4416" y="372.8969"/><rect fill="#F1F1F1" height="2" style="stroke:#181818;stroke-width:0.5;" width="4" x="868.4416" y="374.8969"/><rect fill="#F1F1F1" height="2" style="stroke:#181818;stroke-width:0.5;" width="4" x="868.4416" y="378.8969"/><text fill="#000000" font-family="sans-serif" font-size="14" lengthAdjust="spacing" textLength="226.8916" x="638.55" y="400.892">NestJS/Django Server Instance 2</text></g><!--entity PostgreSQL--><g id="elem_PostgreSQL"><rect fill="#F1F1F1" height="46.2969" rx="2.5" ry="2.5" style="stroke:#181818;stroke-width:0.5;" width="120.7529" x="86.62" y="494.1869"/><rect fill="#F1F1F1" height="10" style="stroke:#181818;stroke-width:0.5;" width="15" x="187.3729" y="499.1869"/><rect fill="#F1F1F1" height="2" style="stroke:#181818;stroke-width:0.5;" width="4" x="185.3729" y="501.1869"/><rect fill="#F1F1F1" height="2" style="stroke:#181818;stroke-width:0.5;" width="4" x="185.3729" y="505.1869"/><text fill="#000000" font-family="sans-serif" font-size="14" lengthAdjust="spacing" textLength="80.7529" x="101.62" y="527.182">PostgreSQL</text></g><!--entity Redis Cache--><g id="elem_Redis Cache"><rect fill="#F1F1F1" height="46.2969" rx="2.5" ry="2.5" style="stroke:#181818;stroke-width:0.5;" width="126.3994" x="284.8" y="494.1869"/><rect fill="#F1F1F1" height="10" style="stroke:#181818;stroke-width:0.5;" width="15" x="391.1994" y="499.1869"/><rect fill="#F1F1F1" height="2" style="stroke:#181818;stroke-width:0.5;" width="4" x="389.1994" y="501.1869"/><rect fill="#F1F1F1" height="2" style="stroke:#181818;stroke-width:0.5;" width="4" x="389.1994" y="505.1869"/><text fill="#000000" font-family="sans-serif" font-size="14" lengthAdjust="spacing" textLength="86.3994" x="299.8" y="527.182">Redis Cache</text></g><!--entity Firebase Storage / Amazon S3--><g id="elem_Firebase Storage / Amazon S3"><rect fill="#F1F1F1" height="46.2969" rx="2.5" ry="2.5" style="stroke:#181818;stroke-width:0.5;" width="251.3535" x="467.32" y="494.1869"/><rect fill="#F1F1F1" height="10" style="stroke:#181818;stroke-width:0.5;" width="15" x="698.6735" y="499.1869"/><rect fill="#F1F1F1" height="2" style="stroke:#181818;stroke-width:0.5;" width="4" x="696.6735" y="501.1869"/><rect fill="#F1F1F1" height="2" style="stroke:#181818;stroke-width:0.5;" width="4" x="696.6735" y="505.1869"/><text fill="#000000" font-family="sans-serif" font-size="14" lengthAdjust="spacing" textLength="211.3535" x="482.32" y="527.182">Firebase Storage / Amazon S3</text></g><!--entity Firebase Cloud Messaging--><g id="elem_Firebase Cloud Messaging"><rect fill="#F1F1F1" height="46.2969" rx="2.5" ry="2.5" style="stroke:#181818;stroke-width:0.5;" width="222.9707" x="774.51" y="494.1869"/><rect fill="#F1F1F1" height="10" style="stroke:#181818;stroke-width:0.5;" width="15" x="977.4807" y="499.1869"/><rect fill="#F1F1F1" height="2" style="stroke:#181818;stroke-width:0.5;" width="4" x="975.4807" y="501.1869"/><rect fill="#F1F1F1" height="2" style="stroke:#181818;stroke-width:0.5;" width="4" x="975.4807" y="505.1869"/><text fill="#000000" font-family="sans-serif" font-size="14" lengthAdjust="spacing" textLength="182.9707" x="789.51" y="527.182">Firebase Cloud Messaging</text></g><!--link iOS Device to Load Balancer--><g id="link_iOS Device_Load Balancer"><path d="M557.01,130.0469 C567.73,138.7369 578.68,149.5069 586,161.5969 C588.465,165.6681 590.6263,170.0166 592.5212,174.5154 C592.758,175.0777 592.9907,175.6424 593.2194,176.2092 C593.3337,176.4926 593.447,176.7766 593.5592,177.061 C593.6154,177.2032 591.4887,171.7566 591.5443,171.899 " fill="none" id="iOS Device-to-Load Balancer" style="stroke:#181818;stroke-width:1.0;"/><polygon fill="#181818" points="593.7269,177.488,594.1789,167.6495,591.908,172.8305,586.727,170.5596,593.7269,177.488" style="stroke:#181818;stroke-width:1.0;"/></g><!--link Android Device to Load Balancer--><g id="link_Android Device_Load Balancer"><path d="M675.66,129.9869 C664.115,149.5069 647.06,178.3394 632.715,202.5881 C625.5425,214.7125 619.0475,225.6909 614.2575,233.7864 C614.1827,233.9129 617.1636,228.8749 617.0896,229 " fill="none" id="Android Device-to-Load Balancer" style="stroke:#181818;stroke-width:1.0;"/><polygon fill="#181818" points="614.0342,234.1638,622.0598,228.455,616.5804,229.8606,615.1748,224.3812,614.0342,234.1638" style="stroke:#181818;stroke-width:1.0;"/></g><!--link Load Balancer to NestJS/Django Server Instance 1--><g id="link_Load Balancer_NestJS/Django Server Instance 1"><path d="M595.3108,296.0495 C595.2656,296.1526 595.2201,296.2556 595.1744,296.3585 C595.0831,296.5644 594.9911,296.77 594.8982,296.9752 C594.7126,297.3857 594.5239,297.7949 594.3321,298.2026 C593.5648,299.8334 592.7478,301.4402 591.878,303.0107 C590.1384,306.1516 588.1875,309.1469 586,311.8969 C566.62,336.2469 542.8161,352.0427 516.9061,364.8827 " fill="none" id="Load Balancer-to-NestJS/Django Server Instance 1" style="stroke:#181818;stroke-width:1.0;"/><polygon fill="#181818" points="511.53,367.5469,521.3702,367.1347,516.0101,365.3267,517.818,359.9666,511.53,367.5469" style="stroke:#181818;stroke-width:1.0;"/></g><!--link Load Balancer to NestJS/Django Server Instance 2--><g id="link_Load Balancer_NestJS/Django Server Instance 2"><path d="M614.1805,257.3451 C614.5985,257.7335 615.0307,258.135 615.4765,258.5492 C617.2598,260.206 619.2618,262.0661 621.4539,264.1027 C630.2222,272.2491 642.0306,283.22 655.0388,295.3056 C681.055,319.4769 707.4745,344.0228 728.3645,363.4328 " fill="none" id="Load Balancer-to-NestJS/Django Server Instance 2" style="stroke:#181818;stroke-width:1.0;"/><polygon fill="#181818" points="732.76,367.5169,728.8895,358.4604,729.0971,364.1135,723.4441,364.3211,732.76,367.5169" style="stroke:#181818;stroke-width:1.0;"/></g><!--link NestJS/Django Server Instance 1 to PostgreSQL--><g id="link_NestJS/Django Server Instance 1_PostgreSQL"><path d="M361.24,414.6369 C331.24,423.0969 298.24,433.7369 269,446.1869 C237.98,459.3969 210.0258,475.5474 186.1658,490.5874 " fill="none" id="NestJS/Django Server Instance 1-to-PostgreSQL" style="stroke:#181818;stroke-width:1.0;"/><polygon fill="#181818" points="181.09,493.7869,190.8366,492.3715,185.3198,491.1206,186.5707,485.6038,181.09,493.7869" style="stroke:#181818;stroke-width:1.0;"/></g><!--link NestJS/Django Server Instance 1 to Redis Cache--><g id="link_NestJS/Django Server Instance 1_Redis Cache"><path d="M435.62,414.5469 C416.23,437.0769 390.4841,466.9793 371.1441,489.4493 " fill="none" id="NestJS/Django Server Instance 1-to-Redis Cache" style="stroke:#181818;stroke-width:1.0;"/><polygon fill="#181818" points="367.23,493.9969,376.1328,489.785,370.4917,490.2073,370.0694,484.5662,367.23,493.9969" style="stroke:#181818;stroke-width:1.0;"/></g><!--link NestJS/Django Server Instance 1 to Firebase Storage / Amazon S3--><g id="link_NestJS/Django Server Instance 1_Firebase Storage / Amazon S3"><path d="M479.99,414.5469 C505,437.0769 538.7916,467.5116 563.7416,489.9816 " fill="none" id="NestJS/Django Server Instance 1-to-Firebase Storage / Amazon S3" style="stroke:#181818;stroke-width:1.0;"/><polygon fill="#181818" points="568.2,493.9969,564.1892,485.0017,564.4846,490.6508,558.8355,490.9463,568.2,493.9969" style="stroke:#181818;stroke-width:1.0;"/></g><!--link NestJS/Django Server Instance 1 to Firebase Cloud Messaging--><g id="link_NestJS/Django Server Instance 1_Firebase Cloud Messaging"><path d="M517,414.5869 C543.99,423.4569 576.19,432.7869 606,438.1869 C662.52,448.4369 679.32,432.0669 735,446.1869 C775.49,456.4569 813.1261,474.5891 842.8061,490.9591 " fill="none" id="NestJS/Django Server Instance 1-to-Firebase Cloud Messaging" style="stroke:#181818;stroke-width:1.0;"/><polygon fill="#181818" points="848.06,493.8569,842.1111,486.0077,843.6818,491.4421,838.2474,493.0128,848.06,493.8569" style="stroke:#181818;stroke-width:1.0;"/></g><!--SRC=[dP5BJyCm48Jl-HMhtgiAk2ErYP10fJnyH3aiyM8M71lPRgM2-E_auI0tGgHmtDrlPgMPm44J5FIcxRuc4w1WL0xhB3DM4inopTsMTboHdy571l30Do9kodPS6kaio-_Lvo1UMvImGesc8XUr1piGUn-eJYGhh5x9I13aTiqzrzi66BGRyk5AB8eNDCeEoANneJM3atAQEKrU5HZm4Jr5AFwujJueH-9kdQ0vLiyZxfuaU-WE2IY2TQXwjCaYiXVigFyKpmjOrlXk3OYpHBonWP-umi3jfKjcR91hkvLmJTwZOgCwSLe7pEVdeupBR5pGpz3Xt3EJWVz3rLGmwTlxf5KSAJbevKZDx-tyrMJSq1S0]--></g></svg>