<svg xmlns="http://www.w3.org/2000/svg" xmlns:xlink="http://www.w3.org/1999/xlink" contentStyleType="text/css" height="598px" preserveAspectRatio="none" style="width:880px;height:598px;background:#FFFFFF;" version="1.1" viewBox="0 0 880 598" width="880px" zoomAndPan="magnify"><title>Encryption/Decryption in Messaging System</title><defs/><g><text fill="#000000" font-family="sans-serif" font-size="14" font-weight="bold" lengthAdjust="spacing" textLength="348.667" x="265.1265" y="27.9951">Encryption/Decryption in Messaging System</text><line style="stroke:#181818;stroke-width:0.5;stroke-dasharray:5.0,5.0;" x1="23" x2="23" y1="118.5938" y2="517.3203"/><line style="stroke:#181818;stroke-width:0.5;stroke-dasharray:5.0,5.0;" x1="70.9102" x2="70.9102" y1="118.5938" y2="517.3203"/><line style="stroke:#181818;stroke-width:0.5;stroke-dasharray:5.0,5.0;" x1="275.8359" x2="275.8359" y1="118.5938" y2="517.3203"/><line style="stroke:#181818;stroke-width:0.5;stroke-dasharray:5.0,5.0;" x1="485.3262" x2="485.3262" y1="118.5938" y2="517.3203"/><line style="stroke:#181818;stroke-width:0.5;stroke-dasharray:5.0,5.0;" x1="671.0479" x2="671.0479" y1="118.5938" y2="517.3203"/><line style="stroke:#181818;stroke-width:0.5;stroke-dasharray:5.0,5.0;" x1="834.1191" x2="834.1191" y1="118.5938" y2="517.3203"/><text fill="#000000" font-family="sans-serif" font-size="14" lengthAdjust="spacing" textLength="31.9102" x="5" y="115.292">User</text><ellipse cx="23.9551" cy="50.7969" fill="#E2E2F0" rx="8" ry="8" style="stroke:#181818;stroke-width:0.5;"/><path d="M23.9551,58.7969 L23.9551,85.7969 M10.9551,66.7969 L36.9551,66.7969 M23.9551,85.7969 L10.9551,100.7969 M23.9551,85.7969 L36.9551,100.7969 " fill="none" style="stroke:#181818;stroke-width:0.5;"/><text fill="#000000" font-family="sans-serif" font-size="14" lengthAdjust="spacing" textLength="31.9102" x="5" y="529.3154">User</text><ellipse cx="23.9551" cy="541.1172" fill="#E2E2F0" rx="8" ry="8" style="stroke:#181818;stroke-width:0.5;"/><path d="M23.9551,549.1172 L23.9551,576.1172 M10.9551,557.1172 L36.9551,557.1172 M23.9551,576.1172 L10.9551,591.1172 M23.9551,576.1172 L36.9551,591.1172 " fill="none" style="stroke:#181818;stroke-width:0.5;"/><text fill="#000000" font-family="sans-serif" font-size="14" lengthAdjust="spacing" textLength="31.9102" x="52.9102" y="115.292">User</text><ellipse cx="71.8652" cy="50.7969" fill="#E2E2F0" rx="8" ry="8" style="stroke:#181818;stroke-width:0.5;"/><path d="M71.8652,58.7969 L71.8652,85.7969 M58.8652,66.7969 L84.8652,66.7969 M71.8652,85.7969 L58.8652,100.7969 M71.8652,85.7969 L84.8652,100.7969 " fill="none" style="stroke:#181818;stroke-width:0.5;"/><text fill="#000000" font-family="sans-serif" font-size="14" lengthAdjust="spacing" textLength="31.9102" x="52.9102" y="529.3154">User</text><ellipse cx="71.8652" cy="541.1172" fill="#E2E2F0" rx="8" ry="8" style="stroke:#181818;stroke-width:0.5;"/><path d="M71.8652,549.1172 L71.8652,576.1172 M58.8652,557.1172 L84.8652,557.1172 M71.8652,576.1172 L58.8652,591.1172 M71.8652,576.1172 L84.8652,591.1172 " fill="none" style="stroke:#181818;stroke-width:0.5;"/><rect fill="#E2E2F0" height="30.2969" rx="2.5" ry="2.5" style="stroke:#181818;stroke-width:0.5;" width="91.9639" x="230.8359" y="87.2969"/><text fill="#000000" font-family="sans-serif" font-size="14" lengthAdjust="spacing" textLength="77.9639" x="237.8359" y="107.292">Flutter App</text><rect fill="#E2E2F0" height="30.2969" rx="2.5" ry="2.5" style="stroke:#181818;stroke-width:0.5;" width="91.9639" x="230.8359" y="516.3203"/><text fill="#000000" font-family="sans-serif" font-size="14" lengthAdjust="spacing" textLength="77.9639" x="237.8359" y="536.3154">Flutter App</text><rect fill="#E2E2F0" height="30.2969" rx="2.5" ry="2.5" style="stroke:#181818;stroke-width:0.5;" width="124.7217" x="423.3262" y="87.2969"/><text fill="#000000" font-family="sans-serif" font-size="14" lengthAdjust="spacing" textLength="110.7217" x="430.3262" y="107.292">Backend Server</text><rect fill="#E2E2F0" height="30.2969" rx="2.5" ry="2.5" style="stroke:#181818;stroke-width:0.5;" width="124.7217" x="423.3262" y="516.3203"/><text fill="#000000" font-family="sans-serif" font-size="14" lengthAdjust="spacing" textLength="110.7217" x="430.3262" y="536.3154">Backend Server</text><rect fill="#E2E2F0" height="30.2969" rx="2.5" ry="2.5" style="stroke:#181818;stroke-width:0.5;" width="226.0713" x="558.0479" y="87.2969"/><text fill="#000000" font-family="sans-serif" font-size="14" lengthAdjust="spacing" textLength="212.0713" x="565.0479" y="107.292">Encryption/Decryption Module</text><rect fill="#E2E2F0" height="30.2969" rx="2.5" ry="2.5" style="stroke:#181818;stroke-width:0.5;" width="226.0713" x="558.0479" y="516.3203"/><text fill="#000000" font-family="sans-serif" font-size="14" lengthAdjust="spacing" textLength="212.0713" x="565.0479" y="536.3154">Encryption/Decryption Module</text><rect fill="#E2E2F0" height="30.2969" rx="2.5" ry="2.5" style="stroke:#181818;stroke-width:0.5;" width="80.8008" x="794.1191" y="87.2969"/><text fill="#000000" font-family="sans-serif" font-size="14" lengthAdjust="spacing" textLength="66.8008" x="801.1191" y="107.292">Database</text><rect fill="#E2E2F0" height="30.2969" rx="2.5" ry="2.5" style="stroke:#181818;stroke-width:0.5;" width="80.8008" x="794.1191" y="516.3203"/><text fill="#000000" font-family="sans-serif" font-size="14" lengthAdjust="spacing" textLength="66.8008" x="801.1191" y="536.3154">Database</text><polygon fill="#181818" points="264.8179,145.7266,274.8179,149.7266,264.8179,153.7266,268.8179,149.7266" style="stroke:#181818;stroke-width:1.0;"/><line style="stroke:#181818;stroke-width:1.0;" x1="23.9551" x2="270.8179" y1="149.7266" y2="149.7266"/><text fill="#000000" font-family="sans-serif" font-size="13" lengthAdjust="spacing" textLength="96.002" x="30.9551" y="144.6606">Enter Message</text><polygon fill="#181818" points="659.0835,174.8594,669.0835,178.8594,659.0835,182.8594,663.0835,178.8594" style="stroke:#181818;stroke-width:1.0;"/><line style="stroke:#181818;stroke-width:1.0;" x1="276.8179" x2="665.0835" y1="178.8594" y2="178.8594"/><text fill="#000000" font-family="sans-serif" font-size="13" lengthAdjust="spacing" textLength="150.7314" x="283.8179" y="173.7935">Encrypt Message (AES)</text><polygon fill="#181818" points="287.8179,203.9922,277.8179,207.9922,287.8179,211.9922,283.8179,207.9922" style="stroke:#181818;stroke-width:1.0;"/><line style="stroke:#181818;stroke-width:1.0;" x1="281.8179" x2="670.0835" y1="207.9922" y2="207.9922"/><text fill="#000000" font-family="sans-serif" font-size="13" lengthAdjust="spacing" textLength="175.4302" x="293.8179" y="202.9263">Return Encrypted Message</text><polygon fill="#181818" points="473.687,233.125,483.687,237.125,473.687,241.125,477.687,237.125" style="stroke:#181818;stroke-width:1.0;"/><line style="stroke:#181818;stroke-width:1.0;" x1="276.8179" x2="479.687" y1="237.125" y2="237.125"/><text fill="#000000" font-family="sans-serif" font-size="13" lengthAdjust="spacing" textLength="164.2202" x="283.8179" y="232.0591">Send Encrypted Message</text><polygon fill="#181818" points="822.5195,262.2578,832.5195,266.2578,822.5195,270.2578,826.5195,266.2578" style="stroke:#181818;stroke-width:1.0;"/><line style="stroke:#181818;stroke-width:1.0;" x1="485.687" x2="828.5195" y1="266.2578" y2="266.2578"/><text fill="#000000" font-family="sans-serif" font-size="13" lengthAdjust="spacing" textLength="163.3887" x="492.687" y="261.1919">Save Encrypted Message</text><polygon fill="#181818" points="82.8652,291.3906,72.8652,295.3906,82.8652,299.3906,78.8652,295.3906" style="stroke:#181818;stroke-width:1.0;"/><line style="stroke:#181818;stroke-width:1.0;" x1="76.8652" x2="484.687" y1="295.3906" y2="295.3906"/><text fill="#000000" font-family="sans-serif" font-size="13" lengthAdjust="spacing" textLength="163.5029" x="88.8652" y="290.3247">Notify Message Available</text><polygon fill="#181818" points="264.8179,320.5234,274.8179,324.5234,264.8179,328.5234,268.8179,324.5234" style="stroke:#181818;stroke-width:1.0;"/><line style="stroke:#181818;stroke-width:1.0;" x1="71.8652" x2="270.8179" y1="324.5234" y2="324.5234"/><text fill="#000000" font-family="sans-serif" font-size="13" lengthAdjust="spacing" textLength="97.0684" x="78.8652" y="319.4575">Fetch Message</text><polygon fill="#181818" points="473.687,349.6563,483.687,353.6563,473.687,357.6563,477.687,353.6563" style="stroke:#181818;stroke-width:1.0;"/><line style="stroke:#181818;stroke-width:1.0;" x1="276.8179" x2="479.687" y1="353.6563" y2="353.6563"/><text fill="#000000" font-family="sans-serif" font-size="13" lengthAdjust="spacing" textLength="184.8691" x="283.8179" y="348.5903">Request Encrypted Message</text><polygon fill="#181818" points="822.5195,378.7891,832.5195,382.7891,822.5195,386.7891,826.5195,382.7891" style="stroke:#181818;stroke-width:1.0;"/><line style="stroke:#181818;stroke-width:1.0;" x1="485.687" x2="828.5195" y1="382.7891" y2="382.7891"/><text fill="#000000" font-family="sans-serif" font-size="13" lengthAdjust="spacing" textLength="186.2529" x="492.687" y="377.7231">Retrieve Encrypted Message</text><polygon fill="#181818" points="287.8179,407.9219,277.8179,411.9219,287.8179,415.9219,283.8179,411.9219" style="stroke:#181818;stroke-width:1.0;"/><line style="stroke:#181818;stroke-width:1.0;" x1="281.8179" x2="484.687" y1="411.9219" y2="411.9219"/><text fill="#000000" font-family="sans-serif" font-size="13" lengthAdjust="spacing" textLength="175.4302" x="293.8179" y="406.856">Return Encrypted Message</text><polygon fill="#181818" points="659.0835,437.0547,669.0835,441.0547,659.0835,445.0547,663.0835,441.0547" style="stroke:#181818;stroke-width:1.0;"/><line style="stroke:#181818;stroke-width:1.0;" x1="276.8179" x2="665.0835" y1="441.0547" y2="441.0547"/><text fill="#000000" font-family="sans-serif" font-size="13" lengthAdjust="spacing" textLength="152.2866" x="283.8179" y="435.9888">Decrypt Message (AES)</text><polygon fill="#181818" points="287.8179,466.1875,277.8179,470.1875,287.8179,474.1875,283.8179,470.1875" style="stroke:#181818;stroke-width:1.0;"/><line style="stroke:#181818;stroke-width:1.0;" x1="281.8179" x2="670.0835" y1="470.1875" y2="470.1875"/><text fill="#000000" font-family="sans-serif" font-size="13" lengthAdjust="spacing" textLength="176.9854" x="293.8179" y="465.1216">Return Decrypted Message</text><polygon fill="#181818" points="264.8179,495.3203,274.8179,499.3203,264.8179,503.3203,268.8179,499.3203" style="stroke:#181818;stroke-width:1.0;"/><line style="stroke:#181818;stroke-width:1.0;" x1="71.8652" x2="270.8179" y1="499.3203" y2="499.3203"/><text fill="#000000" font-family="sans-serif" font-size="13" lengthAdjust="spacing" textLength="180.9526" x="78.8652" y="494.2544">Display Decrypted Message</text><!--SRC=[bP2nJiGm44HxVyNgAYWGFGLI8jzrHt4H7x3dB8U5SOozYPI_nuwJY2J0GUNL-irePbcp8TXRvNl7kh7tagOHj8KZXO0NRIzGzO7fNGXKt7Xu3kG10mIoDVdLqfCYtSMrGyzQQOUMONSmBNC42kTsYOhl4YXHlKKxgCX7yS3aSObzd_NOrAsXGJG2u-TIB97nZ263iXGY5u2xnvG77g8uPSorIQHT_5ew3bIUHWvkYdrrArROx7aYRhsTH5IlxNFB25Qf_XOR_oCfoqHXHxzIq_qZ-zImVkddd4M7sk3Pa10pDCSy4AlN7xETwAEbmDVZnRPUqvM8VplCvkxJzA-xZ_ilzjlkKWTdiD-odm00]--></g></svg>