<svg xmlns="http://www.w3.org/2000/svg" xmlns:xlink="http://www.w3.org/1999/xlink" contentStyleType="text/css" height="832px" preserveAspectRatio="none" style="width:615px;height:832px;background:#FFFFFF;" version="1.1" viewBox="0 0 615 832" width="615px" zoomAndPan="magnify"><title>Entity-Relationship Diagram</title><defs/><g><text fill="#000000" font-family="sans-serif" font-size="14" font-weight="bold" lengthAdjust="spacing" textLength="223.0703" x="188.9993" y="22.9951">Entity-Relationship Diagram</text><!--class User--><g id="elem_User"><rect codeLine="3" fill="#F1F1F1" height="113.1875" id="User" rx="2.5" ry="2.5" style="stroke:#181818;stroke-width:0.5;" width="160.6816" x="248.89" y="44.2969"/><ellipse cx="309.0257" cy="60.2969" fill="#ADD1B2" rx="11" ry="11" style="stroke:#181818;stroke-width:1.0;"/><path d="M313.1351,66.2969 L305.4164,66.2969 L305.4164,53.9063 L313.1351,53.9063 L313.1351,56.0625 L307.8695,56.0625 L307.8695,58.7344 L312.6351,58.7344 L312.6351,60.8906 L307.8695,60.8906 L307.8695,64.1406 L313.1351,64.1406 L313.1351,66.2969 Z " fill="#000000"/><text fill="#000000" font-family="sans-serif" font-size="14" lengthAdjust="spacing" textLength="31.9102" x="329.5257" y="65.1436">User</text><line style="stroke:#181818;stroke-width:0.5;" x1="249.89" x2="408.5716" y1="76.2969" y2="76.2969"/><ellipse cx="259.89" cy="89.9453" fill="#000000" rx="3" ry="3" style="stroke:#000000;stroke-width:1.0;"/><text fill="#000000" font-family="sans-serif" font-size="14" lengthAdjust="spacing" textLength="92.5723" x="268.89" y="93.292">userId : UUID</text><ellipse cx="259.89" cy="106.2422" fill="#000000" rx="3" ry="3" style="stroke:#000000;stroke-width:1.0;"/><text fill="#000000" font-family="sans-serif" font-size="14" lengthAdjust="spacing" textLength="94.0078" x="268.89" y="109.5889">email : String</text><ellipse cx="259.89" cy="122.5391" fill="#000000" rx="3" ry="3" style="stroke:#000000;stroke-width:1.0;"/><text fill="#000000" font-family="sans-serif" font-size="14" lengthAdjust="spacing" textLength="134.6816" x="268.89" y="125.8857">profilePicture : URL</text><ellipse cx="259.89" cy="138.8359" fill="#000000" rx="3" ry="3" style="stroke:#000000;stroke-width:1.0;"/><text fill="#000000" font-family="sans-serif" font-size="14" lengthAdjust="spacing" textLength="126.6494" x="268.89" y="142.1826">isOnline : Boolean</text><line style="stroke:#181818;stroke-width:0.5;" x1="249.89" x2="408.5716" y1="149.4844" y2="149.4844"/></g><!--class Chat--><g id="elem_Chat"><rect codeLine="10" fill="#F1F1F1" height="96.8906" id="Chat" rx="2.5" ry="2.5" style="stroke:#181818;stroke-width:0.5;" width="186.8975" x="58.79" y="258.9269"/><ellipse cx="131.6303" cy="274.9269" fill="#ADD1B2" rx="11" ry="11" style="stroke:#181818;stroke-width:1.0;"/><path d="M135.7397,280.9269 L128.021,280.9269 L128.021,268.5363 L135.7397,268.5363 L135.7397,270.6925 L130.4741,270.6925 L130.4741,273.3644 L135.2397,273.3644 L135.2397,275.5206 L130.4741,275.5206 L130.4741,278.7706 L135.7397,278.7706 L135.7397,280.9269 Z " fill="#000000"/><text fill="#000000" font-family="sans-serif" font-size="14" lengthAdjust="spacing" textLength="32.7168" x="152.1303" y="279.7736">Chat</text><line style="stroke:#181818;stroke-width:0.5;" x1="59.79" x2="244.6875" y1="290.9269" y2="290.9269"/><ellipse cx="69.79" cy="304.5753" fill="#000000" rx="3" ry="3" style="stroke:#000000;stroke-width:1.0;"/><text fill="#000000" font-family="sans-serif" font-size="14" lengthAdjust="spacing" textLength="92.6748" x="78.79" y="307.922">chatId : UUID</text><ellipse cx="69.79" cy="320.8722" fill="#000000" rx="3" ry="3" style="stroke:#000000;stroke-width:1.0;"/><text fill="#000000" font-family="sans-serif" font-size="14" lengthAdjust="spacing" textLength="124.4209" x="78.79" y="324.2189">isGroup : Boolean</text><ellipse cx="69.79" cy="337.1691" fill="#000000" rx="3" ry="3" style="stroke:#000000;stroke-width:1.0;"/><text fill="#000000" font-family="sans-serif" font-size="14" lengthAdjust="spacing" textLength="160.8975" x="78.79" y="340.5157">createdAt : Timestamp</text><line style="stroke:#181818;stroke-width:0.5;" x1="59.79" x2="244.6875" y1="347.8175" y2="347.8175"/></g><!--class Message--><g id="elem_Message"><rect codeLine="16" fill="#F1F1F1" height="162.0781" id="Message" rx="2.5" ry="2.5" style="stroke:#181818;stroke-width:0.5;" width="290.4688" x="7" y="457.2669"/><ellipse cx="117.3047" cy="473.2669" fill="#ADD1B2" rx="11" ry="11" style="stroke:#181818;stroke-width:1.0;"/><path d="M121.4141,479.2669 L113.6953,479.2669 L113.6953,466.8762 L121.4141,466.8762 L121.4141,469.0325 L116.1484,469.0325 L116.1484,471.7044 L120.9141,471.7044 L120.9141,473.8606 L116.1484,473.8606 L116.1484,477.1106 L121.4141,477.1106 L121.4141,479.2669 Z " fill="#000000"/><text fill="#000000" font-family="sans-serif" font-size="14" lengthAdjust="spacing" textLength="61.3594" x="137.8047" y="478.1136">Message</text><line style="stroke:#181818;stroke-width:0.5;" x1="8" x2="296.4688" y1="489.2669" y2="489.2669"/><ellipse cx="18" cy="502.9153" fill="#000000" rx="3" ry="3" style="stroke:#000000;stroke-width:1.0;"/><text fill="#000000" font-family="sans-serif" font-size="14" lengthAdjust="spacing" textLength="124.9541" x="27" y="506.262">messageId : UUID</text><ellipse cx="18" cy="519.2122" fill="#000000" rx="3" ry="3" style="stroke:#000000;stroke-width:1.0;"/><text fill="#000000" font-family="sans-serif" font-size="14" lengthAdjust="spacing" textLength="92.6748" x="27" y="522.5589">chatId : UUID</text><ellipse cx="18" cy="535.5091" fill="#000000" rx="3" ry="3" style="stroke:#000000;stroke-width:1.0;"/><text fill="#000000" font-family="sans-serif" font-size="14" lengthAdjust="spacing" textLength="110.0723" x="27" y="538.8557">senderId : UUID</text><ellipse cx="18" cy="551.8059" fill="#000000" rx="3" ry="3" style="stroke:#000000;stroke-width:1.0;"/><text fill="#000000" font-family="sans-serif" font-size="14" lengthAdjust="spacing" textLength="119.2598" x="27" y="555.1526">receiverId : UUID</text><ellipse cx="18" cy="568.1028" fill="#000000" rx="3" ry="3" style="stroke:#000000;stroke-width:1.0;"/><text fill="#000000" font-family="sans-serif" font-size="14" lengthAdjust="spacing" textLength="98.1572" x="27" y="571.4495">content : Text</text><ellipse cx="18" cy="584.3997" fill="#000000" rx="3" ry="3" style="stroke:#000000;stroke-width:1.0;"/><text fill="#000000" font-family="sans-serif" font-size="14" lengthAdjust="spacing" textLength="167.7129" x="27" y="587.7464">timestamp : Timestamp</text><ellipse cx="18" cy="600.6966" fill="#000000" rx="3" ry="3" style="stroke:#000000;stroke-width:1.0;"/><text fill="#000000" font-family="sans-serif" font-size="14" lengthAdjust="spacing" textLength="264.4688" x="27" y="604.0432">status : Enum {sent, delivered, read}</text><line style="stroke:#181818;stroke-width:0.5;" x1="8" x2="296.4688" y1="611.345" y2="611.345"/></g><!--class Group--><g id="elem_Group"><rect codeLine="26" fill="#F1F1F1" height="96.8906" id="Group" rx="2.5" ry="2.5" style="stroke:#181818;stroke-width:0.5;" width="163.6689" x="444.4" y="52.4469"/><ellipse cx="500.5196" cy="68.4469" fill="#ADD1B2" rx="11" ry="11" style="stroke:#181818;stroke-width:1.0;"/><path d="M504.629,74.4469 L496.9103,74.4469 L496.9103,62.0562 L504.629,62.0562 L504.629,64.2125 L499.3634,64.2125 L499.3634,66.8844 L504.129,66.8844 L504.129,69.0406 L499.3634,69.0406 L499.3634,72.2906 L504.629,72.2906 L504.629,74.4469 Z " fill="#000000"/><text fill="#000000" font-family="sans-serif" font-size="14" lengthAdjust="spacing" textLength="42.9297" x="521.0196" y="73.2936">Group</text><line style="stroke:#181818;stroke-width:0.5;" x1="445.4" x2="607.0689" y1="84.4469" y2="84.4469"/><ellipse cx="455.4" cy="98.0953" fill="#000000" rx="3" ry="3" style="stroke:#000000;stroke-width:1.0;"/><text fill="#000000" font-family="sans-serif" font-size="14" lengthAdjust="spacing" textLength="103.0039" x="464.4" y="101.442">groupId : UUID</text><ellipse cx="455.4" cy="114.3922" fill="#000000" rx="3" ry="3" style="stroke:#000000;stroke-width:1.0;"/><text fill="#000000" font-family="sans-serif" font-size="14" lengthAdjust="spacing" textLength="137.6689" x="464.4" y="117.7389">groupName : String</text><ellipse cx="455.4" cy="130.6891" fill="#000000" rx="3" ry="3" style="stroke:#000000;stroke-width:1.0;"/><text fill="#000000" font-family="sans-serif" font-size="14" lengthAdjust="spacing" textLength="105.9023" x="464.4" y="134.0357">adminId : UUID</text><line style="stroke:#181818;stroke-width:0.5;" x1="445.4" x2="607.0689" y1="141.3375" y2="141.3375"/></g><!--class Media--><g id="elem_Media"><rect codeLine="32" fill="#F1F1F1" height="129.4844" id="Media" rx="2.5" ry="2.5" style="stroke:#181818;stroke-width:0.5;" width="254.3545" x="25.06" y="696.3469"/><ellipse cx="126.9633" cy="712.3469" fill="#ADD1B2" rx="11" ry="11" style="stroke:#181818;stroke-width:1.0;"/><path d="M131.0727,718.3469 L123.3539,718.3469 L123.3539,705.9563 L131.0727,705.9563 L131.0727,708.1125 L125.8071,708.1125 L125.8071,710.7844 L130.5727,710.7844 L130.5727,712.9406 L125.8071,712.9406 L125.8071,716.1906 L131.0727,716.1906 L131.0727,718.3469 Z " fill="#000000"/><text fill="#000000" font-family="sans-serif" font-size="14" lengthAdjust="spacing" textLength="42.0479" x="147.4633" y="717.1936">Media</text><line style="stroke:#181818;stroke-width:0.5;" x1="26.06" x2="278.4145" y1="728.3469" y2="728.3469"/><ellipse cx="36.06" cy="741.9953" fill="#000000" rx="3" ry="3" style="stroke:#000000;stroke-width:1.0;"/><text fill="#000000" font-family="sans-serif" font-size="14" lengthAdjust="spacing" textLength="105.6426" x="45.06" y="745.342">mediaId : UUID</text><ellipse cx="36.06" cy="758.2922" fill="#000000" rx="3" ry="3" style="stroke:#000000;stroke-width:1.0;"/><text fill="#000000" font-family="sans-serif" font-size="14" lengthAdjust="spacing" textLength="124.9541" x="45.06" y="761.6389">messageId : UUID</text><ellipse cx="36.06" cy="774.5891" fill="#000000" rx="3" ry="3" style="stroke:#000000;stroke-width:1.0;"/><text fill="#000000" font-family="sans-serif" font-size="14" lengthAdjust="spacing" textLength="228.3545" x="45.06" y="777.9357">type : Enum {image, video, file}</text><ellipse cx="36.06" cy="790.8859" fill="#000000" rx="3" ry="3" style="stroke:#000000;stroke-width:1.0;"/><text fill="#000000" font-family="sans-serif" font-size="14" lengthAdjust="spacing" textLength="59.9102" x="45.06" y="794.2326">url : URL</text><ellipse cx="36.06" cy="807.1828" fill="#000000" rx="3" ry="3" style="stroke:#000000;stroke-width:1.0;"/><text fill="#000000" font-family="sans-serif" font-size="14" lengthAdjust="spacing" textLength="91.123" x="45.06" y="810.5295">size : Integer</text><line style="stroke:#181818;stroke-width:0.5;" x1="26.06" x2="278.4145" y1="817.8313" y2="817.8313"/></g><!--class CallLog--><g id="elem_CallLog"><rect codeLine="40" fill="#F1F1F1" height="145.7813" id="CallLog" rx="2.5" ry="2.5" style="stroke:#181818;stroke-width:0.5;" width="217.5771" x="280.45" y="234.4869"/><ellipse cx="359.2957" cy="250.4869" fill="#ADD1B2" rx="11" ry="11" style="stroke:#181818;stroke-width:1.0;"/><path d="M363.4051,256.4869 L355.6863,256.4869 L355.6863,244.0962 L363.4051,244.0962 L363.4051,246.2525 L358.1395,246.2525 L358.1395,248.9244 L362.9051,248.9244 L362.9051,251.0806 L358.1395,251.0806 L358.1395,254.3306 L363.4051,254.3306 L363.4051,256.4869 Z " fill="#000000"/><text fill="#000000" font-family="sans-serif" font-size="14" lengthAdjust="spacing" textLength="51.3857" x="379.7957" y="255.3336">CallLog</text><line style="stroke:#181818;stroke-width:0.5;" x1="281.45" x2="497.0271" y1="266.4869" y2="266.4869"/><ellipse cx="291.45" cy="280.1353" fill="#000000" rx="3" ry="3" style="stroke:#000000;stroke-width:1.0;"/><text fill="#000000" font-family="sans-serif" font-size="14" lengthAdjust="spacing" textLength="86.0918" x="300.45" y="283.482">callId : UUID</text><ellipse cx="291.45" cy="296.4322" fill="#000000" rx="3" ry="3" style="stroke:#000000;stroke-width:1.0;"/><text fill="#000000" font-family="sans-serif" font-size="14" lengthAdjust="spacing" textLength="100.4609" x="300.45" y="299.7789">callerId : UUID</text><ellipse cx="291.45" cy="312.7291" fill="#000000" rx="3" ry="3" style="stroke:#000000;stroke-width:1.0;"/><text fill="#000000" font-family="sans-serif" font-size="14" lengthAdjust="spacing" textLength="119.2598" x="300.45" y="316.0757">receiverId : UUID</text><ellipse cx="291.45" cy="329.0259" fill="#000000" rx="3" ry="3" style="stroke:#000000;stroke-width:1.0;"/><text fill="#000000" font-family="sans-serif" font-size="14" lengthAdjust="spacing" textLength="191.5771" x="300.45" y="332.3726">type : Enum {voice, video}</text><ellipse cx="291.45" cy="345.3228" fill="#000000" rx="3" ry="3" style="stroke:#000000;stroke-width:1.0;"/><text fill="#000000" font-family="sans-serif" font-size="14" lengthAdjust="spacing" textLength="167.7129" x="300.45" y="348.6695">timestamp : Timestamp</text><ellipse cx="291.45" cy="361.6197" fill="#000000" rx="3" ry="3" style="stroke:#000000;stroke-width:1.0;"/><text fill="#000000" font-family="sans-serif" font-size="14" lengthAdjust="spacing" textLength="122.8896" x="300.45" y="364.9664">duration : Integer</text><line style="stroke:#181818;stroke-width:0.5;" x1="281.45" x2="497.0271" y1="372.2681" y2="372.2681"/></g><!--link User to Chat--><g id="link_User_Chat"><path codeLine="49" d="M275.6339,163.8153 C248.3039,195.3853 231.5084,214.7855 205.4184,244.9355 " fill="none" id="User-Chat" style="stroke:#181818;stroke-width:1.0;"/><line style="stroke:#181818;stroke-width:1.0;" x1="275.2277" x2="281.2762" y1="158.173" y2="163.4091"/><line style="stroke:#181818;stroke-width:1.0;" x1="273.2642" x2="279.3126" y1="160.4412" y2="165.6773"/><line style="stroke:#181818;stroke-width:1.0;" x1="275.6339" x2="280.87" y1="163.8153" y2="157.7669"/><line style="stroke:#181818;stroke-width:1.0;" x1="198.8749" x2="198.1771" y1="252.4974" y2="262.473"/><line style="stroke:#181818;stroke-width:1.0;" x1="198.8749" x2="189.1029" y1="252.4974" y2="254.6207"/><line style="stroke:#181818;stroke-width:1.0;" x1="198.8749" x2="193.64" y1="252.4974" y2="258.5469"/><ellipse cx="202.801" cy="247.9603" fill="none" rx="4" ry="4" style="stroke:#181818;stroke-width:1.0;"/><text fill="#000000" font-family="sans-serif" font-size="13" lengthAdjust="spacing" textLength="77.1177" x="253.23" y="200.5538">participates</text></g><!--link Chat to Message--><g id="link_Chat_Message"><path codeLine="50" d="M152.23,364.0869 C152.23,393.3069 152.23,405.4569 152.23,439.2069 " fill="none" id="Chat-Message" style="stroke:#181818;stroke-width:1.0;"/><line style="stroke:#181818;stroke-width:1.0;" x1="148.23" x2="156.23" y1="360.0869" y2="360.0869"/><line style="stroke:#181818;stroke-width:1.0;" x1="148.23" x2="156.23" y1="363.0869" y2="363.0869"/><line style="stroke:#181818;stroke-width:1.0;" x1="152.23" x2="152.23" y1="364.0869" y2="356.0869"/><line style="stroke:#181818;stroke-width:1.0;" x1="152.23" x2="158.23" y1="449.2069" y2="457.2069"/><line style="stroke:#181818;stroke-width:1.0;" x1="152.23" x2="146.23" y1="449.2069" y2="457.2069"/><line style="stroke:#181818;stroke-width:1.0;" x1="152.23" x2="152.23" y1="449.2069" y2="457.2069"/><ellipse cx="152.23" cy="443.2069" fill="none" rx="4" ry="4" style="stroke:#181818;stroke-width:1.0;"/><text fill="#000000" font-family="sans-serif" font-size="13" lengthAdjust="spacing" textLength="55.0278" x="153.23" y="423.3338">contains</text></g><!--link User to CallLog--><g id="link_User_CallLog"><path codeLine="51" d="M347.8811,165.4436 C354.7811,188.9736 355.5941,191.7145 362.9441,216.7745 " fill="none" id="User-CallLog" style="stroke:#181818;stroke-width:1.0;"/><line style="stroke:#181818;stroke-width:1.0;" x1="342.9172" x2="350.5939" y1="162.7308" y2="160.4797"/><line style="stroke:#181818;stroke-width:1.0;" x1="343.7614" x2="351.4381" y1="165.6096" y2="163.3584"/><line style="stroke:#181818;stroke-width:1.0;" x1="347.8811" x2="345.63" y1="165.4436" y2="157.7669"/><line style="stroke:#181818;stroke-width:1.0;" x1="365.7585" x2="373.7675" y1="226.3702" y2="232.3582"/><line style="stroke:#181818;stroke-width:1.0;" x1="365.7585" x2="362.2525" y1="226.3702" y2="235.7355"/><line style="stroke:#181818;stroke-width:1.0;" x1="365.7585" x2="368.01" y1="226.3702" y2="234.0469"/><ellipse cx="364.0698" cy="220.6128" fill="none" rx="4" ry="4" style="stroke:#181818;stroke-width:1.0;"/><text fill="#000000" font-family="sans-serif" font-size="13" lengthAdjust="spacing" textLength="77.1177" x="360.23" y="200.5538">participates</text></g><!--link Message to Media--><g id="link_Message_Media"><path codeLine="52" d="M152.23,627.6369 C152.23,652.7869 152.23,654.1969 152.23,678.0669 " fill="none" id="Message-Media" style="stroke:#181818;stroke-width:1.0;"/><line style="stroke:#181818;stroke-width:1.0;" x1="148.23" x2="156.23" y1="623.6369" y2="623.6369"/><line style="stroke:#181818;stroke-width:1.0;" x1="148.23" x2="156.23" y1="626.6369" y2="626.6369"/><line style="stroke:#181818;stroke-width:1.0;" x1="152.23" x2="152.23" y1="627.6369" y2="619.6369"/><line style="stroke:#181818;stroke-width:1.0;" x1="152.23" x2="158.23" y1="688.0669" y2="696.0669"/><line style="stroke:#181818;stroke-width:1.0;" x1="152.23" x2="146.23" y1="688.0669" y2="696.0669"/><line style="stroke:#181818;stroke-width:1.0;" x1="152.23" x2="152.23" y1="688.0669" y2="696.0669"/><ellipse cx="152.23" cy="682.0669" fill="none" rx="4" ry="4" style="stroke:#181818;stroke-width:1.0;"/><text fill="#000000" font-family="sans-serif" font-size="13" lengthAdjust="spacing" textLength="53.8726" x="153.23" y="662.4138">includes</text></g><!--SRC=[ZL9RJiCm4FpFAVoDqWla3sY5AfM72Zt0AbxIbVo8x4r5QNDt7ET1793WRpthdPbzCB52iJ5CV5xjKG6JDVv8jLWJL0vqbc5CYeD79owP43UY2U5MYa8S3jjrH503gG2yiYDJHQXszfqKlb39ZSFkytuN4-IVZIBJGNVMAWIJjPFA_H5uK2b3cAgGVt2sgMU5yPz3O9It7F0tqkWPT3sZV4JleSA1LVUlbFYdb4SZbqqwB95EIxIqXeDI9uuV724UNIIE8Yq3Dpx06zDeSGagd0k9ggD5cGS9aEtCUzzlxxpgubGxGa-WCHqzI4tc- -Ty599W6aI8KxfVPyFd6YV3f4C-5oUIQ7FHxRVjByAfsOOzVNObsp2O2jrykw3KpbRZWiDhCSk0_6_gYQkJfN9qrVwn0TcuUEEfltZSr-jgPI_z2HQY1iTKKXrkosSH6_BZFHLnzK36f-L3Zmk6iMeYwJPH23AbQYJwBm00]--></g></svg>