<svg xmlns="http://www.w3.org/2000/svg" xmlns:xlink="http://www.w3.org/1999/xlink" contentStyleType="text/css" height="423px" preserveAspectRatio="none" style="width:866px;height:423px;background:#FFFFFF;" version="1.1" viewBox="0 0 866 423" width="866px" zoomAndPan="magnify"><title>Sequence Diagram - Message Sending Flow</title><defs/><g><text fill="#000000" font-family="sans-serif" font-size="14" font-weight="bold" lengthAdjust="spacing" textLength="344.1553" x="260.3452" y="27.9951">Sequence Diagram - Message Sending Flow</text><line style="stroke:#181818;stroke-width:0.5;stroke-dasharray:5.0,5.0;" x1="23" x2="23" y1="118.5938" y2="342.5234"/><line style="stroke:#181818;stroke-width:0.5;stroke-dasharray:5.0,5.0;" x1="70.9102" x2="70.9102" y1="118.5938" y2="342.5234"/><line style="stroke:#181818;stroke-width:0.5;stroke-dasharray:5.0,5.0;" x1="282.6343" x2="282.6343" y1="118.5938" y2="342.5234"/><line style="stroke:#181818;stroke-width:0.5;stroke-dasharray:5.0,5.0;" x1="458.7358" x2="458.7358" y1="118.5938" y2="342.5234"/><line style="stroke:#181818;stroke-width:0.5;stroke-dasharray:5.0,5.0;" x1="659.0596" x2="659.0596" y1="118.5938" y2="342.5234"/><line style="stroke:#181818;stroke-width:0.5;stroke-dasharray:5.0,5.0;" x1="784.8604" x2="784.8604" y1="118.5938" y2="342.5234"/><text fill="#000000" font-family="sans-serif" font-size="14" lengthAdjust="spacing" textLength="31.9102" x="5" y="115.292">User</text><ellipse cx="23.9551" cy="50.7969" fill="#E2E2F0" rx="8" ry="8" style="stroke:#181818;stroke-width:0.5;"/><path d="M23.9551,58.7969 L23.9551,85.7969 M10.9551,66.7969 L36.9551,66.7969 M23.9551,85.7969 L10.9551,100.7969 M23.9551,85.7969 L36.9551,100.7969 " fill="none" style="stroke:#181818;stroke-width:0.5;"/><text fill="#000000" font-family="sans-serif" font-size="14" lengthAdjust="spacing" textLength="31.9102" x="5" y="354.5186">User</text><ellipse cx="23.9551" cy="366.3203" fill="#E2E2F0" rx="8" ry="8" style="stroke:#181818;stroke-width:0.5;"/><path d="M23.9551,374.3203 L23.9551,401.3203 M10.9551,382.3203 L36.9551,382.3203 M23.9551,401.3203 L10.9551,416.3203 M23.9551,401.3203 L36.9551,416.3203 " fill="none" style="stroke:#181818;stroke-width:0.5;"/><text fill="#000000" font-family="sans-serif" font-size="14" lengthAdjust="spacing" textLength="31.9102" x="52.9102" y="115.292">User</text><ellipse cx="71.8652" cy="50.7969" fill="#E2E2F0" rx="8" ry="8" style="stroke:#181818;stroke-width:0.5;"/><path d="M71.8652,58.7969 L71.8652,85.7969 M58.8652,66.7969 L84.8652,66.7969 M71.8652,85.7969 L58.8652,100.7969 M71.8652,85.7969 L84.8652,100.7969 " fill="none" style="stroke:#181818;stroke-width:0.5;"/><text fill="#000000" font-family="sans-serif" font-size="14" lengthAdjust="spacing" textLength="31.9102" x="52.9102" y="354.5186">User</text><ellipse cx="71.8652" cy="366.3203" fill="#E2E2F0" rx="8" ry="8" style="stroke:#181818;stroke-width:0.5;"/><path d="M71.8652,374.3203 L71.8652,401.3203 M58.8652,382.3203 L84.8652,382.3203 M71.8652,401.3203 L58.8652,416.3203 M71.8652,401.3203 L84.8652,416.3203 " fill="none" style="stroke:#181818;stroke-width:0.5;"/><rect fill="#E2E2F0" height="30.2969" rx="2.5" ry="2.5" style="stroke:#181818;stroke-width:0.5;" width="91.9639" x="237.6343" y="87.2969"/><text fill="#000000" font-family="sans-serif" font-size="14" lengthAdjust="spacing" textLength="77.9639" x="244.6343" y="107.292">Flutter App</text><rect fill="#E2E2F0" height="30.2969" rx="2.5" ry="2.5" style="stroke:#181818;stroke-width:0.5;" width="91.9639" x="237.6343" y="341.5234"/><text fill="#000000" font-family="sans-serif" font-size="14" lengthAdjust="spacing" textLength="77.9639" x="244.6343" y="361.5186">Flutter App</text><rect fill="#E2E2F0" height="30.2969" rx="2.5" ry="2.5" style="stroke:#181818;stroke-width:0.5;" width="124.7217" x="396.7358" y="87.2969"/><text fill="#000000" font-family="sans-serif" font-size="14" lengthAdjust="spacing" textLength="110.7217" x="403.7358" y="107.292">Backend Server</text><rect fill="#E2E2F0" height="30.2969" rx="2.5" ry="2.5" style="stroke:#181818;stroke-width:0.5;" width="124.7217" x="396.7358" y="341.5234"/><text fill="#000000" font-family="sans-serif" font-size="14" lengthAdjust="spacing" textLength="110.7217" x="403.7358" y="361.5186">Backend Server</text><rect fill="#E2E2F0" height="30.2969" rx="2.5" ry="2.5" style="stroke:#181818;stroke-width:0.5;" width="80.8008" x="619.0596" y="87.2969"/><text fill="#000000" font-family="sans-serif" font-size="14" lengthAdjust="spacing" textLength="66.8008" x="626.0596" y="107.292">Database</text><rect fill="#E2E2F0" height="30.2969" rx="2.5" ry="2.5" style="stroke:#181818;stroke-width:0.5;" width="80.8008" x="619.0596" y="341.5234"/><text fill="#000000" font-family="sans-serif" font-size="14" lengthAdjust="spacing" textLength="66.8008" x="626.0596" y="361.5186">Database</text><rect fill="#E2E2F0" height="30.2969" rx="2.5" ry="2.5" style="stroke:#181818;stroke-width:0.5;" width="150.9854" x="709.8604" y="87.2969"/><text fill="#000000" font-family="sans-serif" font-size="14" lengthAdjust="spacing" textLength="136.9854" x="716.8604" y="107.292">Notification System</text><rect fill="#E2E2F0" height="30.2969" rx="2.5" ry="2.5" style="stroke:#181818;stroke-width:0.5;" width="150.9854" x="709.8604" y="341.5234"/><text fill="#000000" font-family="sans-serif" font-size="14" lengthAdjust="spacing" textLength="136.9854" x="716.8604" y="361.5186">Notification System</text><polygon fill="#181818" points="271.6162,145.7266,281.6162,149.7266,271.6162,153.7266,275.6162,149.7266" style="stroke:#181818;stroke-width:1.0;"/><line style="stroke:#181818;stroke-width:1.0;" x1="23.9551" x2="277.6162" y1="149.7266" y2="149.7266"/><text fill="#000000" font-family="sans-serif" font-size="13" lengthAdjust="spacing" textLength="93.8501" x="30.9551" y="144.6606">Send Message</text><polygon fill="#181818" points="447.0967,174.8594,457.0967,178.8594,447.0967,182.8594,451.0967,178.8594" style="stroke:#181818;stroke-width:1.0;"/><line style="stroke:#181818;stroke-width:1.0;" x1="283.6162" x2="453.0967" y1="178.8594" y2="178.8594"/><text fill="#000000" font-family="sans-serif" font-size="13" lengthAdjust="spacing" textLength="151.4805" x="290.6162" y="173.7935">API Call (sendMessage)</text><polygon fill="#181818" points="647.46,203.9922,657.46,207.9922,647.46,211.9922,651.46,207.9922" style="stroke:#181818;stroke-width:1.0;"/><line style="stroke:#181818;stroke-width:1.0;" x1="459.0967" x2="653.46" y1="207.9922" y2="207.9922"/><text fill="#000000" font-family="sans-serif" font-size="13" lengthAdjust="spacing" textLength="176.3633" x="466.0967" y="202.9263">Save Message to Database</text><polygon fill="#181818" points="773.353,233.125,783.353,237.125,773.353,241.125,777.353,237.125" style="stroke:#181818;stroke-width:1.0;"/><line style="stroke:#181818;stroke-width:1.0;" x1="459.0967" x2="779.353" y1="237.125" y2="237.125"/><text fill="#000000" font-family="sans-serif" font-size="13" lengthAdjust="spacing" textLength="189.6045" x="466.0967" y="232.0591">Send Notification to Receiver</text><polygon fill="#181818" points="82.8652,262.2578,72.8652,266.2578,82.8652,270.2578,78.8652,266.2578" style="stroke:#181818;stroke-width:1.0;"/><line style="stroke:#181818;stroke-width:1.0;" x1="76.8652" x2="784.353" y1="266.2578" y2="266.2578"/><text fill="#000000" font-family="sans-serif" font-size="13" lengthAdjust="spacing" textLength="109.8145" x="88.8652" y="261.1919">Push Notification</text><polygon fill="#181818" points="271.6162,291.3906,281.6162,295.3906,271.6162,299.3906,275.6162,295.3906" style="stroke:#181818;stroke-width:1.0;"/><line style="stroke:#181818;stroke-width:1.0;" x1="71.8652" x2="277.6162" y1="295.3906" y2="295.3906"/><text fill="#000000" font-family="sans-serif" font-size="13" lengthAdjust="spacing" textLength="187.751" x="78.8652" y="290.3247">Display Message Notification</text><polygon fill="#181818" points="34.9551,320.5234,24.9551,324.5234,34.9551,328.5234,30.9551,324.5234" style="stroke:#181818;stroke-width:1.0;"/><line style="stroke:#181818;stroke-width:1.0;" x1="28.9551" x2="458.0967" y1="324.5234" y2="324.5234"/><text fill="#000000" font-family="sans-serif" font-size="13" lengthAdjust="spacing" textLength="189.3062" x="40.9551" y="319.4575">Confirmation (Message Sent)</text><!--SRC=[NP5DRW8n38NtEON52XPSW4KbXX5I5qMeg0TmKqEjPf9fug7YzdNchvEk4lbzBtvsXCKHNEYx8sy9QiPRn0Qsy48fuIrB_eFz3Ouk_1Y3LaA4jqGHC45IZUA_OYHBVDToYr7OSejUO7LqdOW2-xPTPKhF4gZGVkbpsY-gkMU6QudLAFYEYNgWhahn58IlR54uUBWyab3JSyjwCcQ83Tkdd09s_OZJl2QNL1bwgxW_FyC1dODrjetKneowadMLdy0xpIkJ05FC1LU4cBeMYTNtEYslfDK-hLMTvovz5aupY_DCDQVMuMFELE1_eSPLxE0G_9LZCmHPBpvVDhy0]--></g></svg>