<svg xmlns="http://www.w3.org/2000/svg" xmlns:xlink="http://www.w3.org/1999/xlink" contentStyleType="text/css" height="438px" preserveAspectRatio="none" style="width:912px;height:438px;background:#FFFFFF;" version="1.1" viewBox="0 0 912 438" width="912px" zoomAndPan="magnify"><title>System Architecture</title><defs/><g><text fill="#000000" font-family="sans-serif" font-size="14" font-weight="bold" lengthAdjust="spacing" textLength="161.54" x="368.23" y="22.9951">System Architecture</text><!--cluster Client--><g id="cluster_Client"><path d="M267.5,43.2969 L314.5264,43.2969 A3.75,3.75 0 0 1 317.0264,45.7969 L324.0264,65.5938 L412.5,65.5938 A2.5,2.5 0 0 1 415,68.0938 L415,138.0969 A2.5,2.5 0 0 1 412.5,140.5969 L267.5,140.5969 A2.5,2.5 0 0 1 265,138.0969 L265,45.7969 A2.5,2.5 0 0 1 267.5,43.2969 " fill="none" style="stroke:#000000;stroke-width:1.5;"/><line style="stroke:#000000;stroke-width:1.5;" x1="265" x2="324.0264" y1="65.5938" y2="65.5938"/><text fill="#000000" font-family="sans-serif" font-size="14" font-weight="bold" lengthAdjust="spacing" textLength="46.0264" x="269" y="58.292">Client</text></g><!--cluster Backend--><g id="cluster_Backend"><path d="M8.5,189.5969 L76.7109,189.5969 A3.75,3.75 0 0 1 79.2109,192.0969 L86.2109,211.8938 L448.5,211.8938 A2.5,2.5 0 0 1 451,214.3938 L451,428.6869 A2.5,2.5 0 0 1 448.5,431.1869 L8.5,431.1869 A2.5,2.5 0 0 1 6,428.6869 L6,192.0969 A2.5,2.5 0 0 1 8.5,189.5969 " fill="none" style="stroke:#000000;stroke-width:1.5;"/><line style="stroke:#000000;stroke-width:1.5;" x1="6" x2="86.2109" y1="211.8938" y2="211.8938"/><text fill="#000000" font-family="sans-serif" font-size="14" font-weight="bold" lengthAdjust="spacing" textLength="67.2109" x="10" y="204.592">Backend</text></g><!--cluster Database--><g id="cluster_Database"><path d="M477.5,333.8869 L553.0049,333.8869 A3.75,3.75 0 0 1 555.5049,336.3869 L562.5049,356.1838 L624.5,356.1838 A2.5,2.5 0 0 1 627,358.6838 L627,428.6869 A2.5,2.5 0 0 1 624.5,431.1869 L477.5,431.1869 A2.5,2.5 0 0 1 475,428.6869 L475,336.3869 A2.5,2.5 0 0 1 477.5,333.8869 " fill="none" style="stroke:#000000;stroke-width:1.5;"/><line style="stroke:#000000;stroke-width:1.5;" x1="475" x2="562.5049" y1="356.1838" y2="356.1838"/><text fill="#000000" font-family="sans-serif" font-size="14" font-weight="bold" lengthAdjust="spacing" textLength="74.5049" x="479" y="348.882">Database</text></g><!--cluster Notifications--><g id="cluster_Notifications"><path d="M653.5,333.8869 L755.3711,333.8869 A3.75,3.75 0 0 1 757.8711,336.3869 L764.8711,356.1838 L902.5,356.1838 A2.5,2.5 0 0 1 905,358.6838 L905,428.6869 A2.5,2.5 0 0 1 902.5,431.1869 L653.5,431.1869 A2.5,2.5 0 0 1 651,428.6869 L651,336.3869 A2.5,2.5 0 0 1 653.5,333.8869 " fill="none" style="stroke:#000000;stroke-width:1.5;"/><line style="stroke:#000000;stroke-width:1.5;" x1="651" x2="764.8711" y1="356.1838" y2="356.1838"/><text fill="#000000" font-family="sans-serif" font-size="14" font-weight="bold" lengthAdjust="spacing" textLength="100.8711" x="655" y="348.882">Notifications</text></g><!--entity Flutter App--><g id="elem_Flutter App"><rect fill="#F1F1F1" height="46.2969" rx="2.5" ry="2.5" style="stroke:#181818;stroke-width:0.5;" width="117.9639" x="281.02" y="78.2969"/><rect fill="#F1F1F1" height="10" style="stroke:#181818;stroke-width:0.5;" width="15" x="378.9839" y="83.2969"/><rect fill="#F1F1F1" height="2" style="stroke:#181818;stroke-width:0.5;" width="4" x="376.9839" y="85.2969"/><rect fill="#F1F1F1" height="2" style="stroke:#181818;stroke-width:0.5;" width="4" x="376.9839" y="89.2969"/><text fill="#000000" font-family="sans-serif" font-size="14" lengthAdjust="spacing" textLength="77.9639" x="296.02" y="111.292">Flutter App</text></g><!--entity NestJS/Django Server--><g id="elem_NestJS/Django Server"><rect fill="#F1F1F1" height="46.2969" rx="2.5" ry="2.5" style="stroke:#181818;stroke-width:0.5;" width="189.5361" x="245.23" y="224.5969"/><rect fill="#F1F1F1" height="10" style="stroke:#181818;stroke-width:0.5;" width="15" x="414.7661" y="229.5969"/><rect fill="#F1F1F1" height="2" style="stroke:#181818;stroke-width:0.5;" width="4" x="412.7661" y="231.5969"/><rect fill="#F1F1F1" height="2" style="stroke:#181818;stroke-width:0.5;" width="4" x="412.7661" y="235.5969"/><text fill="#000000" font-family="sans-serif" font-size="14" lengthAdjust="spacing" textLength="149.5361" x="260.23" y="257.592">NestJS/Django Server</text></g><!--entity Firebase Storage / Amazon S3--><g id="elem_Firebase Storage / Amazon S3"><rect fill="#F1F1F1" height="46.2969" rx="2.5" ry="2.5" style="stroke:#181818;stroke-width:0.5;" width="251.3535" x="22.32" y="368.8869"/><rect fill="#F1F1F1" height="10" style="stroke:#181818;stroke-width:0.5;" width="15" x="253.6735" y="373.8869"/><rect fill="#F1F1F1" height="2" style="stroke:#181818;stroke-width:0.5;" width="4" x="251.6735" y="375.8869"/><rect fill="#F1F1F1" height="2" style="stroke:#181818;stroke-width:0.5;" width="4" x="251.6735" y="379.8869"/><text fill="#000000" font-family="sans-serif" font-size="14" lengthAdjust="spacing" textLength="211.3535" x="37.32" y="401.882">Firebase Storage / Amazon S3</text></g><!--entity Redis Cache--><g id="elem_Redis Cache"><rect fill="#F1F1F1" height="46.2969" rx="2.5" ry="2.5" style="stroke:#181818;stroke-width:0.5;" width="126.3994" x="308.8" y="368.8869"/><rect fill="#F1F1F1" height="10" style="stroke:#181818;stroke-width:0.5;" width="15" x="415.1994" y="373.8869"/><rect fill="#F1F1F1" height="2" style="stroke:#181818;stroke-width:0.5;" width="4" x="413.1994" y="375.8869"/><rect fill="#F1F1F1" height="2" style="stroke:#181818;stroke-width:0.5;" width="4" x="413.1994" y="379.8869"/><text fill="#000000" font-family="sans-serif" font-size="14" lengthAdjust="spacing" textLength="86.3994" x="323.8" y="401.882">Redis Cache</text></g><!--entity PostgreSQL--><g id="elem_PostgreSQL"><rect fill="#F1F1F1" height="46.2969" rx="2.5" ry="2.5" style="stroke:#181818;stroke-width:0.5;" width="120.7529" x="490.62" y="368.8869"/><rect fill="#F1F1F1" height="10" style="stroke:#181818;stroke-width:0.5;" width="15" x="591.3729" y="373.8869"/><rect fill="#F1F1F1" height="2" style="stroke:#181818;stroke-width:0.5;" width="4" x="589.3729" y="375.8869"/><rect fill="#F1F1F1" height="2" style="stroke:#181818;stroke-width:0.5;" width="4" x="589.3729" y="379.8869"/><text fill="#000000" font-family="sans-serif" font-size="14" lengthAdjust="spacing" textLength="80.7529" x="505.62" y="401.882">PostgreSQL</text></g><!--entity Firebase Cloud Messaging--><g id="elem_Firebase Cloud Messaging"><rect fill="#F1F1F1" height="46.2969" rx="2.5" ry="2.5" style="stroke:#181818;stroke-width:0.5;" width="222.9707" x="666.51" y="368.8869"/><rect fill="#F1F1F1" height="10" style="stroke:#181818;stroke-width:0.5;" width="15" x="869.4807" y="373.8869"/><rect fill="#F1F1F1" height="2" style="stroke:#181818;stroke-width:0.5;" width="4" x="867.4807" y="375.8869"/><rect fill="#F1F1F1" height="2" style="stroke:#181818;stroke-width:0.5;" width="4" x="867.4807" y="379.8869"/><text fill="#000000" font-family="sans-serif" font-size="14" lengthAdjust="spacing" textLength="182.9707" x="681.51" y="401.882">Firebase Cloud Messaging</text></g><!--link Flutter App to NestJS/Django Server--><g id="link_Flutter App_NestJS/Django Server"><path d="M340,124.9869 C340,152.0969 340,191.3169 340,218.3569 " fill="none" id="Flutter App-to-NestJS/Django Server" style="stroke:#181818;stroke-width:1.0;"/><polygon fill="#181818" points="340,224.3569,344,215.3569,340,219.3569,336,215.3569,340,224.3569" style="stroke:#181818;stroke-width:1.0;"/><text fill="#000000" font-family="sans-serif" font-size="13" lengthAdjust="spacing" textLength="84.8618" x="341" y="169.6638">API Requests</text></g><!--link NestJS/Django Server to PostgreSQL--><g id="link_NestJS/Django Server_PostgreSQL"><path d="M373.82,271.2869 C387.54,280.4469 403.54,291.1569 418,300.8869 C452.13,323.8669 486.1171,346.9249 513.0071,365.1949 " fill="none" id="NestJS/Django Server-to-PostgreSQL" style="stroke:#181818;stroke-width:1.0;"/><polygon fill="#181818" points="517.97,368.5669,512.7737,360.2004,513.8343,365.7569,508.2777,366.8175,517.97,368.5669" style="stroke:#181818;stroke-width:1.0;"/><text fill="#000000" font-family="sans-serif" font-size="13" lengthAdjust="spacing" textLength="116.3589" x="441" y="313.9538">Database Queries</text></g><!--link NestJS/Django Server to Firebase Storage / Amazon S3--><g id="link_NestJS/Django Server_Firebase Storage / Amazon S3"><path d="M296.26,271.3769 C280.89,279.9569 263.77,290.2469 249,300.8869 C220.21,321.6369 194.5432,345.0957 174.8032,364.2757 " fill="none" id="NestJS/Django Server-to-Firebase Storage / Amazon S3" style="stroke:#181818;stroke-width:1.0;"/><polygon fill="#181818" points="170.5,368.4569,179.7423,365.054,174.086,364.9726,174.1674,359.3163,170.5,368.4569" style="stroke:#181818;stroke-width:1.0;"/><text fill="#000000" font-family="sans-serif" font-size="13" lengthAdjust="spacing" textLength="94.0405" x="250" y="313.9538">Media Storage</text></g><!--link NestJS/Django Server to Redis Cache--><g id="link_NestJS/Django Server_Redis Cache"><path d="M345.07,271.2869 C351.06,297.9369 359.654,336.143 365.634,362.743 " fill="none" id="NestJS/Django Server-to-Redis Cache" style="stroke:#181818;stroke-width:1.0;"/><polygon fill="#181818" points="366.95,368.5969,368.8786,358.9387,365.8533,363.7186,361.0734,360.6934,366.95,368.5969" style="stroke:#181818;stroke-width:1.0;"/><text fill="#000000" font-family="sans-serif" font-size="13" lengthAdjust="spacing" textLength="52.5332" x="357" y="313.9538">Caching</text></g><!--link NestJS/Django Server to Firebase Cloud Messaging--><g id="link_NestJS/Django Server_Firebase Cloud Messaging"><path d="M435.21,267.1269 C475.91,275.8969 523.69,287.4369 566,300.8869 C593.92,309.7669 599.99,314.5269 627,325.8869 C660.16,339.8369 691.7568,353.4462 720.8768,366.0962 " fill="none" id="NestJS/Django Server-to-Firebase Cloud Messaging" style="stroke:#181818;stroke-width:1.0;"/><polygon fill="#181818" points="726.38,368.4869,719.719,361.2322,721.794,366.4947,716.5315,368.5697,726.38,368.4869" style="stroke:#181818;stroke-width:1.0;"/><text fill="#000000" font-family="sans-serif" font-size="13" lengthAdjust="spacing" textLength="118.2378" x="609" y="313.9538">Send Notifications</text></g><!--SRC=[ZP51ImCn48Nl-HL3xwK7Rnw4xHP1iQLjZjB3c1tJw3RP9XD1nV_kxDA5NQ6Bjy2yRzwR5tPS4-ZFn7I28fgZOpAS8odLe7b7Ip0hQqUUP_2j09xlwynC4OgcEQYVWMef3_BLHRQXn8zwiNf3RmDeYXyK3ntl8hrW4ayEiGKNK9pmAtZGDvrWJvLBKA8vqjXWXOmjUN7OXiGsajuzZMMRmExL6MGNVEf3zwPb7N85Qqe9hVEs8qSdmNn-ToKzt4AnVO0zdRECaxgYwXOCmWdM9uTTfkXe6fqiI9QjfH_iXvERXaqAs3xavl-P_orAU2s_2wDsVm40]--></g></svg>