<svg xmlns="http://www.w3.org/2000/svg" xmlns:xlink="http://www.w3.org/1999/xlink" contentStyleType="text/css" height="914px" preserveAspectRatio="none" style="width:304px;height:914px;background:#FFFFFF;" version="1.1" viewBox="0 0 304 914" width="304px" zoomAndPan="magnify"><title>UML Class Diagram</title><defs/><g><text fill="#000000" font-family="sans-serif" font-size="14" font-weight="bold" lengthAdjust="spacing" textLength="151.9834" x="69.2427" y="22.9951">UML Class Diagram</text><!--class User--><g id="elem_User"><rect codeLine="3" fill="#F1F1F1" height="145.7813" id="User" rx="2.5" ry="2.5" style="stroke:#181818;stroke-width:0.5;" width="160.6816" x="71.89" y="44.2969"/><ellipse cx="132.0257" cy="60.2969" fill="#ADD1B2" rx="11" ry="11" style="stroke:#181818;stroke-width:1.0;"/><path d="M134.9945,65.9375 Q134.4164,66.2344 133.7757,66.375 Q133.1351,66.5313 132.432,66.5313 Q129.932,66.5313 128.6039,64.8906 Q127.2914,63.2344 127.2914,60.1094 Q127.2914,56.9844 128.6039,55.3281 Q129.932,53.6719 132.432,53.6719 Q133.1351,53.6719 133.7757,53.8281 Q134.432,53.9844 134.9945,54.2813 L134.9945,57 Q134.3695,56.4219 133.7757,56.1563 Q133.182,55.875 132.557,55.875 Q131.2132,55.875 130.5257,56.9531 Q129.8382,58.0156 129.8382,60.1094 Q129.8382,62.2031 130.5257,63.2813 Q131.2132,64.3438 132.557,64.3438 Q133.182,64.3438 133.7757,64.0781 Q134.3695,63.7969 134.9945,63.2188 L134.9945,65.9375 Z " fill="#000000"/><text fill="#000000" font-family="sans-serif" font-size="14" lengthAdjust="spacing" textLength="31.9102" x="152.5257" y="65.1436">User</text><line style="stroke:#181818;stroke-width:0.5;" x1="72.89" x2="231.5716" y1="76.2969" y2="76.2969"/><rect fill="none" height="6" style="stroke:#C82930;stroke-width:1.0;" width="6" x="79.89" y="86.9453"/><text fill="#000000" font-family="sans-serif" font-size="14" lengthAdjust="spacing" textLength="92.5723" x="91.89" y="93.292">userId : UUID</text><rect fill="none" height="6" style="stroke:#C82930;stroke-width:1.0;" width="6" x="79.89" y="103.2422"/><text fill="#000000" font-family="sans-serif" font-size="14" lengthAdjust="spacing" textLength="94.0078" x="91.89" y="109.5889">email : String</text><rect fill="none" height="6" style="stroke:#C82930;stroke-width:1.0;" width="6" x="79.89" y="119.5391"/><text fill="#000000" font-family="sans-serif" font-size="14" lengthAdjust="spacing" textLength="134.6816" x="91.89" y="125.8857">profilePicture : URL</text><rect fill="none" height="6" style="stroke:#C82930;stroke-width:1.0;" width="6" x="79.89" y="135.8359"/><text fill="#000000" font-family="sans-serif" font-size="14" lengthAdjust="spacing" textLength="126.6494" x="91.89" y="142.1826">isOnline : Boolean</text><line style="stroke:#181818;stroke-width:0.5;" x1="72.89" x2="231.5716" y1="149.4844" y2="149.4844"/><ellipse cx="82.89" cy="163.1328" fill="#84BE84" rx="3" ry="3" style="stroke:#038048;stroke-width:1.0;"/><text fill="#000000" font-family="sans-serif" font-size="14" lengthAdjust="spacing" textLength="105.9502" x="91.89" y="166.4795">sendMessage()</text><ellipse cx="82.89" cy="179.4297" fill="#84BE84" rx="3" ry="3" style="stroke:#038048;stroke-width:1.0;"/><text fill="#000000" font-family="sans-serif" font-size="14" lengthAdjust="spacing" textLength="75.9951" x="91.89" y="182.7764">makeCall()</text></g><!--class Chat--><g id="elem_Chat"><rect codeLine="12" fill="#F1F1F1" height="129.4844" id="Chat" rx="2.5" ry="2.5" style="stroke:#181818;stroke-width:0.5;" width="186.8975" x="58.79" y="267.0869"/><ellipse cx="131.6303" cy="283.0869" fill="#ADD1B2" rx="11" ry="11" style="stroke:#181818;stroke-width:1.0;"/><path d="M134.5991,288.7275 Q134.021,289.0244 133.3803,289.165 Q132.7397,289.3212 132.0366,289.3212 Q129.5366,289.3212 128.2085,287.6806 Q126.896,286.0244 126.896,282.8994 Q126.896,279.7744 128.2085,278.1181 Q129.5366,276.4619 132.0366,276.4619 Q132.7397,276.4619 133.3803,276.6181 Q134.0366,276.7744 134.5991,277.0712 L134.5991,279.79 Q133.9741,279.2119 133.3803,278.9462 Q132.7866,278.665 132.1616,278.665 Q130.8178,278.665 130.1303,279.7431 Q129.4428,280.8056 129.4428,282.8994 Q129.4428,284.9931 130.1303,286.0712 Q130.8178,287.1337 132.1616,287.1337 Q132.7866,287.1337 133.3803,286.8681 Q133.9741,286.5869 134.5991,286.0087 L134.5991,288.7275 Z " fill="#000000"/><text fill="#000000" font-family="sans-serif" font-size="14" lengthAdjust="spacing" textLength="32.7168" x="152.1303" y="287.9336">Chat</text><line style="stroke:#181818;stroke-width:0.5;" x1="59.79" x2="244.6875" y1="299.0869" y2="299.0869"/><rect fill="none" height="6" style="stroke:#C82930;stroke-width:1.0;" width="6" x="66.79" y="309.7353"/><text fill="#000000" font-family="sans-serif" font-size="14" lengthAdjust="spacing" textLength="92.6748" x="78.79" y="316.082">chatId : UUID</text><rect fill="none" height="6" style="stroke:#C82930;stroke-width:1.0;" width="6" x="66.79" y="326.0322"/><text fill="#000000" font-family="sans-serif" font-size="14" lengthAdjust="spacing" textLength="124.4209" x="78.79" y="332.3789">isGroup : Boolean</text><rect fill="none" height="6" style="stroke:#C82930;stroke-width:1.0;" width="6" x="66.79" y="342.3291"/><text fill="#000000" font-family="sans-serif" font-size="14" lengthAdjust="spacing" textLength="160.8975" x="78.79" y="348.6757">createdAt : Timestamp</text><line style="stroke:#181818;stroke-width:0.5;" x1="59.79" x2="244.6875" y1="355.9775" y2="355.9775"/><ellipse cx="69.79" cy="369.6259" fill="#84BE84" rx="3" ry="3" style="stroke:#038048;stroke-width:1.0;"/><text fill="#000000" font-family="sans-serif" font-size="14" lengthAdjust="spacing" textLength="98.6357" x="78.79" y="372.9726">addMessage()</text><ellipse cx="69.79" cy="385.9228" fill="#84BE84" rx="3" ry="3" style="stroke:#038048;stroke-width:1.0;"/><text fill="#000000" font-family="sans-serif" font-size="14" lengthAdjust="spacing" textLength="102.5664" x="78.79" y="389.2695">getMessages()</text></g><!--class Message--><g id="elem_Message"><rect codeLine="20" fill="#F1F1F1" height="194.6719" id="Message" rx="2.5" ry="2.5" style="stroke:#181818;stroke-width:0.5;" width="290.4688" x="7" y="473.5669"/><ellipse cx="117.3047" cy="489.5669" fill="#ADD1B2" rx="11" ry="11" style="stroke:#181818;stroke-width:1.0;"/><path d="M120.2734,495.2075 Q119.6953,495.5044 119.0547,495.645 Q118.4141,495.8013 117.7109,495.8013 Q115.2109,495.8013 113.8828,494.1606 Q112.5703,492.5044 112.5703,489.3794 Q112.5703,486.2544 113.8828,484.5981 Q115.2109,482.9419 117.7109,482.9419 Q118.4141,482.9419 119.0547,483.0981 Q119.7109,483.2544 120.2734,483.5513 L120.2734,486.27 Q119.6484,485.6919 119.0547,485.4263 Q118.4609,485.145 117.8359,485.145 Q116.4922,485.145 115.8047,486.2231 Q115.1172,487.2856 115.1172,489.3794 Q115.1172,491.4731 115.8047,492.5513 Q116.4922,493.6138 117.8359,493.6138 Q118.4609,493.6138 119.0547,493.3481 Q119.6484,493.0669 120.2734,492.4888 L120.2734,495.2075 Z " fill="#000000"/><text fill="#000000" font-family="sans-serif" font-size="14" lengthAdjust="spacing" textLength="61.3594" x="137.8047" y="494.4136">Message</text><line style="stroke:#181818;stroke-width:0.5;" x1="8" x2="296.4688" y1="505.5669" y2="505.5669"/><rect fill="none" height="6" style="stroke:#C82930;stroke-width:1.0;" width="6" x="15" y="516.2153"/><text fill="#000000" font-family="sans-serif" font-size="14" lengthAdjust="spacing" textLength="124.9541" x="27" y="522.562">messageId : UUID</text><rect fill="none" height="6" style="stroke:#C82930;stroke-width:1.0;" width="6" x="15" y="532.5122"/><text fill="#000000" font-family="sans-serif" font-size="14" lengthAdjust="spacing" textLength="92.6748" x="27" y="538.8589">chatId : UUID</text><rect fill="none" height="6" style="stroke:#C82930;stroke-width:1.0;" width="6" x="15" y="548.8091"/><text fill="#000000" font-family="sans-serif" font-size="14" lengthAdjust="spacing" textLength="110.0723" x="27" y="555.1557">senderId : UUID</text><rect fill="none" height="6" style="stroke:#C82930;stroke-width:1.0;" width="6" x="15" y="565.1059"/><text fill="#000000" font-family="sans-serif" font-size="14" lengthAdjust="spacing" textLength="119.2598" x="27" y="571.4526">receiverId : UUID</text><rect fill="none" height="6" style="stroke:#C82930;stroke-width:1.0;" width="6" x="15" y="581.4028"/><text fill="#000000" font-family="sans-serif" font-size="14" lengthAdjust="spacing" textLength="98.1572" x="27" y="587.7495">content : Text</text><rect fill="none" height="6" style="stroke:#C82930;stroke-width:1.0;" width="6" x="15" y="597.6997"/><text fill="#000000" font-family="sans-serif" font-size="14" lengthAdjust="spacing" textLength="167.7129" x="27" y="604.0464">timestamp : Timestamp</text><rect fill="none" height="6" style="stroke:#C82930;stroke-width:1.0;" width="6" x="15" y="613.9966"/><text fill="#000000" font-family="sans-serif" font-size="14" lengthAdjust="spacing" textLength="264.4688" x="27" y="620.3432">status : Enum {sent, delivered, read}</text><line style="stroke:#181818;stroke-width:0.5;" x1="8" x2="296.4688" y1="627.645" y2="627.645"/><ellipse cx="18" cy="641.2934" fill="#84BE84" rx="3" ry="3" style="stroke:#038048;stroke-width:1.0;"/><text fill="#000000" font-family="sans-serif" font-size="14" lengthAdjust="spacing" textLength="44.5908" x="27" y="644.6401">send()</text><ellipse cx="18" cy="657.5903" fill="#84BE84" rx="3" ry="3" style="stroke:#038048;stroke-width:1.0;"/><text fill="#000000" font-family="sans-serif" font-size="14" lengthAdjust="spacing" textLength="99.6816" x="27" y="660.937">markAsRead()</text></g><!--class Media--><g id="elem_Media"><rect codeLine="32" fill="#F1F1F1" height="162.0781" id="Media" rx="2.5" ry="2.5" style="stroke:#181818;stroke-width:0.5;" width="254.3545" x="25.06" y="745.2369"/><ellipse cx="126.9633" cy="761.2369" fill="#ADD1B2" rx="11" ry="11" style="stroke:#181818;stroke-width:1.0;"/><path d="M129.9321,766.8775 Q129.3539,767.1744 128.7133,767.315 Q128.0727,767.4712 127.3696,767.4712 Q124.8696,767.4712 123.5414,765.8306 Q122.2289,764.1744 122.2289,761.0494 Q122.2289,757.9244 123.5414,756.2681 Q124.8696,754.6119 127.3696,754.6119 Q128.0727,754.6119 128.7133,754.7681 Q129.3696,754.9244 129.9321,755.2212 L129.9321,757.94 Q129.3071,757.3619 128.7133,757.0962 Q128.1196,756.815 127.4946,756.815 Q126.1508,756.815 125.4633,757.8931 Q124.7758,758.9556 124.7758,761.0494 Q124.7758,763.1431 125.4633,764.2212 Q126.1508,765.2837 127.4946,765.2837 Q128.1196,765.2837 128.7133,765.0181 Q129.3071,764.7369 129.9321,764.1587 L129.9321,766.8775 Z " fill="#000000"/><text fill="#000000" font-family="sans-serif" font-size="14" lengthAdjust="spacing" textLength="42.0479" x="147.4633" y="766.0836">Media</text><line style="stroke:#181818;stroke-width:0.5;" x1="26.06" x2="278.4145" y1="777.2369" y2="777.2369"/><rect fill="none" height="6" style="stroke:#C82930;stroke-width:1.0;" width="6" x="33.06" y="787.8853"/><text fill="#000000" font-family="sans-serif" font-size="14" lengthAdjust="spacing" textLength="105.6426" x="45.06" y="794.232">mediaId : UUID</text><rect fill="none" height="6" style="stroke:#C82930;stroke-width:1.0;" width="6" x="33.06" y="804.1822"/><text fill="#000000" font-family="sans-serif" font-size="14" lengthAdjust="spacing" textLength="124.9541" x="45.06" y="810.5289">messageId : UUID</text><rect fill="none" height="6" style="stroke:#C82930;stroke-width:1.0;" width="6" x="33.06" y="820.4791"/><text fill="#000000" font-family="sans-serif" font-size="14" lengthAdjust="spacing" textLength="228.3545" x="45.06" y="826.8257">type : Enum {image, video, file}</text><rect fill="none" height="6" style="stroke:#C82930;stroke-width:1.0;" width="6" x="33.06" y="836.7759"/><text fill="#000000" font-family="sans-serif" font-size="14" lengthAdjust="spacing" textLength="59.9102" x="45.06" y="843.1226">url : URL</text><rect fill="none" height="6" style="stroke:#C82930;stroke-width:1.0;" width="6" x="33.06" y="853.0728"/><text fill="#000000" font-family="sans-serif" font-size="14" lengthAdjust="spacing" textLength="91.123" x="45.06" y="859.4195">size : Integer</text><line style="stroke:#181818;stroke-width:0.5;" x1="26.06" x2="278.4145" y1="866.7212" y2="866.7212"/><ellipse cx="36.06" cy="880.3697" fill="#84BE84" rx="3" ry="3" style="stroke:#038048;stroke-width:1.0;"/><text fill="#000000" font-family="sans-serif" font-size="14" lengthAdjust="spacing" textLength="100.6523" x="45.06" y="883.7164">uploadMedia()</text><ellipse cx="36.06" cy="896.6666" fill="#84BE84" rx="3" ry="3" style="stroke:#038048;stroke-width:1.0;"/><text fill="#000000" font-family="sans-serif" font-size="14" lengthAdjust="spacing" textLength="97.0771" x="45.06" y="900.0132">deleteMedia()</text></g><!--link User to Chat--><g id="link_User_Chat"><path codeLine="42" d="M152.23,190.4769 C152.23,215.2769 152.23,236.8369 152.23,260.9269 " fill="none" id="User-to-Chat" style="stroke:#181818;stroke-width:1.0;"/><polygon fill="#181818" points="152.23,266.9269,156.23,257.9269,152.23,261.9269,148.23,257.9269,152.23,266.9269" style="stroke:#181818;stroke-width:1.0;"/><text fill="#000000" font-family="sans-serif" font-size="13" lengthAdjust="spacing" textLength="93.1011" x="153.23" y="233.1538">participates in</text><text fill="#000000" font-family="sans-serif" font-size="13" lengthAdjust="spacing" textLength="8.271" x="143.8616" y="210.2503">1</text><text fill="#000000" font-family="sans-serif" font-size="13" lengthAdjust="spacing" textLength="23.0356" x="127.9732" y="256.082">0..*</text></g><!--link Chat to Message--><g id="link_Chat_Message"><path codeLine="43" d="M152.23,396.9769 C152.23,420.4269 152.23,441.5069 152.23,467.1669 " fill="none" id="Chat-to-Message" style="stroke:#181818;stroke-width:1.0;"/><polygon fill="#181818" points="152.23,473.1669,156.23,464.1669,152.23,468.1669,148.23,464.1669,152.23,473.1669" style="stroke:#181818;stroke-width:1.0;"/><text fill="#000000" font-family="sans-serif" font-size="13" lengthAdjust="spacing" textLength="55.0278" x="153.23" y="439.6338">contains</text><text fill="#000000" font-family="sans-serif" font-size="13" lengthAdjust="spacing" textLength="8.271" x="143.8306" y="416.5424">1</text><text fill="#000000" font-family="sans-serif" font-size="13" lengthAdjust="spacing" textLength="23.0356" x="128.3865" y="462.5104">0..*</text></g><!--link Message to Media--><g id="link_Message_Media"><path codeLine="44" d="M152.23,668.4169 C152.23,693.7269 152.23,714.7469 152.23,739.1069 " fill="none" id="Message-to-Media" style="stroke:#181818;stroke-width:1.0;"/><polygon fill="#181818" points="152.23,745.1069,156.23,736.1069,152.23,740.1069,148.23,736.1069,152.23,745.1069" style="stroke:#181818;stroke-width:1.0;"/><text fill="#000000" font-family="sans-serif" font-size="13" lengthAdjust="spacing" textLength="53.8726" x="153.23" y="711.3038">includes</text><text fill="#000000" font-family="sans-serif" font-size="13" lengthAdjust="spacing" textLength="8.271" x="143.9459" y="688.2006">1</text><text fill="#000000" font-family="sans-serif" font-size="13" lengthAdjust="spacing" textLength="24.8066" x="127.1965" y="734.2826">0..1</text></g><!--SRC=[RPBFJiCm3CRlVGgh9_vi4xlkW0GRGfCsWGPx0AinnLgQLeax0TFU7JThfxLmItvs_7ss8ooMOBjUmTnY2B1Wp3qMIPB5wpQGXqC2C8PQZqi3CzXkbuj8g42s2jx4iyiZgdpvmPPUEPFQKvEyMSK0XnTdsJNeiImjeLDy2u6SMLC8cDFLTIG5xcYErkhrsBcOVwAqBZ8zzbrmUFPbNVKAQvud538FeloT2mg2HHK5q0mKSv8MX4lHbhMwnUdMb_vhfkbdE2PF6V5-IBFI2RbeZxua8kby3ZnhMK6fW-8dLnTmK1KPWI7Rb2KpKWaqn_D0pvFqkuUmqL2_BSDuRahFVLl_zYdV5Pt5kT3u2FPig1n1i-tZwNzuUx7lm3_DawKscPEFVkhAbcYYVkjGEo2XZgZ5-DtIQGhZyJsaTvF9JNfQ_WmgzC8PLxhL0EoIY0UftSfcSRh8BYGTkioSfkqKPbeeixMXy0i0]--></g></svg>