<?xml version="1.0" encoding="us-ascii" standalone="no"?><svg xmlns="http://www.w3.org/2000/svg" xmlns:xlink="http://www.w3.org/1999/xlink" contentStyleType="text/css" height="350px" preserveAspectRatio="none" style="width:1456px;height:350px;background:#FFFFFF;" version="1.1" viewBox="0 0 1456 350" width="1456px" zoomAndPan="magnify"><defs/><g><!--cluster Client Applications--><g id="cluster_Client Applications"><rect fill="none" height="211" rx="2.5" ry="2.5" style="stroke:#181818;stroke-width:1.0;" width="275" x="633" y="7"/><text fill="#000000" font-family="sans-serif" font-size="14" font-weight="bold" lengthAdjust="spacing" textLength="131" x="705" y="24.1074">Client Applications</text></g><!--cluster Backend Services--><g id="cluster_Backend Services"><rect fill="none" height="102" rx="2.5" ry="2.5" style="stroke:#181818;stroke-width:1.0;" width="729" x="373" y="242"/><text fill="#000000" font-family="sans-serif" font-size="14" font-weight="bold" lengthAdjust="spacing" textLength="127" x="674" y="259.1074">Backend Services</text></g><!--cluster Databases--><g id="cluster_Databases"><rect fill="none" height="102" rx="2.5" ry="2.5" style="stroke:#181818;stroke-width:1.0;" width="342" x="7" y="242"/><text fill="#000000" font-family="sans-serif" font-size="14" font-weight="bold" lengthAdjust="spacing" textLength="73" x="141.5" y="259.1074">Databases</text></g><!--cluster Third-party Services--><g id="cluster_Third-party Services"><rect fill="none" height="102" rx="2.5" ry="2.5" style="stroke:#181818;stroke-width:1.0;" width="324" x="1126" y="242"/><text fill="#000000" font-family="sans-serif" font-size="14" font-weight="bold" lengthAdjust="spacing" textLength="142" x="1217" y="259.1074">Third-party Services</text></g><!--entity Mobile App--><g id="elem_Mobile App"><rect fill="#F1F1F1" height="48.6211" rx="2.5" ry="2.5" style="stroke:#181818;stroke-width:0.5;" width="110" x="782" y="44"/><rect fill="#F1F1F1" height="10" style="stroke:#181818;stroke-width:0.5;" width="15" x="872" y="49"/><rect fill="#F1F1F1" height="2" style="stroke:#181818;stroke-width:0.5;" width="4" x="870" y="51"/><rect fill="#F1F1F1" height="2" style="stroke:#181818;stroke-width:0.5;" width="4" x="870" y="55"/><text fill="#000000" font-family="sans-serif" font-size="14" lengthAdjust="spacing" textLength="70" x="797" y="79.1074">Mobile App</text></g><!--entity API Gateway--><g id="elem_API Gateway"><rect fill="#F1F1F1" height="48.6211" rx="2.5" ry="2.5" style="stroke:#181818;stroke-width:0.5;" width="120" x="710" y="153"/><rect fill="#F1F1F1" height="10" style="stroke:#181818;stroke-width:0.5;" width="15" x="810" y="158"/><rect fill="#F1F1F1" height="2" style="stroke:#181818;stroke-width:0.5;" width="4" x="808" y="160"/><rect fill="#F1F1F1" height="2" style="stroke:#181818;stroke-width:0.5;" width="4" x="808" y="164"/><text fill="#000000" font-family="sans-serif" font-size="14" lengthAdjust="spacing" textLength="80" x="725" y="188.1074">API Gateway</text></g><!--entity Web App--><g id="elem_Web App"><rect fill="#F1F1F1" height="48.6211" rx="2.5" ry="2.5" style="stroke:#181818;stroke-width:0.5;" width="98" x="649" y="44"/><rect fill="#F1F1F1" height="10" style="stroke:#181818;stroke-width:0.5;" width="15" x="727" y="49"/><rect fill="#F1F1F1" height="2" style="stroke:#181818;stroke-width:0.5;" width="4" x="725" y="51"/><rect fill="#F1F1F1" height="2" style="stroke:#181818;stroke-width:0.5;" width="4" x="725" y="55"/><text fill="#000000" font-family="sans-serif" font-size="14" lengthAdjust="spacing" textLength="58" x="664" y="79.1074">Web App</text></g><!--entity Authentication Service--><g id="elem_Authentication Service"><rect fill="#F1F1F1" height="48.6211" rx="2.5" ry="2.5" style="stroke:#181818;stroke-width:0.5;" width="181" x="584.5" y="279"/><rect fill="#F1F1F1" height="10" style="stroke:#181818;stroke-width:0.5;" width="15" x="745.5" y="284"/><rect fill="#F1F1F1" height="2" style="stroke:#181818;stroke-width:0.5;" width="4" x="743.5" y="286"/><rect fill="#F1F1F1" height="2" style="stroke:#181818;stroke-width:0.5;" width="4" x="743.5" y="290"/><text fill="#000000" font-family="sans-serif" font-size="14" lengthAdjust="spacing" textLength="141" x="599.5" y="314.1074">Authentication Service</text></g><!--entity Chat Service--><g id="elem_Chat Service"><rect fill="#F1F1F1" height="48.6211" rx="2.5" ry="2.5" style="stroke:#181818;stroke-width:0.5;" width="121" x="964.5" y="279"/><rect fill="#F1F1F1" height="10" style="stroke:#181818;stroke-width:0.5;" width="15" x="1065.5" y="284"/><rect fill="#F1F1F1" height="2" style="stroke:#181818;stroke-width:0.5;" width="4" x="1063.5" y="286"/><rect fill="#F1F1F1" height="2" style="stroke:#181818;stroke-width:0.5;" width="4" x="1063.5" y="290"/><text fill="#000000" font-family="sans-serif" font-size="14" lengthAdjust="spacing" textLength="81" x="979.5" y="314.1074">Chat Service</text></g><!--entity Notification Service--><g id="elem_Notification Service"><rect fill="#F1F1F1" height="48.6211" rx="2.5" ry="2.5" style="stroke:#181818;stroke-width:0.5;" width="160" x="389" y="279"/><rect fill="#F1F1F1" height="10" style="stroke:#181818;stroke-width:0.5;" width="15" x="529" y="284"/><rect fill="#F1F1F1" height="2" style="stroke:#181818;stroke-width:0.5;" width="4" x="527" y="286"/><rect fill="#F1F1F1" height="2" style="stroke:#181818;stroke-width:0.5;" width="4" x="527" y="290"/><text fill="#000000" font-family="sans-serif" font-size="14" lengthAdjust="spacing" textLength="120" x="404" y="314.1074">Notification Service</text></g><!--entity Media Service--><g id="elem_Media Service"><rect fill="#F1F1F1" height="48.6211" rx="2.5" ry="2.5" style="stroke:#181818;stroke-width:0.5;" width="129" x="800.5" y="279"/><rect fill="#F1F1F1" height="10" style="stroke:#181818;stroke-width:0.5;" width="15" x="909.5" y="284"/><rect fill="#F1F1F1" height="2" style="stroke:#181818;stroke-width:0.5;" width="4" x="907.5" y="286"/><rect fill="#F1F1F1" height="2" style="stroke:#181818;stroke-width:0.5;" width="4" x="907.5" y="290"/><text fill="#000000" font-family="sans-serif" font-size="14" lengthAdjust="spacing" textLength="89" x="815.5" y="314.1074">Media Service</text></g><!--entity PostgreSQL--><g id="elem_PostgreSQL"><rect fill="#F1F1F1" height="48.6211" rx="2.5" ry="2.5" style="stroke:#181818;stroke-width:0.5;" width="117" x="215.5" y="279"/><rect fill="#F1F1F1" height="10" style="stroke:#181818;stroke-width:0.5;" width="15" x="312.5" y="284"/><rect fill="#F1F1F1" height="2" style="stroke:#181818;stroke-width:0.5;" width="4" x="310.5" y="286"/><rect fill="#F1F1F1" height="2" style="stroke:#181818;stroke-width:0.5;" width="4" x="310.5" y="290"/><text fill="#000000" font-family="sans-serif" font-size="14" lengthAdjust="spacing" textLength="77" x="230.5" y="314.1074">PostgreSQL</text></g><!--entity Firebase Firestore--><g id="elem_Firebase Firestore"><rect fill="#F1F1F1" height="48.6211" rx="2.5" ry="2.5" style="stroke:#181818;stroke-width:0.5;" width="157" x="23.5" y="279"/><rect fill="#F1F1F1" height="10" style="stroke:#181818;stroke-width:0.5;" width="15" x="160.5" y="284"/><rect fill="#F1F1F1" height="2" style="stroke:#181818;stroke-width:0.5;" width="4" x="158.5" y="286"/><rect fill="#F1F1F1" height="2" style="stroke:#181818;stroke-width:0.5;" width="4" x="158.5" y="290"/><text fill="#000000" font-family="sans-serif" font-size="14" lengthAdjust="spacing" textLength="117" x="38.5" y="314.1074">Firebase Firestore</text></g><!--entity Cloud Storage--><g id="elem_Cloud Storage"><rect fill="#F1F1F1" height="48.6211" rx="2.5" ry="2.5" style="stroke:#181818;stroke-width:0.5;" width="131" x="1302.5" y="279"/><rect fill="#F1F1F1" height="10" style="stroke:#181818;stroke-width:0.5;" width="15" x="1413.5" y="284"/><rect fill="#F1F1F1" height="2" style="stroke:#181818;stroke-width:0.5;" width="4" x="1411.5" y="286"/><rect fill="#F1F1F1" height="2" style="stroke:#181818;stroke-width:0.5;" width="4" x="1411.5" y="290"/><text fill="#000000" font-family="sans-serif" font-size="14" lengthAdjust="spacing" textLength="91" x="1317.5" y="314.1074">Cloud Storage</text></g><!--entity Email Service--><g id="elem_Email Service"><rect fill="#F1F1F1" height="48.6211" rx="2.5" ry="2.5" style="stroke:#181818;stroke-width:0.5;" width="125" x="1142.5" y="279"/><rect fill="#F1F1F1" height="10" style="stroke:#181818;stroke-width:0.5;" width="15" x="1247.5" y="284"/><rect fill="#F1F1F1" height="2" style="stroke:#181818;stroke-width:0.5;" width="4" x="1245.5" y="286"/><rect fill="#F1F1F1" height="2" style="stroke:#181818;stroke-width:0.5;" width="4" x="1245.5" y="290"/><text fill="#000000" font-family="sans-serif" font-size="14" lengthAdjust="spacing" textLength="85" x="1157.5" y="314.1074">Email Service</text></g><!--link Mobile App to API Gateway--><g id="link_Mobile App_API Gateway"><path d="M822.13,93.25 C811.03,110.98 799.1031,130.0139 788.0131,147.7339 " fill="none" id="Mobile App-to-API Gateway" style="stroke:#181818;stroke-width:1.0;"/><polygon fill="#181818" points="784.83,152.82,792.9953,147.313,787.4826,148.5816,786.2139,143.0689,784.83,152.82" style="stroke:#181818;stroke-width:1.0;"/></g><!--link Web App to API Gateway--><g id="link_Web App_API Gateway"><path d="M713.98,93.25 C725.91,110.98 738.7891,130.1229 750.7191,147.8429 " fill="none" id="Web App-to-API Gateway" style="stroke:#181818;stroke-width:1.0;"/><polygon fill="#181818" points="754.07,152.82,752.3618,143.1204,751.2776,148.6724,745.7256,147.5882,754.07,152.82" style="stroke:#181818;stroke-width:1.0;"/></g><!--link API Gateway to Authentication Service--><g id="link_API Gateway_Authentication Service"><path d="M751.91,202.12 C735,224.18 713.5593,252.1774 696.6793,274.2074 " fill="none" id="API Gateway-to-Authentication Service" style="stroke:#181818;stroke-width:1.0;"/><polygon fill="#181818" points="693.03,278.97,701.679,274.2589,696.0711,275.0011,695.3288,269.3932,693.03,278.97" style="stroke:#181818;stroke-width:1.0;"/></g><!--link API Gateway to Chat Service--><g id="link_API Gateway_Chat Service"><path d="M830.32,190.79 C865.78,199.6 910.65,213.56 947,234 C968.05,245.84 984.1903,259.8045 998.8403,274.4745 " fill="none" id="API Gateway-to-Chat Service" style="stroke:#181818;stroke-width:1.0;"/><polygon fill="#181818" points="1003.08,278.72,999.5507,269.5252,999.5469,275.1821,993.89,275.1782,1003.08,278.72" style="stroke:#181818;stroke-width:1.0;"/></g><!--link API Gateway to Notification Service--><g id="link_API Gateway_Notification Service"><path d="M709.92,189.27 C668.48,198.03 612.82,212.52 567,234 C541.82,245.81 520.8743,260.3212 502.1243,275.0012 " fill="none" id="API Gateway-to-Notification Service" style="stroke:#181818;stroke-width:1.0;"/><polygon fill="#181818" points="497.4,278.7,506.9523,276.3013,501.3369,275.6177,502.0206,270.0023,497.4,278.7" style="stroke:#181818;stroke-width:1.0;"/></g><!--link API Gateway to Media Service--><g id="link_API Gateway_Media Service"><path d="M788.09,202.12 C805,224.18 826.4407,252.1774 843.3207,274.2074 " fill="none" id="API Gateway-to-Media Service" style="stroke:#181818;stroke-width:1.0;"/><polygon fill="#181818" points="846.97,278.97,844.6712,269.3932,843.9289,275.0011,838.321,274.2589,846.97,278.97" style="stroke:#181818;stroke-width:1.0;"/></g><!--reverse link PostgreSQL to Chat Service--><g id="link_PostgreSQL_Chat Service"><path d="M302.6347,274.9606 C324.5347,255.2006 354.38,234.08 390.5,230 C420.26,226.64 899.74,226.64 929.5,230 C937.43,230.89 939.91,230.34 947,234 C968.6,245.14 988.96,263.66 1003.46,278.78 " fill="none" id="PostgreSQL-backto-Chat Service" style="stroke:#181818;stroke-width:1.0;"/><polygon fill="#181818" points="298.18,278.98,307.5417,275.9207,301.8923,275.6305,302.1825,269.9811,298.18,278.98" style="stroke:#181818;stroke-width:1.0;"/></g><!--reverse link Firebase Firestore to Chat Service--><g id="link_Firebase Firestore_Chat Service"><path d="M129.8118,274.8619 C151.0718,255.0719 180.04,234 215.5,230 C254.92,225.55 890.08,225.55 929.5,230 C937.43,230.89 939.91,230.34 947,234 C968.6,245.14 988.96,263.66 1003.46,278.78 " fill="none" id="Firebase Firestore-backto-Chat Service" style="stroke:#181818;stroke-width:1.0;"/><polygon fill="#181818" points="125.42,278.95,134.733,275.7457,129.0798,275.5433,129.2822,269.89,125.42,278.95" style="stroke:#181818;stroke-width:1.0;"/></g><!--reverse link Cloud Storage to Media Service--><g id="link_Cloud Storage_Media Service"><path d="M1343.8032,274.3878 C1325.3832,254.4978 1300.15,233.68 1267.5,230 C1234.05,226.23 997.95,226.23 964.5,230 C956.57,230.89 954.14,230.43 947,234 C924.64,245.19 903.22,263.71 887.88,278.81 " fill="none" id="Cloud Storage-backto-Media Service" style="stroke:#181818;stroke-width:1.0;"/><polygon fill="#181818" points="1347.88,278.79,1344.6995,269.4688,1344.4826,275.1215,1338.8299,274.9046,1347.88,278.79" style="stroke:#181818;stroke-width:1.0;"/></g><!--reverse link Email Service to Authentication Service--><g id="link_Email Service_Authentication Service"><path d="M1169.9761,275.0555 C1150.3261,260.0955 1128.32,245.41 1102,234 C1094.68,230.83 1092.43,230.89 1084.5,230 C1053.14,226.46 831.86,226.46 800.5,230 C762.61,234.27 725.76,259.08 701.9,278.71 " fill="none" id="Email Service-backto-Authentication Service" style="stroke:#181818;stroke-width:1.0;"/><polygon fill="#181818" points="1174.75,278.69,1170.0121,270.0556,1170.7717,275.6612,1165.1661,276.4209,1174.75,278.69" style="stroke:#181818;stroke-width:1.0;"/></g><!--SRC=[ZP3T2e9048NlVOgXUzyWWh8VWeoYe8lmOjH9XpPNrh6GwDrRmtunwcxP-UQSCyTG99WbYg3ZAQPCe9_dYYCKrbdHWRC3iFLro9Qmam1SjmVR_c8A4nGwOHNKm8R2RzEBuvYdnm2ZFMKnhCWSEQAxmUj6er5AQjCqGUvyq0vxASeFPAw5T_-f-HGpFfdt0uOe66BnIBxGXII6LijP05st9SgO3TKBK3yAqORQm7UJTSecTdCqKdqsvIbTslgi3YQDqaTU2uqEoEhnSuE-zNcv0W00]--></g></svg>