<?xml version="1.0" encoding="us-ascii" standalone="no"?><svg xmlns="http://www.w3.org/2000/svg" xmlns:xlink="http://www.w3.org/1999/xlink" contentStyleType="text/css" height="405px" preserveAspectRatio="none" style="width:521px;height:405px;background:#FFFFFF;" version="1.1" viewBox="0 0 521 405" width="521px" zoomAndPan="magnify"><defs/><g><line style="stroke:#181818;stroke-width:0.5;stroke-dasharray:5.0,5.0;" x1="22" x2="22" y1="83.6211" y2="322.6582"/><line style="stroke:#181818;stroke-width:0.5;stroke-dasharray:5.0,5.0;" x1="118" x2="118" y1="83.6211" y2="322.6582"/><line style="stroke:#181818;stroke-width:0.5;stroke-dasharray:5.0,5.0;" x1="234" x2="234" y1="83.6211" y2="322.6582"/><line style="stroke:#181818;stroke-width:0.5;stroke-dasharray:5.0,5.0;" x1="354" x2="354" y1="83.6211" y2="322.6582"/><line style="stroke:#181818;stroke-width:0.5;stroke-dasharray:5.0,5.0;" x1="474.5" x2="474.5" y1="83.6211" y2="322.6582"/><text fill="#000000" font-family="sans-serif" font-size="14" lengthAdjust="spacing" textLength="29" x="5" y="80.1074">User</text><ellipse cx="22.5" cy="13.5" fill="#E2E2F0" rx="8" ry="8" style="stroke:#181818;stroke-width:0.5;"/><path d="M22.5,21.5 L22.5,48.5 M9.5,29.5 L35.5,29.5 M22.5,48.5 L9.5,63.5 M22.5,48.5 L35.5,63.5 " fill="none" style="stroke:#181818;stroke-width:0.5;"/><text fill="#000000" font-family="sans-serif" font-size="14" lengthAdjust="spacing" textLength="29" x="5" y="336.7656">User</text><ellipse cx="22.5" cy="348.7793" fill="#E2E2F0" rx="8" ry="8" style="stroke:#181818;stroke-width:0.5;"/><path d="M22.5,356.7793 L22.5,383.7793 M9.5,364.7793 L35.5,364.7793 M22.5,383.7793 L9.5,398.7793 M22.5,383.7793 L35.5,398.7793 " fill="none" style="stroke:#181818;stroke-width:0.5;"/><rect fill="#E2E2F0" height="32.6211" rx="2.5" ry="2.5" style="stroke:#181818;stroke-width:0.5;" width="117" x="60" y="50"/><text fill="#000000" font-family="sans-serif" font-size="14" lengthAdjust="spacing" textLength="103" x="67" y="72.1074">Mobile/Web App</text><rect fill="#E2E2F0" height="32.6211" rx="2.5" ry="2.5" style="stroke:#181818;stroke-width:0.5;" width="117" x="60" y="321.6582"/><text fill="#000000" font-family="sans-serif" font-size="14" lengthAdjust="spacing" textLength="103" x="67" y="343.7656">Mobile/Web App</text><rect fill="#E2E2F0" height="32.6211" rx="2.5" ry="2.5" style="stroke:#181818;stroke-width:0.5;" width="94" x="187" y="50"/><text fill="#000000" font-family="sans-serif" font-size="14" lengthAdjust="spacing" textLength="80" x="194" y="72.1074">API Gateway</text><rect fill="#E2E2F0" height="32.6211" rx="2.5" ry="2.5" style="stroke:#181818;stroke-width:0.5;" width="94" x="187" y="321.6582"/><text fill="#000000" font-family="sans-serif" font-size="14" lengthAdjust="spacing" textLength="80" x="194" y="343.7656">API Gateway</text><rect fill="#E2E2F0" height="32.6211" rx="2.5" ry="2.5" style="stroke:#181818;stroke-width:0.5;" width="127" x="291" y="50"/><text fill="#000000" font-family="sans-serif" font-size="14" lengthAdjust="spacing" textLength="113" x="298" y="72.1074">Backend Services</text><rect fill="#E2E2F0" height="32.6211" rx="2.5" ry="2.5" style="stroke:#181818;stroke-width:0.5;" width="127" x="291" y="321.6582"/><text fill="#000000" font-family="sans-serif" font-size="14" lengthAdjust="spacing" textLength="113" x="298" y="343.7656">Backend Services</text><rect fill="#E2E2F0" height="32.6211" rx="2.5" ry="2.5" style="stroke:#181818;stroke-width:0.5;" width="82" x="433.5" y="50"/><text fill="#000000" font-family="sans-serif" font-size="14" lengthAdjust="spacing" textLength="68" x="440.5" y="72.1074">Databases</text><rect fill="#E2E2F0" height="32.6211" rx="2.5" ry="2.5" style="stroke:#181818;stroke-width:0.5;" width="82" x="433.5" y="321.6582"/><text fill="#000000" font-family="sans-serif" font-size="14" lengthAdjust="spacing" textLength="68" x="440.5" y="343.7656">Databases</text><polygon fill="#181818" points="106.5,112.9121,116.5,116.9121,106.5,120.9121,110.5,116.9121" style="stroke:#181818;stroke-width:1.0;"/><line style="stroke:#181818;stroke-width:1.0;" x1="22.5" x2="112.5" y1="116.9121" y2="116.9121"/><text fill="#000000" font-family="sans-serif" font-size="13" lengthAdjust="spacing" textLength="68" x="29.5" y="111.6494">User Action</text><polygon fill="#181818" points="222,144.2031,232,148.2031,222,152.2031,226,148.2031" style="stroke:#181818;stroke-width:1.0;"/><line style="stroke:#181818;stroke-width:1.0;" x1="118.5" x2="228" y1="148.2031" y2="148.2031"/><text fill="#000000" font-family="sans-serif" font-size="13" lengthAdjust="spacing" textLength="77" x="125.5" y="142.9404">Send request</text><polygon fill="#181818" points="342.5,175.4941,352.5,179.4941,342.5,183.4941,346.5,179.4941" style="stroke:#181818;stroke-width:1.0;"/><line style="stroke:#181818;stroke-width:1.0;" x1="234" x2="348.5" y1="179.4941" y2="179.4941"/><text fill="#000000" font-family="sans-serif" font-size="13" lengthAdjust="spacing" textLength="93" x="241" y="174.2314">Forward request</text><polygon fill="#181818" points="462.5,206.7852,472.5,210.7852,462.5,214.7852,466.5,210.7852" style="stroke:#181818;stroke-width:1.0;"/><line style="stroke:#181818;stroke-width:1.0;" x1="354.5" x2="468.5" y1="210.7852" y2="210.7852"/><text fill="#000000" font-family="sans-serif" font-size="13" lengthAdjust="spacing" textLength="96" x="361.5" y="205.5225">Query/Save data</text><polygon fill="#181818" points="245,238.0762,235,242.0762,245,246.0762,241,242.0762" style="stroke:#181818;stroke-width:1.0;"/><line style="stroke:#181818;stroke-width:1.0;stroke-dasharray:2.0,2.0;" x1="239" x2="353.5" y1="242.0762" y2="242.0762"/><text fill="#000000" font-family="sans-serif" font-size="13" lengthAdjust="spacing" textLength="58" x="251" y="236.8135">Response</text><polygon fill="#181818" points="129.5,269.3672,119.5,273.3672,129.5,277.3672,125.5,273.3672" style="stroke:#181818;stroke-width:1.0;"/><line style="stroke:#181818;stroke-width:1.0;stroke-dasharray:2.0,2.0;" x1="123.5" x2="233" y1="273.3672" y2="273.3672"/><text fill="#000000" font-family="sans-serif" font-size="13" lengthAdjust="spacing" textLength="58" x="135.5" y="268.1045">Response</text><polygon fill="#181818" points="33.5,300.6582,23.5,304.6582,33.5,308.6582,29.5,304.6582" style="stroke:#181818;stroke-width:1.0;"/><line style="stroke:#181818;stroke-width:1.0;stroke-dasharray:2.0,2.0;" x1="27.5" x2="117.5" y1="304.6582" y2="304.6582"/><text fill="#000000" font-family="sans-serif" font-size="13" lengthAdjust="spacing" textLength="72" x="39.5" y="299.3955">Display data</text><!--SRC=[LOun2uCm48Nt_8h3lRXdA2YXnQ5WAwNp6My85PCcKV7VDucAE1syz_7kG-crXRSZomnQhwGoE7Z87hfLFUKVQg4m9WDqyPwPegxWZfvcN5QWhiv0YV9BGmSDsKb9SedQmZCfq6EBRaD4oLXKWiirVkN93mhfbHvO259ULpmCXtLBlv6SPr4d5Di-XvksCzgZtsq28qeEpv7iaZSu4NJX-r7luozoHW-Erk5TvKYZHqYZ6mUXdEbnILD_]--></g></svg>