<?xml version="1.0" encoding="us-ascii" standalone="no"?><svg xmlns="http://www.w3.org/2000/svg" xmlns:xlink="http://www.w3.org/1999/xlink" contentStyleType="text/css" height="302px" preserveAspectRatio="none" style="width:1204px;height:302px;background:#FFFFFF;" version="1.1" viewBox="0 0 1204 302" width="1204px" zoomAndPan="magnify"><defs/><g><!--cluster Kubernetes Cluster--><g id="cluster_Kubernetes Cluster"><path d="M32.3569,57.4245 C63.3328,25.2284 88.797,26.1609 114.5266,63.614 C139.5487,15.7342 169.0706,23.0414 201.5983,55.477 C225.3749,18.2156 254.7621,18.2296 281.5542,52.0868 C304.4589,18.9702 339.2737,21.3648 355.3188,59.2168 C377.9784,26.2093 403.4116,20.0883 430.8322,53.8307 C458.2187,6 489.9839,8.186 517.7225,53.5022 C536.2023,22.0847 571.6265,23.6124 589.1076,54.6438 C612.3915,16.851 653.9772,10.9601 677.1057,54.8112 C697.8017,20.4932 735.3252,9.8386 758.2995,52.4053 C784.9894,21.8825 805.7917,27.125 826.439,59.0035 C851.5116,25.4784 880.0419,23.6023 904.4393,59.7593 C931.4019,16.3231 971.4908,24.8664 995.7821,62.7595 C1012.3816,27.6424 1050.5501,24.1876 1073.3979,55.4539 C1096.6026,24.9151 1131.3701,19.4307 1148.3861,61.8177 C1154.703,56.5479 1160.485,60.5722 1161.1737,67.6475 C1191.6693,86.9565 1197.7704,118.6484 1160.3984,137.2008 C1190.3958,170.9479 1185.8834,195.5746 1141.3861,209.8177 C1143.0771,208.128 1144.2014,208.5685 1145.1282,210.5886 C1125.1867,252.7665 1085.3478,252.0982 1062.0561,214.058 C1042.5115,252.0197 1020.3667,248.9384 994.2201,220.8372 C972.58,263.3003 932.0454,258.8572 907.2765,224.3724 C882.5459,256.439 845.622,258.0787 831.2992,213.989 C808.2505,249.1358 777.7891,249.7653 752.7657,216.2477 C731.7239,261.0452 700.3956,258.8496 671.1865,224.6857 C642.7405,264.9436 613.4036,256.8875 590.3601,219.0913 C569.0946,250.1759 545.2739,258.6411 519.6612,223.7497 C497.9263,259.7551 455.5848,262.2954 433.0401,224.7028 C410.0187,257.1348 380.0598,252.5209 361.4356,219.8653 C333.57,251.2873 304.6839,258.5462 281.0028,215.3545 C258.7267,252.379 223.9269,253.7621 203.0244,213.9602 C174.0235,259.9789 144.1218,264.5062 109.834,219.3647 C80.0776,252.8366 37.5076,251.0282 23.3861,202.8177 C26.6405,200.8589 28.5731,201.335 29.3552,205.3063 C9.8103,195.9868 11.3654,181.8313 25.5715,168.995 C6.6653,161.0828 6.7777,145.1257 20.2066,132.4647 C7.1082,120.0618 9.3004,107.15 24.6743,98.4915 C6,81.9412 7.031,65.8712 30.3861,54.8177 C32.2739,54.421 33.0543,55.8667 32.3569,57.4245 " fill="none" style="stroke:#181818;stroke-width:1.0;"/><text fill="#000000" font-family="sans-serif" font-size="14" font-weight="bold" lengthAdjust="spacing" textLength="138" x="516.8861" y="74.9251">Kubernetes Cluster</text></g><!--cluster Node 1--><g id="cluster_Node 1"><rect fill="none" height="102" rx="2.5" ry="2.5" style="stroke:#181818;stroke-width:1.0;" width="369" x="39.3861" y="91.8177"/><text fill="#000000" font-family="sans-serif" font-size="14" font-weight="bold" lengthAdjust="spacing" textLength="49" x="199.3861" y="108.9251">Node 1</text></g><!--cluster Node 2--><g id="cluster_Node 2"><rect fill="none" height="102" rx="2.5" ry="2.5" style="stroke:#181818;stroke-width:1.0;" width="349" x="432.3861" y="91.8177"/><text fill="#000000" font-family="sans-serif" font-size="14" font-weight="bold" lengthAdjust="spacing" textLength="49" x="582.3861" y="108.9251">Node 2</text></g><!--cluster Node 3--><g id="cluster_Node 3"><rect fill="none" height="102" rx="2.5" ry="2.5" style="stroke:#181818;stroke-width:1.0;" width="327" x="805.3861" y="91.8177"/><text fill="#000000" font-family="sans-serif" font-size="14" font-weight="bold" lengthAdjust="spacing" textLength="49" x="944.3861" y="108.9251">Node 3</text></g><!--entity API Gateway--><g id="elem_API Gateway"><rect fill="#F1F1F1" height="48.6211" rx="2.5" ry="2.5" style="stroke:#181818;stroke-width:0.5;" width="120" x="272.3861" y="128.8177"/><rect fill="#F1F1F1" height="10" style="stroke:#181818;stroke-width:0.5;" width="15" x="372.3861" y="133.8177"/><rect fill="#F1F1F1" height="2" style="stroke:#181818;stroke-width:0.5;" width="4" x="370.3861" y="135.8177"/><rect fill="#F1F1F1" height="2" style="stroke:#181818;stroke-width:0.5;" width="4" x="370.3861" y="139.8177"/><text fill="#000000" font-family="sans-serif" font-size="14" lengthAdjust="spacing" textLength="80" x="287.3861" y="163.9251">API Gateway</text></g><!--entity Authentication Service--><g id="elem_Authentication Service"><rect fill="#F1F1F1" height="48.6211" rx="2.5" ry="2.5" style="stroke:#181818;stroke-width:0.5;" width="181" x="55.8861" y="128.8177"/><rect fill="#F1F1F1" height="10" style="stroke:#181818;stroke-width:0.5;" width="15" x="216.8861" y="133.8177"/><rect fill="#F1F1F1" height="2" style="stroke:#181818;stroke-width:0.5;" width="4" x="214.8861" y="135.8177"/><rect fill="#F1F1F1" height="2" style="stroke:#181818;stroke-width:0.5;" width="4" x="214.8861" y="139.8177"/><text fill="#000000" font-family="sans-serif" font-size="14" lengthAdjust="spacing" textLength="141" x="70.8861" y="163.9251">Authentication Service</text></g><!--entity Chat Service--><g id="elem_Chat Service"><rect fill="#F1F1F1" height="48.6211" rx="2.5" ry="2.5" style="stroke:#181818;stroke-width:0.5;" width="121" x="643.8861" y="128.8177"/><rect fill="#F1F1F1" height="10" style="stroke:#181818;stroke-width:0.5;" width="15" x="744.8861" y="133.8177"/><rect fill="#F1F1F1" height="2" style="stroke:#181818;stroke-width:0.5;" width="4" x="742.8861" y="135.8177"/><rect fill="#F1F1F1" height="2" style="stroke:#181818;stroke-width:0.5;" width="4" x="742.8861" y="139.8177"/><text fill="#000000" font-family="sans-serif" font-size="14" lengthAdjust="spacing" textLength="81" x="658.8861" y="163.9251">Chat Service</text></g><!--entity Notification Service--><g id="elem_Notification Service"><rect fill="#F1F1F1" height="48.6211" rx="2.5" ry="2.5" style="stroke:#181818;stroke-width:0.5;" width="160" x="448.3861" y="128.8177"/><rect fill="#F1F1F1" height="10" style="stroke:#181818;stroke-width:0.5;" width="15" x="588.3861" y="133.8177"/><rect fill="#F1F1F1" height="2" style="stroke:#181818;stroke-width:0.5;" width="4" x="586.3861" y="135.8177"/><rect fill="#F1F1F1" height="2" style="stroke:#181818;stroke-width:0.5;" width="4" x="586.3861" y="139.8177"/><text fill="#000000" font-family="sans-serif" font-size="14" lengthAdjust="spacing" textLength="120" x="463.3861" y="163.9251">Notification Service</text></g><!--entity Media Service--><g id="elem_Media Service"><rect fill="#F1F1F1" height="48.6211" rx="2.5" ry="2.5" style="stroke:#181818;stroke-width:0.5;" width="129" x="986.8861" y="128.8177"/><rect fill="#F1F1F1" height="10" style="stroke:#181818;stroke-width:0.5;" width="15" x="1095.8861" y="133.8177"/><rect fill="#F1F1F1" height="2" style="stroke:#181818;stroke-width:0.5;" width="4" x="1093.8861" y="135.8177"/><rect fill="#F1F1F1" height="2" style="stroke:#181818;stroke-width:0.5;" width="4" x="1093.8861" y="139.8177"/><text fill="#000000" font-family="sans-serif" font-size="14" lengthAdjust="spacing" textLength="89" x="1001.8861" y="163.9251">Media Service</text></g><!--entity Worker Nodes--><g id="elem_Worker Nodes"><rect fill="#F1F1F1" height="48.6211" rx="2.5" ry="2.5" style="stroke:#181818;stroke-width:0.5;" width="130" x="821.3861" y="128.8177"/><rect fill="#F1F1F1" height="10" style="stroke:#181818;stroke-width:0.5;" width="15" x="931.3861" y="133.8177"/><rect fill="#F1F1F1" height="2" style="stroke:#181818;stroke-width:0.5;" width="4" x="929.3861" y="135.8177"/><rect fill="#F1F1F1" height="2" style="stroke:#181818;stroke-width:0.5;" width="4" x="929.3861" y="139.8177"/><text fill="#000000" font-family="sans-serif" font-size="14" lengthAdjust="spacing" textLength="90" x="836.3861" y="163.9251">Worker Nodes</text></g><!--entity DB--><g id="elem_DB"><path d="M283.8861,248.3177 C283.8861,238.3177 332.3861,238.3177 332.3861,238.3177 C332.3861,238.3177 380.8861,238.3177 380.8861,248.3177 L380.8861,275.9388 C380.8861,285.9388 332.3861,285.9388 332.3861,285.9388 C332.3861,285.9388 283.8861,285.9388 283.8861,275.9388 L283.8861,248.3177 " fill="#F1F1F1" style="stroke:#181818;stroke-width:0.5;"/><path d="M283.8861,248.3177 C283.8861,258.3177 332.3861,258.3177 332.3861,258.3177 C332.3861,258.3177 380.8861,258.3177 380.8861,248.3177 " fill="none" style="stroke:#181818;stroke-width:0.5;"/><text fill="#000000" font-family="sans-serif" font-size="14" lengthAdjust="spacing" textLength="77" x="293.8861" y="277.4251">PostgreSQL</text></g><!--entity Firestore--><g id="elem_Firestore"><path d="M665.8861,248.3177 C665.8861,238.3177 704.3861,238.3177 704.3861,238.3177 C704.3861,238.3177 742.8861,238.3177 742.8861,248.3177 L742.8861,275.9388 C742.8861,285.9388 704.3861,285.9388 704.3861,285.9388 C704.3861,285.9388 665.8861,285.9388 665.8861,275.9388 L665.8861,248.3177 " fill="#F1F1F1" style="stroke:#181818;stroke-width:0.5;"/><path d="M665.8861,248.3177 C665.8861,258.3177 704.3861,258.3177 704.3861,258.3177 C704.3861,258.3177 742.8861,258.3177 742.8861,248.3177 " fill="none" style="stroke:#181818;stroke-width:0.5;"/><text fill="#000000" font-family="sans-serif" font-size="14" lengthAdjust="spacing" textLength="57" x="675.8861" y="277.4251">Firestore</text></g><!--entity GCS--><g id="elem_GCS"><path d="M974.3368,247.0648 C977.972,241.3787 981.8682,241.7695 985.9093,246.6189 C987.6711,240.4683 991.8169,239.0235 996.4043,243.9394 C999.8046,238.0954 1003.794,238.6883 1007.7698,243.3148 C1010.9982,236.1304 1015.3678,237.4054 1019.9789,241.865 C1023.5826,236.6132 1026.9024,236.9372 1030.5283,241.8419 C1033.7776,236.1625 1037.7765,234.9255 1042.3469,240.4481 C1044.912,234.4955 1048.382,232.964 1053.4917,237.8257 C1058.4031,233.479 1061.9335,234.6245 1063.7069,240.856 C1066.5507,235.5637 1071.9681,235.3357 1075.1782,240.4523 C1079.6126,235.8797 1083.45,237.449 1085.82,242.6908 C1090.3569,237.3718 1094.0286,238.8208 1096.8389,244.4314 C1099.3499,239.597 1103.5533,239.7819 1106.7654,243.6299 C1110.9177,238.6378 1116.5538,239.7266 1118.631,245.8459 C1122.5675,240.3098 1125.9373,241.8972 1129.3412,246.4134 C1139.917,245.5848 1144.6256,253.11 1139.1185,262.2259 C1144.338,272.8869 1140.5129,278.0544 1129.4697,279.7728 C1126.564,284.1588 1121.9151,284.5214 1118.9094,279.89 C1116.0732,284.2784 1112.3612,285.2355 1108.7341,280.8022 C1105.7639,287.8709 1101.2084,288.6544 1096.1229,282.8791 C1092.4262,287.6819 1087.964,287.2608 1084.8556,282.2066 C1083.2068,288.1013 1078.2782,288.5389 1074.2674,284.8036 C1071.6097,290.1621 1068.2749,290.4832 1064.5213,285.8753 C1061.0016,291.5339 1055.8086,293.4209 1051.5176,286.6845 C1047.6818,291.7151 1043.4346,290.2227 1040.9077,285.2906 C1037.2636,289.3992 1031.8187,289.2857 1030.1542,283.202 C1027.6509,288.5779 1022.8133,289.5009 1019.3737,284.1423 C1014.9382,288.338 1011.5933,287.7131 1008.8079,282.3234 C1003.6038,288.4387 999.7999,287.1907 996.5342,280.4699 C993.287,285.3331 989.271,285.3349 985.884,280.6254 C981.536,286.3574 976.4099,285.8813 973.9502,278.8586 C964.8758,275.2261 966.121,268.4744 972.2855,263.2198 C965.3972,257.3444 965.15,250.899 974.3368,247.0648 " fill="#F1F1F1" style="stroke:#181818;stroke-width:0.5;"/><text fill="#000000" font-family="sans-serif" font-size="14" lengthAdjust="spacing" textLength="141" x="980.8861" y="267.9251">Google Cloud Storage</text></g><!--link API Gateway to DB--><g id="link_API Gateway_DB"><path d="M332.3861,178.0677 C332.3861,195.9177 332.3861,214.2577 332.3861,232.0077 " fill="none" id="API Gateway-to-DB" style="stroke:#181818;stroke-width:1.0;"/><polygon fill="#181818" points="332.3861,238.0077,336.3861,229.0077,332.3861,233.0077,328.3861,229.0077,332.3861,238.0077" style="stroke:#181818;stroke-width:1.0;"/></g><!--link Chat Service to Firestore--><g id="link_Chat Service_Firestore"><path d="M704.3861,178.0677 C704.3861,195.9177 704.3861,214.2577 704.3861,232.0077 " fill="none" id="Chat Service-to-Firestore" style="stroke:#181818;stroke-width:1.0;"/><polygon fill="#181818" points="704.3861,238.0077,708.3861,229.0077,704.3861,233.0077,700.3861,229.0077,704.3861,238.0077" style="stroke:#181818;stroke-width:1.0;"/></g><!--link Media Service to GCS--><g id="link_Media Service_GCS"><path d="M1051.3861,178.0677 C1051.3861,195.7977 1051.3861,213.9177 1051.3861,231.6377 " fill="none" id="Media Service-to-GCS" style="stroke:#181818;stroke-width:1.0;"/><polygon fill="#181818" points="1051.3861,237.6377,1055.3861,228.6377,1051.3861,232.6377,1047.3861,228.6377,1051.3861,237.6377" style="stroke:#181818;stroke-width:1.0;"/></g><!--SRC=[ZP2x2i9G38RtynIXkuEw2rgnY1UK3WxY44zZFLWQo4aL4T_TNgHUS73C__ry9B4P5ma4is9FafEIXp0hl984S3C0GbOnJpE2OCa9GRU90RR3rHGYLBhWTVTC2ZrIhiwYEiuX9ZaxInMy_p3rMbDuH7rlbz6IrHt-5FLRqO8IXr-c3Sk91AgcRmntOn9KtACl3IlscWh5wta0w64yUcCJ9-ILXMhKJiOsBukOgoN2UefBWcdJZCBOc8__GASpgDoVfzRfI_krVarBrGC0]--></g></svg>