<?xml version="1.0" encoding="us-ascii" standalone="no"?><svg xmlns="http://www.w3.org/2000/svg" xmlns:xlink="http://www.w3.org/1999/xlink" contentStyleType="text/css" height="393px" preserveAspectRatio="none" style="width:565px;height:393px;background:#FFFFFF;" version="1.1" viewBox="0 0 565 393" width="565px" zoomAndPan="magnify"><defs/><g><!--class Users--><g id="elem_Users"><rect codeLine="1" fill="#F1F1F1" height="159.7266" id="Users" rx="2.5" ry="2.5" style="stroke:#181818;stroke-width:0.5;" width="198" x="227.5" y="7"/><ellipse cx="304.25" cy="23" fill="#ADD1B2" rx="11" ry="11" style="stroke:#181818;stroke-width:1.0;"/><path d="M303.1094,23.7969 L303.1094,26.2969 L307.4375,26.2969 L307.4375,25.375 Q307.4375,24.7656 307.6719,24.5 Q307.9219,24.2344 308.2969,24.2344 Q308.6719,24.2344 308.9063,24.5 Q309.1406,24.7656 309.1406,25.375 L309.1406,28 L301.1406,28 Q300.5156,28 300.25,27.7656 Q300,27.5313 300,27.1406 Q300,26.7656 300.2656,26.5313 Q300.5313,26.2969 301.1406,26.2969 L301.4063,26.2969 L301.4063,19.6406 L301.1406,19.6406 Q300.5156,19.6406 300.25,19.4063 Q300,19.1719 300,18.7813 Q300,18.4063 300.25,18.1719 Q300.5156,17.9375 301.1406,17.9375 L308.7656,17.9375 L308.7656,20.5313 Q308.7656,21.1406 308.5313,21.4063 Q308.3125,21.6563 307.9219,21.6563 Q307.5469,21.6563 307.3125,21.4063 Q307.0781,21.1406 307.0781,20.5313 L307.0781,19.6406 L303.1094,19.6406 L303.1094,22.0938 L304.5938,22.0938 Q304.5938,21.4375 304.7188,21.25 Q304.9844,20.8438 305.4531,20.8438 Q305.8281,20.8438 306.0625,21.1094 Q306.2969,21.3594 306.2969,21.9688 L306.2969,23.9375 Q306.2969,24.4844 306.1719,24.6719 Q305.9063,25.0625 305.4531,25.0625 Q304.9844,25.0625 304.7188,24.6563 Q304.5938,24.4688 304.5938,23.7969 L303.1094,23.7969 Z " fill="#000000"/><text fill="#000000" font-family="sans-serif" font-size="14" lengthAdjust="spacing" textLength="36" x="324.75" y="28.7969">Users</text><line style="stroke:#181818;stroke-width:0.5;" x1="228.5" x2="424.5" y1="39" y2="39"/><ellipse cx="238.5" cy="53.8105" fill="none" rx="3" ry="3" style="stroke:#038048;stroke-width:1.0;"/><text fill="#000000" font-family="sans-serif" font-size="14" lengthAdjust="spacing" textLength="54" x="247.5" y="58.1074">id : UUID</text><ellipse cx="238.5" cy="72.4316" fill="none" rx="3" ry="3" style="stroke:#038048;stroke-width:1.0;"/><text fill="#000000" font-family="sans-serif" font-size="14" lengthAdjust="spacing" textLength="87" x="247.5" y="76.7285">avatar : TEXT</text><ellipse cx="238.5" cy="91.0527" fill="none" rx="3" ry="3" style="stroke:#038048;stroke-width:1.0;"/><text fill="#000000" font-family="sans-serif" font-size="14" lengthAdjust="spacing" textLength="159" x="247.5" y="95.3496">created_at : TIMESTAMP</text><line style="stroke:#181818;stroke-width:0.5;" x1="228.5" x2="424.5" y1="102.8633" y2="102.8633"/><ellipse cx="238.5" cy="117.6738" fill="#84BE84" rx="3" ry="3" style="stroke:#038048;stroke-width:1.0;"/><text fill="#000000" font-family="sans-serif" font-size="14" lengthAdjust="spacing" textLength="147" x="247.5" y="121.9707">name : VARCHAR(255)</text><ellipse cx="238.5" cy="136.2949" fill="#84BE84" rx="3" ry="3" style="stroke:#038048;stroke-width:1.0;"/><text fill="#000000" font-family="sans-serif" font-size="14" lengthAdjust="spacing" textLength="145" x="247.5" y="140.5918">email : VARCHAR(255)</text><ellipse cx="238.5" cy="154.916" fill="#84BE84" rx="3" ry="3" style="stroke:#038048;stroke-width:1.0;"/><text fill="#000000" font-family="sans-serif" font-size="14" lengthAdjust="spacing" textLength="172" x="247.5" y="159.2129">password : VARCHAR(255)</text></g><!--class Chats--><g id="elem_Chats"><rect codeLine="10" fill="#F1F1F1" height="85.2422" id="Chats" rx="2.5" ry="2.5" style="stroke:#181818;stroke-width:0.5;" width="185" x="7" y="44.5"/><ellipse cx="76.75" cy="60.5" fill="#ADD1B2" rx="11" ry="11" style="stroke:#181818;stroke-width:1.0;"/><path d="M75.6094,61.2969 L75.6094,63.7969 L79.9375,63.7969 L79.9375,62.875 Q79.9375,62.2656 80.1719,62 Q80.4219,61.7344 80.7969,61.7344 Q81.1719,61.7344 81.4063,62 Q81.6406,62.2656 81.6406,62.875 L81.6406,65.5 L73.6406,65.5 Q73.0156,65.5 72.75,65.2656 Q72.5,65.0313 72.5,64.6406 Q72.5,64.2656 72.7656,64.0313 Q73.0313,63.7969 73.6406,63.7969 L73.9063,63.7969 L73.9063,57.1406 L73.6406,57.1406 Q73.0156,57.1406 72.75,56.9063 Q72.5,56.6719 72.5,56.2813 Q72.5,55.9063 72.75,55.6719 Q73.0156,55.4375 73.6406,55.4375 L81.2656,55.4375 L81.2656,58.0313 Q81.2656,58.6406 81.0313,58.9063 Q80.8125,59.1563 80.4219,59.1563 Q80.0469,59.1563 79.8125,58.9063 Q79.5781,58.6406 79.5781,58.0313 L79.5781,57.1406 L75.6094,57.1406 L75.6094,59.5938 L77.0938,59.5938 Q77.0938,58.9375 77.2188,58.75 Q77.4844,58.3438 77.9531,58.3438 Q78.3281,58.3438 78.5625,58.6094 Q78.7969,58.8594 78.7969,59.4688 L78.7969,61.4375 Q78.7969,61.9844 78.6719,62.1719 Q78.4063,62.5625 77.9531,62.5625 Q77.4844,62.5625 77.2188,62.1563 Q77.0938,61.9688 77.0938,61.2969 L75.6094,61.2969 Z " fill="#000000"/><text fill="#000000" font-family="sans-serif" font-size="14" lengthAdjust="spacing" textLength="37" x="97.25" y="66.2969">Chats</text><line style="stroke:#181818;stroke-width:0.5;" x1="8" x2="191" y1="76.5" y2="76.5"/><ellipse cx="18" cy="91.3105" fill="none" rx="3" ry="3" style="stroke:#038048;stroke-width:1.0;"/><text fill="#000000" font-family="sans-serif" font-size="14" lengthAdjust="spacing" textLength="54" x="27" y="95.6074">id : UUID</text><ellipse cx="18" cy="109.9316" fill="none" rx="3" ry="3" style="stroke:#038048;stroke-width:1.0;"/><text fill="#000000" font-family="sans-serif" font-size="14" lengthAdjust="spacing" textLength="159" x="27" y="114.2285">created_at : TIMESTAMP</text><line style="stroke:#181818;stroke-width:0.5;" x1="8" x2="191" y1="121.7422" y2="121.7422"/></g><!--class Participants--><g id="elem_Participants"><rect codeLine="15" fill="#F1F1F1" height="103.8633" id="Participants" rx="2.5" ry="2.5" style="stroke:#181818;stroke-width:0.5;" width="116" x="225.5" y="255"/><ellipse cx="245" cy="271" fill="#ADD1B2" rx="11" ry="11" style="stroke:#181818;stroke-width:1.0;"/><path d="M243.8594,271.7969 L243.8594,274.2969 L248.1875,274.2969 L248.1875,273.375 Q248.1875,272.7656 248.4219,272.5 Q248.6719,272.2344 249.0469,272.2344 Q249.4219,272.2344 249.6563,272.5 Q249.8906,272.7656 249.8906,273.375 L249.8906,276 L241.8906,276 Q241.2656,276 241,275.7656 Q240.75,275.5313 240.75,275.1406 Q240.75,274.7656 241.0156,274.5313 Q241.2813,274.2969 241.8906,274.2969 L242.1563,274.2969 L242.1563,267.6406 L241.8906,267.6406 Q241.2656,267.6406 241,267.4063 Q240.75,267.1719 240.75,266.7813 Q240.75,266.4063 241,266.1719 Q241.2656,265.9375 241.8906,265.9375 L249.5156,265.9375 L249.5156,268.5313 Q249.5156,269.1406 249.2813,269.4063 Q249.0625,269.6563 248.6719,269.6563 Q248.2969,269.6563 248.0625,269.4063 Q247.8281,269.1406 247.8281,268.5313 L247.8281,267.6406 L243.8594,267.6406 L243.8594,270.0938 L245.3438,270.0938 Q245.3438,269.4375 245.4688,269.25 Q245.7344,268.8438 246.2031,268.8438 Q246.5781,268.8438 246.8125,269.1094 Q247.0469,269.3594 247.0469,269.9688 L247.0469,271.9375 Q247.0469,272.4844 246.9219,272.6719 Q246.6563,273.0625 246.2031,273.0625 Q245.7344,273.0625 245.4688,272.6563 Q245.3438,272.4688 245.3438,271.7969 L243.8594,271.7969 Z " fill="#000000"/><text fill="#000000" font-family="sans-serif" font-size="14" lengthAdjust="spacing" textLength="74" x="260" y="276.7969">Participants</text><line style="stroke:#181818;stroke-width:0.5;" x1="226.5" x2="340.5" y1="287" y2="287"/><ellipse cx="236.5" cy="301.8105" fill="none" rx="3" ry="3" style="stroke:#038048;stroke-width:1.0;"/><text fill="#000000" font-family="sans-serif" font-size="14" lengthAdjust="spacing" textLength="54" x="245.5" y="306.1074">id : UUID</text><ellipse cx="236.5" cy="320.4316" fill="none" rx="3" ry="3" style="stroke:#038048;stroke-width:1.0;"/><text fill="#000000" font-family="sans-serif" font-size="14" lengthAdjust="spacing" textLength="89" x="245.5" y="324.7285">chat_id : UUID</text><ellipse cx="236.5" cy="339.0527" fill="none" rx="3" ry="3" style="stroke:#038048;stroke-width:1.0;"/><text fill="#000000" font-family="sans-serif" font-size="14" lengthAdjust="spacing" textLength="90" x="245.5" y="343.3496">user_id : UUID</text><line style="stroke:#181818;stroke-width:0.5;" x1="226.5" x2="340.5" y1="350.8633" y2="350.8633"/></g><!--class Messages--><g id="elem_Messages"><rect codeLine="21" fill="#F1F1F1" height="159.7266" id="Messages" rx="2.5" ry="2.5" style="stroke:#181818;stroke-width:0.5;" width="181" x="9" y="227"/><ellipse cx="63.25" cy="243" fill="#ADD1B2" rx="11" ry="11" style="stroke:#181818;stroke-width:1.0;"/><path d="M62.1094,243.7969 L62.1094,246.2969 L66.4375,246.2969 L66.4375,245.375 Q66.4375,244.7656 66.6719,244.5 Q66.9219,244.2344 67.2969,244.2344 Q67.6719,244.2344 67.9063,244.5 Q68.1406,244.7656 68.1406,245.375 L68.1406,248 L60.1406,248 Q59.5156,248 59.25,247.7656 Q59,247.5313 59,247.1406 Q59,246.7656 59.2656,246.5313 Q59.5313,246.2969 60.1406,246.2969 L60.4063,246.2969 L60.4063,239.6406 L60.1406,239.6406 Q59.5156,239.6406 59.25,239.4063 Q59,239.1719 59,238.7813 Q59,238.4063 59.25,238.1719 Q59.5156,237.9375 60.1406,237.9375 L67.7656,237.9375 L67.7656,240.5313 Q67.7656,241.1406 67.5313,241.4063 Q67.3125,241.6563 66.9219,241.6563 Q66.5469,241.6563 66.3125,241.4063 Q66.0781,241.1406 66.0781,240.5313 L66.0781,239.6406 L62.1094,239.6406 L62.1094,242.0938 L63.5938,242.0938 Q63.5938,241.4375 63.7188,241.25 Q63.9844,240.8438 64.4531,240.8438 Q64.8281,240.8438 65.0625,241.1094 Q65.2969,241.3594 65.2969,241.9688 L65.2969,243.9375 Q65.2969,244.4844 65.1719,244.6719 Q64.9063,245.0625 64.4531,245.0625 Q63.9844,245.0625 63.7188,244.6563 Q63.5938,244.4688 63.5938,243.7969 L62.1094,243.7969 Z " fill="#000000"/><text fill="#000000" font-family="sans-serif" font-size="14" lengthAdjust="spacing" textLength="64" x="83.75" y="248.7969">Messages</text><line style="stroke:#181818;stroke-width:0.5;" x1="10" x2="189" y1="259" y2="259"/><ellipse cx="20" cy="273.8105" fill="none" rx="3" ry="3" style="stroke:#038048;stroke-width:1.0;"/><text fill="#000000" font-family="sans-serif" font-size="14" lengthAdjust="spacing" textLength="54" x="29" y="278.1074">id : UUID</text><ellipse cx="20" cy="292.4316" fill="none" rx="3" ry="3" style="stroke:#038048;stroke-width:1.0;"/><text fill="#000000" font-family="sans-serif" font-size="14" lengthAdjust="spacing" textLength="89" x="29" y="296.7285">chat_id : UUID</text><ellipse cx="20" cy="311.0527" fill="none" rx="3" ry="3" style="stroke:#038048;stroke-width:1.0;"/><text fill="#000000" font-family="sans-serif" font-size="14" lengthAdjust="spacing" textLength="106" x="29" y="315.3496">sender_id : UUID</text><ellipse cx="20" cy="329.6738" fill="none" rx="3" ry="3" style="stroke:#038048;stroke-width:1.0;"/><text fill="#000000" font-family="sans-serif" font-size="14" lengthAdjust="spacing" textLength="94" x="29" y="333.9707">content : TEXT</text><ellipse cx="20" cy="348.2949" fill="none" rx="3" ry="3" style="stroke:#038048;stroke-width:1.0;"/><text fill="#000000" font-family="sans-serif" font-size="14" lengthAdjust="spacing" textLength="77" x="29" y="352.5918">type : ENUM</text><ellipse cx="20" cy="366.916" fill="none" rx="3" ry="3" style="stroke:#038048;stroke-width:1.0;"/><text fill="#000000" font-family="sans-serif" font-size="14" lengthAdjust="spacing" textLength="155" x="29" y="371.2129">timestamp : TIMESTAMP</text><line style="stroke:#181818;stroke-width:0.5;" x1="10" x2="189" y1="378.7266" y2="378.7266"/></g><!--class Notifications--><g id="elem_Notifications"><rect codeLine="30" fill="#F1F1F1" height="159.7266" id="Notifications" rx="2.5" ry="2.5" style="stroke:#181818;stroke-width:0.5;" width="181" x="377" y="227"/><ellipse cx="425.25" cy="243" fill="#ADD1B2" rx="11" ry="11" style="stroke:#181818;stroke-width:1.0;"/><path d="M424.1094,243.7969 L424.1094,246.2969 L428.4375,246.2969 L428.4375,245.375 Q428.4375,244.7656 428.6719,244.5 Q428.9219,244.2344 429.2969,244.2344 Q429.6719,244.2344 429.9063,244.5 Q430.1406,244.7656 430.1406,245.375 L430.1406,248 L422.1406,248 Q421.5156,248 421.25,247.7656 Q421,247.5313 421,247.1406 Q421,246.7656 421.2656,246.5313 Q421.5313,246.2969 422.1406,246.2969 L422.4063,246.2969 L422.4063,239.6406 L422.1406,239.6406 Q421.5156,239.6406 421.25,239.4063 Q421,239.1719 421,238.7813 Q421,238.4063 421.25,238.1719 Q421.5156,237.9375 422.1406,237.9375 L429.7656,237.9375 L429.7656,240.5313 Q429.7656,241.1406 429.5313,241.4063 Q429.3125,241.6563 428.9219,241.6563 Q428.5469,241.6563 428.3125,241.4063 Q428.0781,241.1406 428.0781,240.5313 L428.0781,239.6406 L424.1094,239.6406 L424.1094,242.0938 L425.5938,242.0938 Q425.5938,241.4375 425.7188,241.25 Q425.9844,240.8438 426.4531,240.8438 Q426.8281,240.8438 427.0625,241.1094 Q427.2969,241.3594 427.2969,241.9688 L427.2969,243.9375 Q427.2969,244.4844 427.1719,244.6719 Q426.9063,245.0625 426.4531,245.0625 Q425.9844,245.0625 425.7188,244.6563 Q425.5938,244.4688 425.5938,243.7969 L424.1094,243.7969 Z " fill="#000000"/><text fill="#000000" font-family="sans-serif" font-size="14" lengthAdjust="spacing" textLength="76" x="445.75" y="248.7969">Notifications</text><line style="stroke:#181818;stroke-width:0.5;" x1="378" x2="557" y1="259" y2="259"/><ellipse cx="388" cy="273.8105" fill="none" rx="3" ry="3" style="stroke:#038048;stroke-width:1.0;"/><text fill="#000000" font-family="sans-serif" font-size="14" lengthAdjust="spacing" textLength="54" x="397" y="278.1074">id : UUID</text><ellipse cx="388" cy="292.4316" fill="none" rx="3" ry="3" style="stroke:#038048;stroke-width:1.0;"/><text fill="#000000" font-family="sans-serif" font-size="14" lengthAdjust="spacing" textLength="90" x="397" y="296.7285">user_id : UUID</text><ellipse cx="388" cy="311.0527" fill="none" rx="3" ry="3" style="stroke:#038048;stroke-width:1.0;"/><text fill="#000000" font-family="sans-serif" font-size="14" lengthAdjust="spacing" textLength="78" x="397" y="315.3496">body : TEXT</text><ellipse cx="388" cy="329.6738" fill="none" rx="3" ry="3" style="stroke:#038048;stroke-width:1.0;"/><text fill="#000000" font-family="sans-serif" font-size="14" lengthAdjust="spacing" textLength="125" x="397" y="333.9707">is_read : BOOLEAN</text><ellipse cx="388" cy="348.2949" fill="none" rx="3" ry="3" style="stroke:#038048;stroke-width:1.0;"/><text fill="#000000" font-family="sans-serif" font-size="14" lengthAdjust="spacing" textLength="155" x="397" y="352.5918">timestamp : TIMESTAMP</text><line style="stroke:#181818;stroke-width:0.5;" x1="378" x2="557" y1="360.1055" y2="360.1055"/><ellipse cx="388" cy="374.916" fill="#84BE84" rx="3" ry="3" style="stroke:#038048;stroke-width:1.0;"/><text fill="#000000" font-family="sans-serif" font-size="14" lengthAdjust="spacing" textLength="134" x="397" y="379.2129">title : VARCHAR(255)</text></g><!--link Users to Participants--><g id="link_Users_Participants"><path codeLine="39" d="M309.3717,174.8587 C303.6017,204.1087 302.2394,210.9595 297.0894,237.0995 " fill="none" id="Users-Participants" style="stroke:#181818;stroke-width:1.0;"/><line style="stroke:#181818;stroke-width:1.0;" x1="306.2215" x2="314.0702" y1="170.1602" y2="171.7085"/><line style="stroke:#181818;stroke-width:1.0;" x1="305.6409" x2="313.4896" y1="173.1035" y2="174.6518"/><line style="stroke:#181818;stroke-width:1.0;" x1="309.3717" x2="310.92" y1="174.8587" y2="167.01"/><line style="stroke:#181818;stroke-width:1.0;" x1="295.1564" x2="299.4968" y1="246.9109" y2="255.9198"/><line style="stroke:#181818;stroke-width:1.0;" x1="295.1564" x2="287.7232" y1="246.9109" y2="253.6002"/><line style="stroke:#181818;stroke-width:1.0;" x1="295.1564" x2="293.61" y1="246.9109" y2="254.76"/><ellipse cx="296.3162" cy="241.024" fill="none" rx="4" ry="4" style="stroke:#181818;stroke-width:1.0;"/></g><!--link Chats to Participants--><g id="link_Chats_Participants"><path codeLine="40" d="M139.6999,135.6335 C169.7299,171.2135 196.3397,202.735 228.5497,240.895 " fill="none" id="Chats-Participants" style="stroke:#181818;stroke-width:1.0;"/><line style="stroke:#181818;stroke-width:1.0;" x1="134.0632" x2="140.1767" y1="135.1567" y2="129.9968"/><line style="stroke:#181818;stroke-width:1.0;" x1="135.9982" x2="142.1117" y1="137.4493" y2="132.2894"/><line style="stroke:#181818;stroke-width:1.0;" x1="139.6999" x2="134.54" y1="135.6335" y2="129.52"/><line style="stroke:#181818;stroke-width:1.0;" x1="234.9999" x2="244.745" y1="248.5367" y2="250.7799"/><line style="stroke:#181818;stroke-width:1.0;" x1="234.9999" x2="235.575" y1="248.5367" y2="258.5201"/><line style="stroke:#181818;stroke-width:1.0;" x1="234.9999" x2="240.16" y1="248.5367" y2="254.65"/><ellipse cx="231.1298" cy="243.9516" fill="none" rx="4" ry="4" style="stroke:#181818;stroke-width:1.0;"/></g><!--link Chats to Messages--><g id="link_Chats_Messages"><path codeLine="41" d="M99.5,137.52 C99.5,164.94 99.5,175.76 99.5,208.68 " fill="none" id="Chats-Messages" style="stroke:#181818;stroke-width:1.0;"/><line style="stroke:#181818;stroke-width:1.0;" x1="95.5" x2="103.5" y1="133.52" y2="133.52"/><line style="stroke:#181818;stroke-width:1.0;" x1="95.5" x2="103.5" y1="136.52" y2="136.52"/><line style="stroke:#181818;stroke-width:1.0;" x1="99.5" x2="99.5" y1="137.52" y2="129.52"/><line style="stroke:#181818;stroke-width:1.0;" x1="99.5" x2="105.5" y1="218.68" y2="226.68"/><line style="stroke:#181818;stroke-width:1.0;" x1="99.5" x2="93.5" y1="218.68" y2="226.68"/><line style="stroke:#181818;stroke-width:1.0;" x1="99.5" x2="99.5" y1="218.68" y2="226.68"/><ellipse cx="99.5" cy="212.68" fill="none" rx="4" ry="4" style="stroke:#181818;stroke-width:1.0;"/></g><!--link Users to Messages--><g id="link_Users_Messages"><path codeLine="42" d="M238.4606,172.552 C218.1606,192.052 215.1642,194.9236 194.8542,214.4236 " fill="none" id="Users-Messages" style="stroke:#181818;stroke-width:1.0;"/><line style="stroke:#181818;stroke-width:1.0;" x1="238.5743" x2="244.1163" y1="166.8963" y2="172.6657"/><line style="stroke:#181818;stroke-width:1.0;" x1="236.4108" x2="241.9528" y1="168.9746" y2="174.744"/><line style="stroke:#181818;stroke-width:1.0;" x1="238.4606" x2="244.23" y1="172.552" y2="167.01"/><line style="stroke:#181818;stroke-width:1.0;" x1="187.6408" x2="186.0255" y1="221.3494" y2="231.2181"/><line style="stroke:#181818;stroke-width:1.0;" x1="187.6408" x2="177.7145" y1="221.3494" y2="222.5619"/><line style="stroke:#181818;stroke-width:1.0;" x1="187.6408" x2="181.87" y1="221.3494" y2="226.89"/><ellipse cx="191.9688" cy="217.1939" fill="none" rx="4" ry="4" style="stroke:#181818;stroke-width:1.0;"/></g><!--link Users to Notifications--><g id="link_Users_Notifications"><path codeLine="43" d="M381.9442,173.7278 C394.5542,193.2278 393.9457,192.275 406.5557,211.775 " fill="none" id="Users-Notifications" style="stroke:#181818;stroke-width:1.0;"/><line style="stroke:#181818;stroke-width:1.0;" x1="376.4132" x2="383.131" y1="172.541" y2="168.1968"/><line style="stroke:#181818;stroke-width:1.0;" x1="378.0423" x2="384.76" y1="175.0601" y2="170.716"/><line style="stroke:#181818;stroke-width:1.0;" x1="381.9442" x2="377.6" y1="173.7278" y2="167.01"/><line style="stroke:#181818;stroke-width:1.0;" x1="411.9858" x2="421.3683" y1="220.1722" y2="223.6319"/><line style="stroke:#181818;stroke-width:1.0;" x1="411.9858" x2="411.2917" y1="220.1722" y2="230.1481"/><line style="stroke:#181818;stroke-width:1.0;" x1="411.9858" x2="416.33" y1="220.1722" y2="226.89"/><ellipse cx="408.7277" cy="215.1339" fill="none" rx="4" ry="4" style="stroke:#181818;stroke-width:1.0;"/></g><!--SRC=[ZP91JyCm38Nl-HNHJY2q2z8ktCgen2JQJQD5t2hJ6B2q9bLYGDN6VoVDG4fHopZwEVxq_1pKJDp9MUdGkfdS2oal92bv9SjoTHCg3Gtw-Y7PBc-JxTdbOd4UT6o0TcED5fpxC5QDzU0T6Apl5EbZ4PJQ8Z2g2hXNLrbwNoJPHdmAWT_Ubg_04zvE3s_0CjNKWfvaU7mrbDvy6f4KuJ9q3bxm_oY7MWrWuPtHx8bn3DorVSffNcR7cXfq34qxjLXkc9wf1YQZ9-pyMkE8vTteDP-Cwc8_v2gVRJzxlLxVfKd-jwlmV-JXC9-RlOmp5-5wfpi_mGv9u-fWzIy0]--></g></svg>