<?xml version="1.0" encoding="us-ascii" standalone="no"?><svg xmlns="http://www.w3.org/2000/svg" xmlns:xlink="http://www.w3.org/1999/xlink" contentStyleType="text/css" height="450px" preserveAspectRatio="none" style="width:1489px;height:450px;background:#FFFFFF;" version="1.1" viewBox="0 0 1489 450" width="1489px" zoomAndPan="magnify"><defs/><g><!--cluster Frontend (Flutter)--><g id="cluster_Frontend (Flutter)"><path d="M8.5,6.0137 L135.5,6.0137 A3.75,3.75 0 0 1 138,8.5137 L145,30.6348 L258.5,30.6348 A2.5,2.5 0 0 1 261,33.1348 L261,230.5137 A2.5,2.5 0 0 1 258.5,233.0137 L8.5,233.0137 A2.5,2.5 0 0 1 6,230.5137 L6,8.5137 A2.5,2.5 0 0 1 8.5,6.0137 " fill="none" style="stroke:#000000;stroke-width:1.5;"/><line style="stroke:#000000;stroke-width:1.5;" x1="6" x2="145" y1="30.6348" y2="30.6348"/><text fill="#000000" font-family="sans-serif" font-size="14" font-weight="bold" lengthAdjust="spacing" textLength="126" x="10" y="23.1211">Frontend (Flutter)</text></g><!--cluster Cloud Infrastructure--><g id="cluster_Cloud Infrastructure"><path d="M295.5,123.0137 L438.5,123.0137 A3.75,3.75 0 0 1 441,125.5137 L448,147.6348 L1280.5,147.6348 A2.5,2.5 0 0 1 1283,150.1348 L1283,440.5137 A2.5,2.5 0 0 1 1280.5,443.0137 L295.5,443.0137 A2.5,2.5 0 0 1 293,440.5137 L293,125.5137 A2.5,2.5 0 0 1 295.5,123.0137 " fill="none" style="stroke:#000000;stroke-width:1.5;"/><line style="stroke:#000000;stroke-width:1.5;" x1="293" x2="448" y1="147.6348" y2="147.6348"/><text fill="#000000" font-family="sans-serif" font-size="14" font-weight="bold" lengthAdjust="spacing" textLength="142" x="297" y="140.1211">Cloud Infrastructure</text></g><!--entity Android--><g id="elem_Android"><rect fill="#F1F1F1" height="48.6211" rx="2.5" ry="2.5" style="stroke:#181818;stroke-width:0.5;" width="89" x="30.5" y="51.0137"/><rect fill="#F1F1F1" height="10" style="stroke:#181818;stroke-width:0.5;" width="15" x="99.5" y="56.0137"/><rect fill="#F1F1F1" height="2" style="stroke:#181818;stroke-width:0.5;" width="4" x="97.5" y="58.0137"/><rect fill="#F1F1F1" height="2" style="stroke:#181818;stroke-width:0.5;" width="4" x="97.5" y="62.0137"/><text fill="#000000" font-family="sans-serif" font-size="14" lengthAdjust="spacing" textLength="49" x="45.5" y="86.1211">Android</text></g><!--entity iOS--><g id="elem_iOS"><rect fill="#F1F1F1" height="48.6211" rx="2.5" ry="2.5" style="stroke:#181818;stroke-width:0.5;" width="63" x="154.5" y="51.0137"/><rect fill="#F1F1F1" height="10" style="stroke:#181818;stroke-width:0.5;" width="15" x="197.5" y="56.0137"/><rect fill="#F1F1F1" height="2" style="stroke:#181818;stroke-width:0.5;" width="4" x="195.5" y="58.0137"/><rect fill="#F1F1F1" height="2" style="stroke:#181818;stroke-width:0.5;" width="4" x="195.5" y="62.0137"/><text fill="#000000" font-family="sans-serif" font-size="14" lengthAdjust="spacing" textLength="23" x="169.5" y="86.1211">iOS</text></g><!--entity Web--><g id="elem_Web"><rect fill="#F1F1F1" height="48.6211" rx="2.5" ry="2.5" style="stroke:#181818;stroke-width:0.5;" width="69" x="40.5" y="160.0137"/><rect fill="#F1F1F1" height="10" style="stroke:#181818;stroke-width:0.5;" width="15" x="89.5" y="165.0137"/><rect fill="#F1F1F1" height="2" style="stroke:#181818;stroke-width:0.5;" width="4" x="87.5" y="167.0137"/><rect fill="#F1F1F1" height="2" style="stroke:#181818;stroke-width:0.5;" width="4" x="87.5" y="171.0137"/><text fill="#000000" font-family="sans-serif" font-size="14" lengthAdjust="spacing" textLength="29" x="55.5" y="195.1211">Web</text></g><!--entity Load Balancer--><g id="elem_Load Balancer"><rect fill="#F1F1F1" height="48.6211" rx="2.5" ry="2.5" style="stroke:#181818;stroke-width:0.5;" width="132" x="415" y="160.0137"/><rect fill="#F1F1F1" height="10" style="stroke:#181818;stroke-width:0.5;" width="15" x="527" y="165.0137"/><rect fill="#F1F1F1" height="2" style="stroke:#181818;stroke-width:0.5;" width="4" x="525" y="167.0137"/><rect fill="#F1F1F1" height="2" style="stroke:#181818;stroke-width:0.5;" width="4" x="525" y="171.0137"/><text fill="#000000" font-family="sans-serif" font-size="14" lengthAdjust="spacing" textLength="92" x="430" y="195.1211">Load Balancer</text></g><!--entity Backend Services--><g id="elem_Backend Services"><rect fill="#F1F1F1" height="48.6211" rx="2.5" ry="2.5" style="stroke:#181818;stroke-width:0.5;" width="153" x="599.5" y="269.0137"/><rect fill="#F1F1F1" height="10" style="stroke:#181818;stroke-width:0.5;" width="15" x="732.5" y="274.0137"/><rect fill="#F1F1F1" height="2" style="stroke:#181818;stroke-width:0.5;" width="4" x="730.5" y="276.0137"/><rect fill="#F1F1F1" height="2" style="stroke:#181818;stroke-width:0.5;" width="4" x="730.5" y="280.0137"/><text fill="#000000" font-family="sans-serif" font-size="14" lengthAdjust="spacing" textLength="113" x="614.5" y="304.1211">Backend Services</text></g><!--entity PostgreSQL Database--><g id="elem_PostgreSQL Database"><rect fill="#F1F1F1" height="48.6211" rx="2.5" ry="2.5" style="stroke:#181818;stroke-width:0.5;" width="182" x="309" y="378.0137"/><rect fill="#F1F1F1" height="10" style="stroke:#181818;stroke-width:0.5;" width="15" x="471" y="383.0137"/><rect fill="#F1F1F1" height="2" style="stroke:#181818;stroke-width:0.5;" width="4" x="469" y="385.0137"/><rect fill="#F1F1F1" height="2" style="stroke:#181818;stroke-width:0.5;" width="4" x="469" y="389.0137"/><text fill="#000000" font-family="sans-serif" font-size="14" lengthAdjust="spacing" textLength="142" x="324" y="413.1211">PostgreSQL Database</text></g><!--entity Redis Cache--><g id="elem_Redis Cache"><rect fill="#F1F1F1" height="48.6211" rx="2.5" ry="2.5" style="stroke:#181818;stroke-width:0.5;" width="121" x="526.5" y="378.0137"/><rect fill="#F1F1F1" height="10" style="stroke:#181818;stroke-width:0.5;" width="15" x="627.5" y="383.0137"/><rect fill="#F1F1F1" height="2" style="stroke:#181818;stroke-width:0.5;" width="4" x="625.5" y="385.0137"/><rect fill="#F1F1F1" height="2" style="stroke:#181818;stroke-width:0.5;" width="4" x="625.5" y="389.0137"/><text fill="#000000" font-family="sans-serif" font-size="14" lengthAdjust="spacing" textLength="81" x="541.5" y="413.1211">Redis Cache</text></g><!--entity Object Storage (S3)--><g id="elem_Object Storage (S3)"><rect fill="#F1F1F1" height="48.6211" rx="2.5" ry="2.5" style="stroke:#181818;stroke-width:0.5;" width="166" x="683" y="378.0137"/><rect fill="#F1F1F1" height="10" style="stroke:#181818;stroke-width:0.5;" width="15" x="829" y="383.0137"/><rect fill="#F1F1F1" height="2" style="stroke:#181818;stroke-width:0.5;" width="4" x="827" y="385.0137"/><rect fill="#F1F1F1" height="2" style="stroke:#181818;stroke-width:0.5;" width="4" x="827" y="389.0137"/><text fill="#000000" font-family="sans-serif" font-size="14" lengthAdjust="spacing" textLength="126" x="698" y="413.1211">Object Storage (S3)</text></g><!--entity WebSocket Server--><g id="elem_WebSocket Server"><rect fill="#F1F1F1" height="48.6211" rx="2.5" ry="2.5" style="stroke:#181818;stroke-width:0.5;" width="158" x="884" y="378.0137"/><rect fill="#F1F1F1" height="10" style="stroke:#181818;stroke-width:0.5;" width="15" x="1022" y="383.0137"/><rect fill="#F1F1F1" height="2" style="stroke:#181818;stroke-width:0.5;" width="4" x="1020" y="385.0137"/><rect fill="#F1F1F1" height="2" style="stroke:#181818;stroke-width:0.5;" width="4" x="1020" y="389.0137"/><text fill="#000000" font-family="sans-serif" font-size="14" lengthAdjust="spacing" textLength="118" x="899" y="413.1211">WebSocket Server</text></g><!--entity Firebase Authentication--><g id="elem_Firebase Authentication"><rect fill="#F1F1F1" height="48.6211" rx="2.5" ry="2.5" style="stroke:#181818;stroke-width:0.5;" width="190" x="1077" y="378.0137"/><rect fill="#F1F1F1" height="10" style="stroke:#181818;stroke-width:0.5;" width="15" x="1247" y="383.0137"/><rect fill="#F1F1F1" height="2" style="stroke:#181818;stroke-width:0.5;" width="4" x="1245" y="385.0137"/><rect fill="#F1F1F1" height="2" style="stroke:#181818;stroke-width:0.5;" width="4" x="1245" y="389.0137"/><text fill="#000000" font-family="sans-serif" font-size="14" lengthAdjust="spacing" textLength="150" x="1092" y="413.1211">Firebase Authentication</text></g><!--entity GitHub Actions--><g id="elem_GitHub Actions"><rect fill="#F1F1F1" height="48.6211" rx="2.5" ry="2.5" style="stroke:#181818;stroke-width:0.5;" width="133" x="1324.5" y="51.0137"/><rect fill="#F1F1F1" height="10" style="stroke:#181818;stroke-width:0.5;" width="15" x="1437.5" y="56.0137"/><rect fill="#F1F1F1" height="2" style="stroke:#181818;stroke-width:0.5;" width="4" x="1435.5" y="58.0137"/><rect fill="#F1F1F1" height="2" style="stroke:#181818;stroke-width:0.5;" width="4" x="1435.5" y="62.0137"/><text fill="#000000" font-family="sans-serif" font-size="14" lengthAdjust="spacing" textLength="93" x="1339.5" y="86.1211">GitHub Actions</text></g><!--entity Build Artifacts--><g id="elem_Build Artifacts"><rect fill="#F1F1F1" height="48.6211" rx="2.5" ry="2.5" style="stroke:#181818;stroke-width:0.5;" width="126" x="1328" y="160.0137"/><rect fill="#F1F1F1" height="10" style="stroke:#181818;stroke-width:0.5;" width="15" x="1434" y="165.0137"/><rect fill="#F1F1F1" height="2" style="stroke:#181818;stroke-width:0.5;" width="4" x="1432" y="167.0137"/><rect fill="#F1F1F1" height="2" style="stroke:#181818;stroke-width:0.5;" width="4" x="1432" y="171.0137"/><text fill="#000000" font-family="sans-serif" font-size="14" lengthAdjust="spacing" textLength="86" x="1343" y="195.1211">Build Artifacts</text></g><!--entity ECR (Docker Registry)--><g id="elem_ECR (Docker Registry)"><rect fill="#F1F1F1" height="48.6211" rx="2.5" ry="2.5" style="stroke:#181818;stroke-width:0.5;" width="184" x="1299" y="269.0137"/><rect fill="#F1F1F1" height="10" style="stroke:#181818;stroke-width:0.5;" width="15" x="1463" y="274.0137"/><rect fill="#F1F1F1" height="2" style="stroke:#181818;stroke-width:0.5;" width="4" x="1461" y="276.0137"/><rect fill="#F1F1F1" height="2" style="stroke:#181818;stroke-width:0.5;" width="4" x="1461" y="280.0137"/><text fill="#000000" font-family="sans-serif" font-size="14" lengthAdjust="spacing" textLength="144" x="1314" y="304.1211">ECR (Docker Registry)</text></g><!--link GitHub Actions to Build Artifacts--><g id="link_GitHub Actions_Build Artifacts"><path d="M1391,100.2637 C1391,117.9937 1391,136.1137 1391,153.8337 " fill="none" id="GitHub Actions-to-Build Artifacts" style="stroke:#181818;stroke-width:1.0;"/><polygon fill="#181818" points="1391,159.8337,1395,150.8337,1391,154.8337,1387,150.8337,1391,159.8337" style="stroke:#181818;stroke-width:1.0;"/></g><!--link Build Artifacts to ECR (Docker Registry)--><g id="link_Build Artifacts_ECR (Docker Registry)"><path d="M1391,209.2637 C1391,226.9937 1391,245.1137 1391,262.8337 " fill="none" id="Build Artifacts-to-ECR (Docker Registry)" style="stroke:#181818;stroke-width:1.0;"/><polygon fill="#181818" points="1391,268.8337,1395,259.8337,1391,263.8337,1387,259.8337,1391,268.8337" style="stroke:#181818;stroke-width:1.0;"/></g><!--link Frontend (Flutter) to Load Balancer--><g id="link_Frontend (Flutter)_Load Balancer"><path d="M261.2163,80.37 C261.3388,80.4274 261.4624,80.4855 261.5874,80.5441 C261.8372,80.6613 262.092,80.7809 262.3516,80.9027 C263.3902,81.3901 264.5068,81.9141 265.6969,82.4726 C268.0772,83.5896 270.752,84.8448 273.6859,86.2216 C285.4219,91.729 301.3063,99.183 319.0925,107.5299 C354.665,124.2237 392.4137,141.939 425.2287,157.344 " fill="none" id="Frontend (Flutter)-to-Load Balancer" style="stroke:#181818;stroke-width:1.0;"/><polygon fill="#181818" points="430.66,159.8937,424.2129,152.4482,426.1339,157.7689,420.8132,159.69,430.66,159.8937" style="stroke:#181818;stroke-width:1.0;"/></g><!--link Load Balancer to Backend Services--><g id="link_Load Balancer_Backend Services"><path d="M524.28,209.2637 C556.59,226.9937 595.3004,248.2264 627.5804,265.9464 " fill="none" id="Load Balancer-to-Backend Services" style="stroke:#181818;stroke-width:1.0;"/><polygon fill="#181818" points="632.84,268.8337,626.8754,260.9964,628.457,266.4276,623.0257,268.0092,632.84,268.8337" style="stroke:#181818;stroke-width:1.0;"/></g><!--link Backend Services to PostgreSQL Database--><g id="link_Backend Services_PostgreSQL Database"><path d="M615.09,318.1237 C569.21,335.9137 512.1939,358.0139 466.3539,375.7939 " fill="none" id="Backend Services-to-PostgreSQL Database" style="stroke:#181818;stroke-width:1.0;"/><polygon fill="#181818" points="460.76,377.9637,470.5974,378.4384,465.4216,376.1556,467.7044,370.9798,460.76,377.9637" style="stroke:#181818;stroke-width:1.0;"/></g><!--link Backend Services to Redis Cache--><g id="link_Backend Services_Redis Cache"><path d="M656.25,318.2637 C641.5,335.9937 625.2655,355.4997 610.5355,373.2197 " fill="none" id="Backend Services-to-Redis Cache" style="stroke:#181818;stroke-width:1.0;"/><polygon fill="#181818" points="606.7,377.8337,615.5292,373.4696,609.8962,373.9887,609.3772,368.3557,606.7,377.8337" style="stroke:#181818;stroke-width:1.0;"/></g><!--link Backend Services to Object Storage (S3)--><g id="link_Backend Services_Object Storage (S3)"><path d="M695.97,318.2637 C710.89,335.9937 727.3185,355.5214 742.2185,373.2414 " fill="none" id="Backend Services-to-Object Storage (S3)" style="stroke:#181818;stroke-width:1.0;"/><polygon fill="#181818" points="746.08,377.8337,743.3493,368.3709,742.8621,374.0068,737.2263,373.5195,746.08,377.8337" style="stroke:#181818;stroke-width:1.0;"/></g><!--link Backend Services to WebSocket Server--><g id="link_Backend Services_WebSocket Server"><path d="M739.34,318.1237 C787.05,335.9137 846.5384,358.0865 894.1984,375.8665 " fill="none" id="Backend Services-to-WebSocket Server" style="stroke:#181818;stroke-width:1.0;"/><polygon fill="#181818" points="899.82,377.9637,892.7858,371.0702,895.1354,376.216,889.9896,378.5656,899.82,377.9637" style="stroke:#181818;stroke-width:1.0;"/></g><!--link Backend Services to Firebase Authentication--><g id="link_Backend Services_Firebase Authentication"><path d="M752.68,311.0537 C839.97,329.8837 976.7649,359.3985 1071.0549,379.7385 " fill="none" id="Backend Services-to-Firebase Authentication" style="stroke:#181818;stroke-width:1.0;"/><polygon fill="#181818" points="1076.92,381.0037,1068.9658,375.1958,1072.0324,379.9493,1067.2789,383.0159,1076.92,381.0037" style="stroke:#181818;stroke-width:1.0;"/></g><!--SRC=[TL6nJiCm4Dtp5QTEwT297IbjAI1LAZG3GzNXObzJqyIkpcSGGlmxTbe4DCratzDxzvwV_S7O8pAsq3hhr9vTIo0SACkEg0vO4umMxAoGrP0lcY12F1x1PmQmAQncP_GstSsgxCuNghRPrn_rh751mwFTCVguM4bWEkkN3ZLCiK6hY3lrDAgIKqdyPXJv3dnoNcgcyda9SnIiq5E7hqaR3pDK-zEygbv92PJYE3ddvStu9rBfubxfrfwT5eOfRO8Yo9wi68LYdEsoR-wDF8GA2fKWluM9TkzsSXlp1TDeA5ZC3fN4U3tabtitMqC-JyOCQwfDVFr73BJfrnb5IN1HnyLyulGBwaCdvjNMXiZ_gXmYNUrtYDmlVOWvz1FV]--></g></svg>