<?xml version="1.0" encoding="us-ascii" standalone="no"?><svg xmlns="http://www.w3.org/2000/svg" xmlns:xlink="http://www.w3.org/1999/xlink" contentStyleType="text/css" height="370px" preserveAspectRatio="none" style="width:335px;height:370px;background:#FFFFFF;" version="1.1" viewBox="0 0 335 370" width="335px" zoomAndPan="magnify"><defs/><g><ellipse cx="172.75" cy="20" fill="#222222" rx="10" ry="10" style="stroke:#222222;stroke-width:1.0;"/><rect fill="#F1F1F1" height="35.9609" rx="12.5" ry="12.5" style="stroke:#181818;stroke-width:0.5;" width="156" x="94.75" y="50"/><text fill="#000000" font-family="sans-serif" font-size="12" lengthAdjust="spacing" textLength="136" x="104.75" y="72.9492">Forgot Password Screen</text><rect fill="#F1F1F1" height="35.9609" rx="12.5" ry="12.5" style="stroke:#181818;stroke-width:0.5;" width="119" x="113.25" y="105.9609"/><text fill="#000000" font-family="sans-serif" font-size="12" lengthAdjust="spacing" textLength="99" x="123.25" y="128.9102">User enters email</text><polygon fill="#F1F1F1" points="141.75,161.9219,203.75,161.9219,215.75,173.9219,203.75,185.9219,141.75,185.9219,129.75,173.9219,141.75,161.9219" style="stroke:#181818;stroke-width:0.5;"/><text fill="#000000" font-family="sans-serif" font-size="11" lengthAdjust="spacing" textLength="62" x="141.75" y="178.4766">Email exists?</text><text fill="#000000" font-family="sans-serif" font-size="11" lengthAdjust="spacing" textLength="20" x="109.75" y="171.1611">Yes</text><text fill="#000000" font-family="sans-serif" font-size="11" lengthAdjust="spacing" textLength="13" x="215.75" y="171.1611">No</text><rect fill="#F1F1F1" height="35.9609" rx="12.5" ry="12.5" style="stroke:#181818;stroke-width:0.5;" width="114" x="32.5" y="195.9219"/><text fill="#000000" font-family="sans-serif" font-size="12" lengthAdjust="spacing" textLength="94" x="42.5" y="218.8711">Send reset email</text><rect fill="#F1F1F1" height="35.9609" rx="12.5" ry="12.5" style="stroke:#181818;stroke-width:0.5;" width="157" x="11" y="251.8828"/><text fill="#000000" font-family="sans-serif" font-size="12" lengthAdjust="spacing" textLength="137" x="21" y="274.832">Show success message</text><rect fill="#F1F1F1" height="35.9609" rx="12.5" ry="12.5" style="stroke:#181818;stroke-width:0.5;" width="136" x="188" y="195.9219"/><text fill="#000000" font-family="sans-serif" font-size="12" lengthAdjust="spacing" textLength="116" x="198" y="218.8711">Show error message</text><polygon fill="#F1F1F1" points="172.75,293.8438,184.75,305.8438,172.75,317.8438,160.75,305.8438,172.75,293.8438" style="stroke:#181818;stroke-width:0.5;"/><ellipse cx="172.75" cy="348.8438" fill="none" rx="11" ry="11" style="stroke:#222222;stroke-width:1.0;"/><ellipse cx="172.75" cy="348.8438" fill="#222222" rx="6" ry="6" style="stroke:#222222;stroke-width:1.0;"/><line style="stroke:#181818;stroke-width:1.0;" x1="172.75" x2="172.75" y1="30" y2="50"/><polygon fill="#181818" points="168.75,40,172.75,50,176.75,40,172.75,44" style="stroke:#181818;stroke-width:1.0;"/><line style="stroke:#181818;stroke-width:1.0;" x1="172.75" x2="172.75" y1="85.9609" y2="105.9609"/><polygon fill="#181818" points="168.75,95.9609,172.75,105.9609,176.75,95.9609,172.75,99.9609" style="stroke:#181818;stroke-width:1.0;"/><line style="stroke:#181818;stroke-width:1.0;" x1="89.5" x2="89.5" y1="231.8828" y2="251.8828"/><polygon fill="#181818" points="85.5,241.8828,89.5,251.8828,93.5,241.8828,89.5,245.8828" style="stroke:#181818;stroke-width:1.0;"/><line style="stroke:#181818;stroke-width:1.0;" x1="129.75" x2="89.5" y1="173.9219" y2="173.9219"/><line style="stroke:#181818;stroke-width:1.0;" x1="89.5" x2="89.5" y1="173.9219" y2="195.9219"/><polygon fill="#181818" points="85.5,185.9219,89.5,195.9219,93.5,185.9219,89.5,189.9219" style="stroke:#181818;stroke-width:1.0;"/><line style="stroke:#181818;stroke-width:1.0;" x1="215.75" x2="256" y1="173.9219" y2="173.9219"/><line style="stroke:#181818;stroke-width:1.0;" x1="256" x2="256" y1="173.9219" y2="195.9219"/><polygon fill="#181818" points="252,185.9219,256,195.9219,260,185.9219,256,189.9219" style="stroke:#181818;stroke-width:1.0;"/><line style="stroke:#181818;stroke-width:1.0;" x1="89.5" x2="89.5" y1="287.8438" y2="305.8438"/><line style="stroke:#181818;stroke-width:1.0;" x1="89.5" x2="160.75" y1="305.8438" y2="305.8438"/><polygon fill="#181818" points="150.75,301.8438,160.75,305.8438,150.75,309.8438,154.75,305.8438" style="stroke:#181818;stroke-width:1.0;"/><line style="stroke:#181818;stroke-width:1.0;" x1="256" x2="256" y1="231.8828" y2="305.8438"/><line style="stroke:#181818;stroke-width:1.0;" x1="256" x2="184.75" y1="305.8438" y2="305.8438"/><polygon fill="#181818" points="194.75,301.8438,184.75,305.8438,194.75,309.8438,190.75,305.8438" style="stroke:#181818;stroke-width:1.0;"/><line style="stroke:#181818;stroke-width:1.0;" x1="172.75" x2="172.75" y1="141.9219" y2="161.9219"/><polygon fill="#181818" points="168.75,151.9219,172.75,161.9219,176.75,151.9219,172.75,155.9219" style="stroke:#181818;stroke-width:1.0;"/><line style="stroke:#181818;stroke-width:1.0;" x1="172.75" x2="172.75" y1="317.8438" y2="337.8438"/><polygon fill="#181818" points="168.75,327.8438,172.75,337.8438,176.75,327.8438,172.75,331.8438" style="stroke:#181818;stroke-width:1.0;"/><!--SRC=[JOin3e9054JxFSMKS0KehBGq9iJ2SWC3R0AxviytS7obqDXCNbxUoADvQ2x5fkAuHMahDg3hZSnjQEwYWTbf0jUObZQa4TNvG71FSfrg-CoCwa7L0MWwvW56qR-NGyvbWrvzJmdhP-B4Dd0HKLrB_KjeLkmlo4CQWxmytm00]--></g></svg>