<?xml version="1.0" encoding="us-ascii" standalone="no"?><svg xmlns="http://www.w3.org/2000/svg" xmlns:xlink="http://www.w3.org/1999/xlink" contentStyleType="text/css" height="234px" preserveAspectRatio="none" style="width:316px;height:234px;background:#FFFFFF;" version="1.1" viewBox="0 0 316 234" width="316px" zoomAndPan="magnify"><defs/><g><line style="stroke:#181818;stroke-width:0.5;stroke-dasharray:5.0,5.0;" x1="35" x2="35" y1="38.6211" y2="196.7852"/><line style="stroke:#181818;stroke-width:0.5;stroke-dasharray:5.0,5.0;" x1="110" x2="110" y1="38.6211" y2="196.7852"/><line style="stroke:#181818;stroke-width:0.5;stroke-dasharray:5.0,5.0;" x1="257.5" x2="257.5" y1="38.6211" y2="196.7852"/><rect fill="#E2E2F0" height="32.6211" rx="2.5" ry="2.5" style="stroke:#181818;stroke-width:0.5;" width="60" x="5" y="5"/><text fill="#000000" font-family="sans-serif" font-size="14" lengthAdjust="spacing" textLength="46" x="12" y="27.1074">Sender</text><rect fill="#E2E2F0" height="32.6211" rx="2.5" ry="2.5" style="stroke:#181818;stroke-width:0.5;" width="60" x="5" y="195.7852"/><text fill="#000000" font-family="sans-serif" font-size="14" lengthAdjust="spacing" textLength="46" x="12" y="217.8926">Sender</text><rect fill="#E2E2F0" height="32.6211" rx="2.5" ry="2.5" style="stroke:#181818;stroke-width:0.5;" width="70" x="75" y="5"/><text fill="#000000" font-family="sans-serif" font-size="14" lengthAdjust="spacing" textLength="56" x="82" y="27.1074">Receiver</text><rect fill="#E2E2F0" height="32.6211" rx="2.5" ry="2.5" style="stroke:#181818;stroke-width:0.5;" width="70" x="75" y="195.7852"/><text fill="#000000" font-family="sans-serif" font-size="14" lengthAdjust="spacing" textLength="56" x="82" y="217.8926">Receiver</text><rect fill="#E2E2F0" height="32.6211" rx="2.5" ry="2.5" style="stroke:#181818;stroke-width:0.5;" width="105" x="205.5" y="5"/><text fill="#000000" font-family="sans-serif" font-size="14" lengthAdjust="spacing" textLength="91" x="212.5" y="27.1074">Cloud Storage</text><rect fill="#E2E2F0" height="32.6211" rx="2.5" ry="2.5" style="stroke:#181818;stroke-width:0.5;" width="105" x="205.5" y="195.7852"/><text fill="#000000" font-family="sans-serif" font-size="14" lengthAdjust="spacing" textLength="91" x="212.5" y="217.8926">Cloud Storage</text><polygon fill="#181818" points="246,67.9121,256,71.9121,246,75.9121,250,71.9121" style="stroke:#181818;stroke-width:1.0;"/><line style="stroke:#181818;stroke-width:1.0;" x1="35" x2="252" y1="71.9121" y2="71.9121"/><text fill="#000000" font-family="sans-serif" font-size="13" lengthAdjust="spacing" textLength="150" x="42" y="66.6494">Upload media (Encrypted)</text><polygon fill="#181818" points="121,99.2031,111,103.2031,121,107.2031,117,103.2031" style="stroke:#181818;stroke-width:1.0;"/><line style="stroke:#181818;stroke-width:1.0;" x1="115" x2="257" y1="103.2031" y2="103.2031"/><text fill="#000000" font-family="sans-serif" font-size="13" lengthAdjust="spacing" textLength="124" x="127" y="97.9404">Provide download link</text><polygon fill="#181818" points="246,130.4941,256,134.4941,246,138.4941,250,134.4941" style="stroke:#181818;stroke-width:1.0;"/><line style="stroke:#181818;stroke-width:1.0;" x1="110" x2="252" y1="134.4941" y2="134.4941"/><text fill="#000000" font-family="sans-serif" font-size="13" lengthAdjust="spacing" textLength="95" x="117" y="129.2314">Download media</text><line style="stroke:#181818;stroke-width:1.0;" x1="110" x2="152" y1="165.7852" y2="165.7852"/><line style="stroke:#181818;stroke-width:1.0;" x1="152" x2="152" y1="165.7852" y2="178.7852"/><line style="stroke:#181818;stroke-width:1.0;" x1="111" x2="152" y1="178.7852" y2="178.7852"/><polygon fill="#181818" points="121,174.7852,111,178.7852,121,182.7852,117,178.7852" style="stroke:#181818;stroke-width:1.0;"/><text fill="#000000" font-family="sans-serif" font-size="13" lengthAdjust="spacing" textLength="84" x="117" y="160.5225">Decrypt media</text><!--SRC=[NOqn3i8m34NtdCBg10CNwC12sH4L1x1Y2ra4EmgXYDiZKYmec_Nz_liPIvKe6RN2o4fSGlw9ZXnPfh-msoMx4upL2fwv0xpv7SBiWCtMenvEEHaIN9a4ORNNM9wvCgt3XtZ3ljF3eTWan43sqDPBefVW_uLuSAIf5ypNDt3RcvaN]--></g></svg>