<?xml version="1.0" encoding="us-ascii" standalone="no"?><svg xmlns="http://www.w3.org/2000/svg" xmlns:xlink="http://www.w3.org/1999/xlink" contentStyleType="text/css" height="444px" preserveAspectRatio="none" style="width:614px;height:444px;background:#FFFFFF;" version="1.1" viewBox="0 0 614 444" width="614px" zoomAndPan="magnify"><defs/><g><line style="stroke:#181818;stroke-width:0.5;stroke-dasharray:5.0,5.0;" x1="31" x2="31" y1="83.6211" y2="361.6582"/><line style="stroke:#181818;stroke-width:0.5;stroke-dasharray:5.0,5.0;" x1="203" x2="203" y1="83.6211" y2="361.6582"/><line style="stroke:#181818;stroke-width:0.5;stroke-dasharray:5.0,5.0;" x1="309" x2="309" y1="83.6211" y2="361.6582"/><line style="stroke:#181818;stroke-width:0.5;stroke-dasharray:5.0,5.0;" x1="498.5" x2="498.5" y1="83.6211" y2="361.6582"/><text fill="#000000" font-family="sans-serif" font-size="14" lengthAdjust="spacing" textLength="46" x="5" y="80.1074">Sender</text><ellipse cx="31" cy="13.5" fill="#E2E2F0" rx="8" ry="8" style="stroke:#181818;stroke-width:0.5;"/><path d="M31,21.5 L31,48.5 M18,29.5 L44,29.5 M31,48.5 L18,63.5 M31,48.5 L44,63.5 " fill="none" style="stroke:#181818;stroke-width:0.5;"/><text fill="#000000" font-family="sans-serif" font-size="14" lengthAdjust="spacing" textLength="46" x="5" y="375.7656">Sender</text><ellipse cx="31" cy="387.7793" fill="#E2E2F0" rx="8" ry="8" style="stroke:#181818;stroke-width:0.5;"/><path d="M31,395.7793 L31,422.7793 M18,403.7793 L44,403.7793 M31,422.7793 L18,437.7793 M31,422.7793 L44,437.7793 " fill="none" style="stroke:#181818;stroke-width:0.5;"/><text fill="#000000" font-family="sans-serif" font-size="14" lengthAdjust="spacing" textLength="56" x="172" y="80.1074">Receiver</text><ellipse cx="203" cy="13.5" fill="#E2E2F0" rx="8" ry="8" style="stroke:#181818;stroke-width:0.5;"/><path d="M203,21.5 L203,48.5 M190,29.5 L216,29.5 M203,48.5 L190,63.5 M203,48.5 L216,63.5 " fill="none" style="stroke:#181818;stroke-width:0.5;"/><text fill="#000000" font-family="sans-serif" font-size="14" lengthAdjust="spacing" textLength="56" x="172" y="375.7656">Receiver</text><ellipse cx="203" cy="387.7793" fill="#E2E2F0" rx="8" ry="8" style="stroke:#181818;stroke-width:0.5;"/><path d="M203,395.7793 L203,422.7793 M190,403.7793 L216,403.7793 M203,422.7793 L190,437.7793 M203,422.7793 L216,437.7793 " fill="none" style="stroke:#181818;stroke-width:0.5;"/><rect fill="#E2E2F0" height="32.6211" rx="2.5" ry="2.5" style="stroke:#181818;stroke-width:0.5;" width="131" x="244" y="50"/><text fill="#000000" font-family="sans-serif" font-size="14" lengthAdjust="spacing" textLength="117" x="251" y="72.1074">Encryption Module</text><rect fill="#E2E2F0" height="32.6211" rx="2.5" ry="2.5" style="stroke:#181818;stroke-width:0.5;" width="131" x="244" y="360.6582"/><text fill="#000000" font-family="sans-serif" font-size="14" lengthAdjust="spacing" textLength="117" x="251" y="382.7656">Encryption Module</text><rect fill="#E2E2F0" height="32.6211" rx="2.5" ry="2.5" style="stroke:#181818;stroke-width:0.5;" width="132" x="432.5" y="50"/><text fill="#000000" font-family="sans-serif" font-size="14" lengthAdjust="spacing" textLength="118" x="439.5" y="72.1074">Decryption Module</text><rect fill="#E2E2F0" height="32.6211" rx="2.5" ry="2.5" style="stroke:#181818;stroke-width:0.5;" width="132" x="432.5" y="360.6582"/><text fill="#000000" font-family="sans-serif" font-size="14" lengthAdjust="spacing" textLength="118" x="439.5" y="382.7656">Decryption Module</text><polygon fill="#181818" points="297.5,112.9121,307.5,116.9121,297.5,120.9121,301.5,116.9121" style="stroke:#181818;stroke-width:1.0;"/><line style="stroke:#181818;stroke-width:1.0;" x1="31" x2="303.5" y1="116.9121" y2="116.9121"/><text fill="#000000" font-family="sans-serif" font-size="13" lengthAdjust="spacing" textLength="112" x="38" y="111.6494">Compose message</text><line style="stroke:#181818;stroke-width:1.0;" x1="309.5" x2="351.5" y1="148.2031" y2="148.2031"/><line style="stroke:#181818;stroke-width:1.0;" x1="351.5" x2="351.5" y1="148.2031" y2="161.2031"/><line style="stroke:#181818;stroke-width:1.0;" x1="310.5" x2="351.5" y1="161.2031" y2="161.2031"/><polygon fill="#181818" points="320.5,157.2031,310.5,161.2031,320.5,165.2031,316.5,161.2031" style="stroke:#181818;stroke-width:1.0;"/><text fill="#000000" font-family="sans-serif" font-size="13" lengthAdjust="spacing" textLength="127" x="316.5" y="142.9404">Generate session key</text><polygon fill="#181818" points="486.5,188.4941,496.5,192.4941,486.5,196.4941,490.5,192.4941" style="stroke:#181818;stroke-width:1.0;"/><line style="stroke:#181818;stroke-width:1.0;" x1="309.5" x2="492.5" y1="192.4941" y2="192.4941"/><text fill="#000000" font-family="sans-serif" font-size="13" lengthAdjust="spacing" textLength="165" x="316.5" y="187.2314">Send encrypted session key</text><polygon fill="#181818" points="191,219.7852,201,223.7852,191,227.7852,195,223.7852" style="stroke:#181818;stroke-width:1.0;"/><line style="stroke:#181818;stroke-width:1.0;" x1="31" x2="197" y1="223.7852" y2="223.7852"/><text fill="#000000" font-family="sans-serif" font-size="13" lengthAdjust="spacing" textLength="148" x="38" y="218.5225">Send encrypted message</text><polygon fill="#181818" points="486.5,251.0762,496.5,255.0762,486.5,259.0762,490.5,255.0762" style="stroke:#181818;stroke-width:1.0;"/><line style="stroke:#181818;stroke-width:1.0;" x1="203" x2="492.5" y1="255.0762" y2="255.0762"/><text fill="#000000" font-family="sans-serif" font-size="13" lengthAdjust="spacing" textLength="119" x="210" y="249.8135">Decrypt session key</text><line style="stroke:#181818;stroke-width:1.0;" x1="498.5" x2="540.5" y1="286.3672" y2="286.3672"/><line style="stroke:#181818;stroke-width:1.0;" x1="540.5" x2="540.5" y1="286.3672" y2="299.3672"/><line style="stroke:#181818;stroke-width:1.0;" x1="499.5" x2="540.5" y1="299.3672" y2="299.3672"/><polygon fill="#181818" points="509.5,295.3672,499.5,299.3672,509.5,303.3672,505.5,299.3672" style="stroke:#181818;stroke-width:1.0;"/><text fill="#000000" font-family="sans-serif" font-size="13" lengthAdjust="spacing" textLength="102" x="505.5" y="281.1045">Decrypt message</text><line style="stroke:#181818;stroke-width:1.0;" x1="203" x2="245" y1="330.6582" y2="330.6582"/><line style="stroke:#181818;stroke-width:1.0;" x1="245" x2="245" y1="330.6582" y2="343.6582"/><line style="stroke:#181818;stroke-width:1.0;" x1="204" x2="245" y1="343.6582" y2="343.6582"/><polygon fill="#181818" points="214,339.6582,204,343.6582,214,347.6582,210,343.6582" style="stroke:#181818;stroke-width:1.0;"/><text fill="#000000" font-family="sans-serif" font-size="13" lengthAdjust="spacing" textLength="85" x="210" y="325.3955">View message</text><!--SRC=[RO-n3i8m34JtV8NLdH_em0A8YGKaTYiveGYQH4a0zUyfRQmIaSq-Fz_PhBEFT84pY8hdvWmD-vhQm35RRGExJDt1wJY6RBsZapVF1phYH4MjqJrQQ56LMi9eivNjddP-23w11gJ4DwWog9WZ729dK9gWh_STuozO_Flv6S8oWAdmDLgU_CFb104gwr9KdgArk9RPcdorU0lo0G00]--></g></svg>