<?xml version="1.0" encoding="us-ascii" standalone="no"?><svg xmlns="http://www.w3.org/2000/svg" xmlns:xlink="http://www.w3.org/1999/xlink" contentStyleType="text/css" height="476px" preserveAspectRatio="none" style="width:1039px;height:476px;background:#FFFFFF;" version="1.1" viewBox="0 0 1039 476" width="1039px" zoomAndPan="magnify"><defs/><g><!--cluster Frontend--><g id="cluster_Frontend"><path d="M424.5,6.0137 L490.5,6.0137 A3.75,3.75 0 0 1 493,8.5137 L500,30.6348 L694.5,30.6348 A2.5,2.5 0 0 1 697,33.1348 L697,214.5137 A2.5,2.5 0 0 1 694.5,217.0137 L424.5,217.0137 A2.5,2.5 0 0 1 422,214.5137 L422,8.5137 A2.5,2.5 0 0 1 424.5,6.0137 " fill="none" style="stroke:#000000;stroke-width:1.5;"/><line style="stroke:#000000;stroke-width:1.5;" x1="422" x2="500" y1="30.6348" y2="30.6348"/><text fill="#000000" font-family="sans-serif" font-size="14" font-weight="bold" lengthAdjust="spacing" textLength="65" x="426" y="23.1211">Frontend</text></g><!--cluster Backend--><g id="cluster_Backend"><path d="M8.5,241.0137 L70.5,241.0137 A3.75,3.75 0 0 1 73,243.5137 L80,265.6348 L663.5,265.6348 A2.5,2.5 0 0 1 666,268.1348 L666,340.5137 A2.5,2.5 0 0 1 663.5,343.0137 L8.5,343.0137 A2.5,2.5 0 0 1 6,340.5137 L6,243.5137 A2.5,2.5 0 0 1 8.5,241.0137 " fill="none" style="stroke:#000000;stroke-width:1.5;"/><line style="stroke:#000000;stroke-width:1.5;" x1="6" x2="80" y1="265.6348" y2="265.6348"/><text fill="#000000" font-family="sans-serif" font-size="14" font-weight="bold" lengthAdjust="spacing" textLength="61" x="10" y="258.1211">Backend</text></g><!--cluster Database--><g id="cluster_Database"><path d="M692.5,241.0137 L758.5,241.0137 A3.75,3.75 0 0 1 761,243.5137 L768,265.6348 L1029.5,265.6348 A2.5,2.5 0 0 1 1032,268.1348 L1032,340.5137 A2.5,2.5 0 0 1 1029.5,343.0137 L692.5,343.0137 A2.5,2.5 0 0 1 690,340.5137 L690,243.5137 A2.5,2.5 0 0 1 692.5,241.0137 " fill="none" style="stroke:#000000;stroke-width:1.5;"/><line style="stroke:#000000;stroke-width:1.5;" x1="690" x2="768" y1="265.6348" y2="265.6348"/><text fill="#000000" font-family="sans-serif" font-size="14" font-weight="bold" lengthAdjust="spacing" textLength="65" x="694" y="258.1211">Database</text></g><!--cluster External Services--><g id="cluster_External Services"><path d="M120.5,367.0137 L245.5,367.0137 A3.75,3.75 0 0 1 248,369.5137 L255,391.6348 L568.5,391.6348 A2.5,2.5 0 0 1 571,394.1348 L571,466.5137 A2.5,2.5 0 0 1 568.5,469.0137 L120.5,469.0137 A2.5,2.5 0 0 1 118,466.5137 L118,369.5137 A2.5,2.5 0 0 1 120.5,367.0137 " fill="none" style="stroke:#000000;stroke-width:1.5;"/><line style="stroke:#000000;stroke-width:1.5;" x1="118" x2="255" y1="391.6348" y2="391.6348"/><text fill="#000000" font-family="sans-serif" font-size="14" font-weight="bold" lengthAdjust="spacing" textLength="124" x="122" y="384.1211">External Services</text></g><!--entity Mobile App--><g id="elem_Mobile App"><rect fill="#F1F1F1" height="48.6211" rx="2.5" ry="2.5" style="stroke:#181818;stroke-width:0.5;" width="110" x="571" y="43.0137"/><rect fill="#F1F1F1" height="10" style="stroke:#181818;stroke-width:0.5;" width="15" x="661" y="48.0137"/><rect fill="#F1F1F1" height="2" style="stroke:#181818;stroke-width:0.5;" width="4" x="659" y="50.0137"/><rect fill="#F1F1F1" height="2" style="stroke:#181818;stroke-width:0.5;" width="4" x="659" y="54.0137"/><text fill="#000000" font-family="sans-serif" font-size="14" lengthAdjust="spacing" textLength="70" x="586" y="78.1211">Mobile App</text></g><!--entity Backend API--><g id="elem_Backend API"><rect fill="#F1F1F1" height="48.6211" rx="2.5" ry="2.5" style="stroke:#181818;stroke-width:0.5;" width="120" x="499" y="152.0137"/><rect fill="#F1F1F1" height="10" style="stroke:#181818;stroke-width:0.5;" width="15" x="599" y="157.0137"/><rect fill="#F1F1F1" height="2" style="stroke:#181818;stroke-width:0.5;" width="4" x="597" y="159.0137"/><rect fill="#F1F1F1" height="2" style="stroke:#181818;stroke-width:0.5;" width="4" x="597" y="163.0137"/><text fill="#000000" font-family="sans-serif" font-size="14" lengthAdjust="spacing" textLength="80" x="514" y="187.1211">Backend API</text></g><!--entity Web App--><g id="elem_Web App"><rect fill="#F1F1F1" height="48.6211" rx="2.5" ry="2.5" style="stroke:#181818;stroke-width:0.5;" width="98" x="438" y="43.0137"/><rect fill="#F1F1F1" height="10" style="stroke:#181818;stroke-width:0.5;" width="15" x="516" y="48.0137"/><rect fill="#F1F1F1" height="2" style="stroke:#181818;stroke-width:0.5;" width="4" x="514" y="50.0137"/><rect fill="#F1F1F1" height="2" style="stroke:#181818;stroke-width:0.5;" width="4" x="514" y="54.0137"/><text fill="#000000" font-family="sans-serif" font-size="14" lengthAdjust="spacing" textLength="58" x="453" y="78.1211">Web App</text></g><!--entity Authentication Service--><g id="elem_Authentication Service"><rect fill="#F1F1F1" height="48.6211" rx="2.5" ry="2.5" style="stroke:#181818;stroke-width:0.5;" width="181" x="468.5" y="278.0137"/><rect fill="#F1F1F1" height="10" style="stroke:#181818;stroke-width:0.5;" width="15" x="629.5" y="283.0137"/><rect fill="#F1F1F1" height="2" style="stroke:#181818;stroke-width:0.5;" width="4" x="627.5" y="285.0137"/><rect fill="#F1F1F1" height="2" style="stroke:#181818;stroke-width:0.5;" width="4" x="627.5" y="289.0137"/><text fill="#000000" font-family="sans-serif" font-size="14" lengthAdjust="spacing" textLength="141" x="483.5" y="313.1211">Authentication Service</text></g><!--entity Database Service--><g id="elem_Database Service"><rect fill="#F1F1F1" height="48.6211" rx="2.5" ry="2.5" style="stroke:#181818;stroke-width:0.5;" width="152" x="281" y="278.0137"/><rect fill="#F1F1F1" height="10" style="stroke:#181818;stroke-width:0.5;" width="15" x="413" y="283.0137"/><rect fill="#F1F1F1" height="2" style="stroke:#181818;stroke-width:0.5;" width="4" x="411" y="285.0137"/><rect fill="#F1F1F1" height="2" style="stroke:#181818;stroke-width:0.5;" width="4" x="411" y="289.0137"/><text fill="#000000" font-family="sans-serif" font-size="14" lengthAdjust="spacing" textLength="112" x="296" y="313.1211">Database Service</text></g><!--entity Real-time Messaging Service--><g id="elem_Real-time Messaging Service"><rect fill="#F1F1F1" height="48.6211" rx="2.5" ry="2.5" style="stroke:#181818;stroke-width:0.5;" width="223" x="22.5" y="278.0137"/><rect fill="#F1F1F1" height="10" style="stroke:#181818;stroke-width:0.5;" width="15" x="225.5" y="283.0137"/><rect fill="#F1F1F1" height="2" style="stroke:#181818;stroke-width:0.5;" width="4" x="223.5" y="285.0137"/><rect fill="#F1F1F1" height="2" style="stroke:#181818;stroke-width:0.5;" width="4" x="223.5" y="289.0137"/><text fill="#000000" font-family="sans-serif" font-size="14" lengthAdjust="spacing" textLength="183" x="37.5" y="313.1211">Real-time Messaging Service</text></g><!--entity PostgreSQL--><g id="elem_PostgreSQL"><rect fill="#F1F1F1" height="48.6211" rx="2.5" ry="2.5" style="stroke:#181818;stroke-width:0.5;" width="117" x="898.5" y="278.0137"/><rect fill="#F1F1F1" height="10" style="stroke:#181818;stroke-width:0.5;" width="15" x="995.5" y="283.0137"/><rect fill="#F1F1F1" height="2" style="stroke:#181818;stroke-width:0.5;" width="4" x="993.5" y="285.0137"/><rect fill="#F1F1F1" height="2" style="stroke:#181818;stroke-width:0.5;" width="4" x="993.5" y="289.0137"/><text fill="#000000" font-family="sans-serif" font-size="14" lengthAdjust="spacing" textLength="77" x="913.5" y="313.1211">PostgreSQL</text></g><!--entity Firebase Firestore--><g id="elem_Firebase Firestore"><rect fill="#F1F1F1" height="48.6211" rx="2.5" ry="2.5" style="stroke:#181818;stroke-width:0.5;" width="157" x="706.5" y="278.0137"/><rect fill="#F1F1F1" height="10" style="stroke:#181818;stroke-width:0.5;" width="15" x="843.5" y="283.0137"/><rect fill="#F1F1F1" height="2" style="stroke:#181818;stroke-width:0.5;" width="4" x="841.5" y="285.0137"/><rect fill="#F1F1F1" height="2" style="stroke:#181818;stroke-width:0.5;" width="4" x="841.5" y="289.0137"/><text fill="#000000" font-family="sans-serif" font-size="14" lengthAdjust="spacing" textLength="117" x="721.5" y="313.1211">Firebase Firestore</text></g><!--entity Firebase Authentication--><g id="elem_Firebase Authentication"><rect fill="#F1F1F1" height="48.6211" rx="2.5" ry="2.5" style="stroke:#181818;stroke-width:0.5;" width="190" x="365" y="404.0137"/><rect fill="#F1F1F1" height="10" style="stroke:#181818;stroke-width:0.5;" width="15" x="535" y="409.0137"/><rect fill="#F1F1F1" height="2" style="stroke:#181818;stroke-width:0.5;" width="4" x="533" y="411.0137"/><rect fill="#F1F1F1" height="2" style="stroke:#181818;stroke-width:0.5;" width="4" x="533" y="415.0137"/><text fill="#000000" font-family="sans-serif" font-size="14" lengthAdjust="spacing" textLength="150" x="380" y="439.1211">Firebase Authentication</text></g><!--entity Push Notification Service--><g id="elem_Push Notification Service"><rect fill="#F1F1F1" height="48.6211" rx="2.5" ry="2.5" style="stroke:#181818;stroke-width:0.5;" width="196" x="134" y="404.0137"/><rect fill="#F1F1F1" height="10" style="stroke:#181818;stroke-width:0.5;" width="15" x="310" y="409.0137"/><rect fill="#F1F1F1" height="2" style="stroke:#181818;stroke-width:0.5;" width="4" x="308" y="411.0137"/><rect fill="#F1F1F1" height="2" style="stroke:#181818;stroke-width:0.5;" width="4" x="308" y="415.0137"/><text fill="#000000" font-family="sans-serif" font-size="14" lengthAdjust="spacing" textLength="156" x="149" y="439.1211">Push Notification Service</text></g><!--link Mobile App to Backend API--><g id="link_Mobile App_Backend API"><path d="M611.13,92.2637 C600.03,109.9937 588.1031,129.0276 577.0131,146.7476 " fill="none" id="Mobile App-to-Backend API" style="stroke:#181818;stroke-width:1.0;"/><polygon fill="#181818" points="573.83,151.8337,581.9953,146.3267,576.4826,147.5953,575.2139,142.0825,573.83,151.8337" style="stroke:#181818;stroke-width:1.0;"/></g><!--link Web App to Backend API--><g id="link_Web App_Backend API"><path d="M502.98,92.2637 C514.91,109.9937 527.7891,129.1365 539.7191,146.8565 " fill="none" id="Web App-to-Backend API" style="stroke:#181818;stroke-width:1.0;"/><polygon fill="#181818" points="543.07,151.8337,541.3618,142.1341,540.2776,147.6861,534.7256,146.6019,543.07,151.8337" style="stroke:#181818;stroke-width:1.0;"/></g><!--link Backend API to Authentication Service--><g id="link_Backend API_Authentication Service"><path d="M559,201.1337 C559,223.1937 559,249.9537 559,271.9837 " fill="none" id="Backend API-to-Authentication Service" style="stroke:#181818;stroke-width:1.0;"/><polygon fill="#181818" points="559,277.9837,563,268.9837,559,272.9837,555,268.9837,559,277.9837" style="stroke:#181818;stroke-width:1.0;"/></g><!--link Backend API to Database Service--><g id="link_Backend API_Database Service"><path d="M509.19,201.0837 C490.58,210.4137 469.49,221.6237 451,233.0137 C428.82,246.6737 409.8978,260.3211 391.8478,274.1111 " fill="none" id="Backend API-to-Database Service" style="stroke:#181818;stroke-width:1.0;"/><polygon fill="#181818" points="387.08,277.7537,396.6601,275.4684,391.0532,274.7182,391.8033,269.1113,387.08,277.7537" style="stroke:#181818;stroke-width:1.0;"/></g><!--link Backend API to Real-time Messaging Service--><g id="link_Backend API_Real-time Messaging Service"><path d="M498.88,183.4937 C438.29,190.7437 342.73,205.5637 264,233.0137 C231.24,244.4337 201.7645,259.9995 176.4845,274.9495 " fill="none" id="Backend API-to-Real-time Messaging Service" style="stroke:#181818;stroke-width:1.0;"/><polygon fill="#181818" points="171.32,278.0037,181.1029,276.8654,175.6238,275.4585,177.0306,269.9794,171.32,278.0037" style="stroke:#181818;stroke-width:1.0;"/></g><!--link Backend API to PostgreSQL--><g id="link_Backend API_PostgreSQL"><path d="M619,178.0137 C686.05,180.7537 796.29,191.8737 881,233.0137 C902.89,243.6437 919.0514,258.1039 933.1214,273.3539 " fill="none" id="Backend API-to-PostgreSQL" style="stroke:#181818;stroke-width:1.0;"/><polygon fill="#181818" points="937.19,277.7637,934.027,268.4365,933.7995,274.0888,928.1472,273.8613,937.19,277.7637" style="stroke:#181818;stroke-width:1.0;"/></g><!--link Backend API to Firebase Firestore--><g id="link_Backend API_Firebase Firestore"><path d="M605.58,201.1137 C624.44,210.8137 646.35,222.2737 666,233.0137 C692.56,247.5337 716.8778,261.4896 739.8578,274.8996 " fill="none" id="Backend API-to-Firebase Firestore" style="stroke:#181818;stroke-width:1.0;"/><polygon fill="#181818" points="745.04,277.9237,739.2828,269.9328,740.7215,275.4036,735.2507,276.8424,745.04,277.9237" style="stroke:#181818;stroke-width:1.0;"/></g><!--link Authentication Service to Firebase Authentication--><g id="link_Authentication Service_Firebase Authentication"><path d="M540.15,327.1337 C522.53,349.1937 500.1251,377.266 482.5251,399.296 " fill="none" id="Authentication Service-to-Firebase Authentication" style="stroke:#181818;stroke-width:1.0;"/><polygon fill="#181818" points="478.78,403.9837,487.5227,399.4488,481.9009,400.0773,481.2724,394.4554,478.78,403.9837" style="stroke:#181818;stroke-width:1.0;"/></g><!--link Real-time Messaging Service to Push Notification Service--><g id="link_Real-time Messaging Service_Push Notification Service"><path d="M152.66,327.1337 C170.1,349.1937 192.2685,377.2473 209.6885,399.2773 " fill="none" id="Real-time Messaging Service-to-Push Notification Service" style="stroke:#181818;stroke-width:1.0;"/><polygon fill="#181818" points="213.41,403.9837,210.9653,394.4431,210.3087,400.0617,204.6901,399.4051,213.41,403.9837" style="stroke:#181818;stroke-width:1.0;"/></g><!--SRC=[XP3D2e904CVlFiNWtLS8Z0g22ij3X_0msgHBjYkxOmJHkwUrbfdMROV_n_vc2aoEc1AuCwqaazoxS7K0TaiLYvp0Bue8F6y4kt5bh6JmWtbK6xOK3watnocQMYlOrhRj6VHBpaYoI925aX2IFek4edxp11bZDFJ7jY7CFHOdWYKPWwcGwJlHXclwB5sW3AUQmlKYWdgU2KsFx-g7OQKxyUc5IKlCct9ZUrwvp-KUj45fCbWf5eUlbQlgdcLQK7ro7-FGKJk9BjtFkrcOGVex]--></g></svg>