<?xml version="1.0" encoding="us-ascii" standalone="no"?><svg xmlns="http://www.w3.org/2000/svg" xmlns:xlink="http://www.w3.org/1999/xlink" contentStyleType="text/css" height="434px" preserveAspectRatio="none" style="width:554px;height:434px;background:#FFFFFF;" version="1.1" viewBox="0 0 554 434" width="554px" zoomAndPan="magnify"><defs/><g><ellipse cx="229.5" cy="20" fill="#222222" rx="10" ry="10" style="stroke:#222222;stroke-width:1.0;"/><rect fill="#F1F1F1" height="35.9609" rx="12.5" ry="12.5" style="stroke:#181818;stroke-width:0.5;" width="101" x="179" y="50"/><text fill="#000000" font-family="sans-serif" font-size="12" lengthAdjust="spacing" textLength="81" x="189" y="72.9492">Splash Screen</text><polygon fill="#F1F1F1" points="192,105.9609,267,105.9609,279,117.9609,267,129.9609,192,129.9609,180,117.9609,192,105.9609" style="stroke:#181818;stroke-width:0.5;"/><text fill="#000000" font-family="sans-serif" font-size="11" lengthAdjust="spacing" textLength="75" x="192" y="122.5156">User logged in?</text><text fill="#000000" font-family="sans-serif" font-size="11" lengthAdjust="spacing" textLength="20" x="160" y="115.2002">Yes</text><text fill="#000000" font-family="sans-serif" font-size="11" lengthAdjust="spacing" textLength="13" x="279" y="115.2002">No</text><rect fill="#F1F1F1" height="35.9609" rx="12.5" ry="12.5" style="stroke:#181818;stroke-width:0.5;" width="158" x="11" y="139.9609"/><text fill="#000000" font-family="sans-serif" font-size="12" lengthAdjust="spacing" textLength="138" x="21" y="162.9102">Redirect to Home Screen</text><rect fill="#F1F1F1" height="35.9609" rx="12.5" ry="12.5" style="stroke:#181818;stroke-width:0.5;" width="155" x="291.5" y="139.9609"/><text fill="#000000" font-family="sans-serif" font-size="12" lengthAdjust="spacing" textLength="135" x="301.5" y="162.9102">Redirect to Login Screen</text><rect fill="#F1F1F1" height="35.9609" rx="12.5" ry="12.5" style="stroke:#181818;stroke-width:0.5;" width="201" x="268.5" y="195.9219"/><text fill="#000000" font-family="sans-serif" font-size="12" lengthAdjust="spacing" textLength="181" x="278.5" y="218.8711">User enters email and password</text><polygon fill="#F1F1F1" points="326.5,251.8828,411.5,251.8828,423.5,263.8828,411.5,275.8828,326.5,275.8828,314.5,263.8828,326.5,251.8828" style="stroke:#181818;stroke-width:0.5;"/><text fill="#000000" font-family="sans-serif" font-size="11" lengthAdjust="spacing" textLength="85" x="326.5" y="268.4375">Credentials valid?</text><text fill="#000000" font-family="sans-serif" font-size="11" lengthAdjust="spacing" textLength="20" x="294.5" y="261.1221">Yes</text><text fill="#000000" font-family="sans-serif" font-size="11" lengthAdjust="spacing" textLength="13" x="423.5" y="261.1221">No</text><rect fill="#F1F1F1" height="35.9609" rx="12.5" ry="12.5" style="stroke:#181818;stroke-width:0.5;" width="158" x="199" y="285.8828"/><text fill="#000000" font-family="sans-serif" font-size="12" lengthAdjust="spacing" textLength="138" x="209" y="308.832">Redirect to Home Screen</text><rect fill="#F1F1F1" height="35.9609" rx="12.5" ry="12.5" style="stroke:#181818;stroke-width:0.5;" width="166" x="377" y="285.8828"/><text fill="#000000" font-family="sans-serif" font-size="12" lengthAdjust="spacing" textLength="146" x="387" y="308.832">Show login error message</text><polygon fill="#F1F1F1" points="369,327.8438,381,339.8438,369,351.8438,357,339.8438,369,327.8438" style="stroke:#181818;stroke-width:0.5;"/><polygon fill="#F1F1F1" points="229.5,357.8438,241.5,369.8438,229.5,381.8438,217.5,369.8438,229.5,357.8438" style="stroke:#181818;stroke-width:0.5;"/><ellipse cx="229.5" cy="412.8438" fill="none" rx="11" ry="11" style="stroke:#222222;stroke-width:1.0;"/><ellipse cx="229.5" cy="412.8438" fill="#222222" rx="6" ry="6" style="stroke:#222222;stroke-width:1.0;"/><line style="stroke:#181818;stroke-width:1.0;" x1="229.5" x2="229.5" y1="30" y2="50"/><polygon fill="#181818" points="225.5,40,229.5,50,233.5,40,229.5,44" style="stroke:#181818;stroke-width:1.0;"/><line style="stroke:#181818;stroke-width:1.0;" x1="369" x2="369" y1="175.9219" y2="195.9219"/><polygon fill="#181818" points="365,185.9219,369,195.9219,373,185.9219,369,189.9219" style="stroke:#181818;stroke-width:1.0;"/><line style="stroke:#181818;stroke-width:1.0;" x1="314.5" x2="278" y1="263.8828" y2="263.8828"/><line style="stroke:#181818;stroke-width:1.0;" x1="278" x2="278" y1="263.8828" y2="285.8828"/><polygon fill="#181818" points="274,275.8828,278,285.8828,282,275.8828,278,279.8828" style="stroke:#181818;stroke-width:1.0;"/><line style="stroke:#181818;stroke-width:1.0;" x1="423.5" x2="460" y1="263.8828" y2="263.8828"/><line style="stroke:#181818;stroke-width:1.0;" x1="460" x2="460" y1="263.8828" y2="285.8828"/><polygon fill="#181818" points="456,275.8828,460,285.8828,464,275.8828,460,279.8828" style="stroke:#181818;stroke-width:1.0;"/><line style="stroke:#181818;stroke-width:1.0;" x1="278" x2="278" y1="321.8438" y2="339.8438"/><line style="stroke:#181818;stroke-width:1.0;" x1="278" x2="357" y1="339.8438" y2="339.8438"/><polygon fill="#181818" points="347,335.8438,357,339.8438,347,343.8438,351,339.8438" style="stroke:#181818;stroke-width:1.0;"/><line style="stroke:#181818;stroke-width:1.0;" x1="460" x2="460" y1="321.8438" y2="339.8438"/><line style="stroke:#181818;stroke-width:1.0;" x1="460" x2="381" y1="339.8438" y2="339.8438"/><polygon fill="#181818" points="391,335.8438,381,339.8438,391,343.8438,387,339.8438" style="stroke:#181818;stroke-width:1.0;"/><line style="stroke:#181818;stroke-width:1.0;" x1="369" x2="369" y1="231.8828" y2="251.8828"/><polygon fill="#181818" points="365,241.8828,369,251.8828,373,241.8828,369,245.8828" style="stroke:#181818;stroke-width:1.0;"/><line style="stroke:#181818;stroke-width:1.0;" x1="180" x2="90" y1="117.9609" y2="117.9609"/><line style="stroke:#181818;stroke-width:1.0;" x1="90" x2="90" y1="117.9609" y2="139.9609"/><polygon fill="#181818" points="86,129.9609,90,139.9609,94,129.9609,90,133.9609" style="stroke:#181818;stroke-width:1.0;"/><line style="stroke:#181818;stroke-width:1.0;" x1="279" x2="369" y1="117.9609" y2="117.9609"/><line style="stroke:#181818;stroke-width:1.0;" x1="369" x2="369" y1="117.9609" y2="139.9609"/><polygon fill="#181818" points="365,129.9609,369,139.9609,373,129.9609,369,133.9609" style="stroke:#181818;stroke-width:1.0;"/><line style="stroke:#181818;stroke-width:1.0;" x1="90" x2="90" y1="175.9219" y2="369.8438"/><line style="stroke:#181818;stroke-width:1.0;" x1="90" x2="217.5" y1="369.8438" y2="369.8438"/><polygon fill="#181818" points="207.5,365.8438,217.5,369.8438,207.5,373.8438,211.5,369.8438" style="stroke:#181818;stroke-width:1.0;"/><line style="stroke:#181818;stroke-width:1.0;" x1="369" x2="369" y1="351.8438" y2="369.8438"/><line style="stroke:#181818;stroke-width:1.0;" x1="369" x2="241.5" y1="369.8438" y2="369.8438"/><polygon fill="#181818" points="251.5,365.8438,241.5,369.8438,251.5,373.8438,247.5,369.8438" style="stroke:#181818;stroke-width:1.0;"/><line style="stroke:#181818;stroke-width:1.0;" x1="229.5" x2="229.5" y1="85.9609" y2="105.9609"/><polygon fill="#181818" points="225.5,95.9609,229.5,105.9609,233.5,95.9609,229.5,99.9609" style="stroke:#181818;stroke-width:1.0;"/><line style="stroke:#181818;stroke-width:1.0;" x1="229.5" x2="229.5" y1="381.8438" y2="401.8438"/><polygon fill="#181818" points="225.5,391.8438,229.5,401.8438,233.5,391.8438,229.5,395.8438" style="stroke:#181818;stroke-width:1.0;"/><!--SRC=[VS-n3e8m4CRndQVuHdW571nS78o3nC6neH_GfFJ8NIElBs12Z2OkNUvtkNyjEyr5tKpHsO2cLJ8TYj2Xl1iLKVgU7Y4TA-I12UM3LXL0VQCFoZOZ2yuoSjzbDAAyoe-wI1_IpfRXTe4fKmqSNOXmoMDoPhEeNydQSLBw1GKN3KyNW_zE-HS3VEOiiXbaNd-rb51L52FDNC-D9X-wulrQbka5]--></g></svg>