<?xml version="1.0" encoding="us-ascii" standalone="no"?><svg xmlns="http://www.w3.org/2000/svg" xmlns:xlink="http://www.w3.org/1999/xlink" contentStyleType="text/css" height="632px" preserveAspectRatio="none" style="width:423px;height:632px;background:#FFFFFF;" version="1.1" viewBox="0 0 423 632" width="423px" zoomAndPan="magnify"><defs/><g><ellipse cx="200" cy="20" fill="#222222" rx="10" ry="10" style="stroke:#222222;stroke-width:1.0;"/><rect fill="#F1F1F1" height="35.9609" rx="12.5" ry="12.5" style="stroke:#181818;stroke-width:0.5;" width="74" x="163" y="50"/><text fill="#000000" font-family="sans-serif" font-size="12" lengthAdjust="spacing" textLength="54" x="173" y="72.9492">Open App</text><polygon fill="#F1F1F1" points="173.5,105.9609,226.5,105.9609,238.5,117.9609,226.5,129.9609,173.5,129.9609,161.5,117.9609,173.5,105.9609" style="stroke:#181818;stroke-width:0.5;"/><text fill="#000000" font-family="sans-serif" font-size="11" lengthAdjust="spacing" textLength="53" x="173.5" y="122.5156">Logged In?</text><text fill="#000000" font-family="sans-serif" font-size="11" lengthAdjust="spacing" textLength="20" x="141.5" y="115.2002">Yes</text><text fill="#000000" font-family="sans-serif" font-size="11" lengthAdjust="spacing" textLength="13" x="238.5" y="115.2002">No</text><rect fill="#F1F1F1" height="35.9609" rx="12.5" ry="12.5" style="stroke:#181818;stroke-width:0.5;" width="175" x="11" y="139.9609"/><text fill="#000000" font-family="sans-serif" font-size="12" lengthAdjust="spacing" textLength="155" x="21" y="162.9102">Navigate to Chat List Screen</text><rect fill="#F1F1F1" height="35.9609" rx="12.5" ry="12.5" style="stroke:#181818;stroke-width:0.5;" width="127" x="238" y="139.9609"/><text fill="#000000" font-family="sans-serif" font-size="12" lengthAdjust="spacing" textLength="107" x="248" y="162.9102">Show Login Screen</text><rect fill="#F1F1F1" height="35.9609" rx="12.5" ry="12.5" style="stroke:#181818;stroke-width:0.5;" width="171" x="216" y="245.2373"/><text fill="#000000" font-family="sans-serif" font-size="12" lengthAdjust="spacing" textLength="151" x="226" y="268.1865">Navigate to Sign-Up Screen</text><polygon fill="#F1F1F1" points="256.5,195.9219,346.5,195.9219,358.5,207.9219,346.5,219.9219,256.5,219.9219,244.5,207.9219,256.5,195.9219" style="stroke:#181818;stroke-width:0.5;"/><text fill="#000000" font-family="sans-serif" font-size="11" lengthAdjust="spacing" textLength="20" x="305.5" y="231.792">Yes</text><text fill="#000000" font-family="sans-serif" font-size="11" lengthAdjust="spacing" textLength="90" x="256.5" y="212.4766">Sign-Up Required?</text><polygon fill="#F1F1F1" points="301.5,301.1982,313.5,313.1982,301.5,325.1982,289.5,313.1982,301.5,301.1982" style="stroke:#181818;stroke-width:0.5;"/><rect fill="#F1F1F1" height="35.9609" rx="12.5" ry="12.5" style="stroke:#181818;stroke-width:0.5;" width="54" x="274.5" y="345.1982"/><text fill="#000000" font-family="sans-serif" font-size="12" lengthAdjust="spacing" textLength="34" x="284.5" y="368.1475">Log In</text><polygon fill="#F1F1F1" points="200,387.1592,212,399.1592,200,411.1592,188,399.1592,200,387.1592" style="stroke:#181818;stroke-width:0.5;"/><rect fill="#F1F1F1" height="35.9609" rx="12.5" ry="12.5" style="stroke:#181818;stroke-width:0.5;" width="93" x="153.5" y="431.1592"/><text fill="#000000" font-family="sans-serif" font-size="12" lengthAdjust="spacing" textLength="73" x="163.5" y="454.1084">Select a Chat</text><rect fill="#F1F1F1" height="35.9609" rx="12.5" ry="12.5" style="stroke:#181818;stroke-width:0.5;" width="152" x="124" y="487.1201"/><text fill="#000000" font-family="sans-serif" font-size="12" lengthAdjust="spacing" textLength="132" x="134" y="510.0693">Navigate to Chat Screen</text><rect fill="#F1F1F1" height="35.9609" rx="12.5" ry="12.5" style="stroke:#181818;stroke-width:0.5;" width="181" x="109.5" y="543.0811"/><text fill="#000000" font-family="sans-serif" font-size="12" lengthAdjust="spacing" textLength="161" x="119.5" y="566.0303">Send and Receive Messages</text><ellipse cx="200" cy="610.042" fill="none" rx="11" ry="11" style="stroke:#222222;stroke-width:1.0;"/><ellipse cx="200" cy="610.042" fill="#222222" rx="6" ry="6" style="stroke:#222222;stroke-width:1.0;"/><line style="stroke:#181818;stroke-width:1.0;" x1="200" x2="200" y1="30" y2="50"/><polygon fill="#181818" points="196,40,200,50,204,40,200,44" style="stroke:#181818;stroke-width:1.0;"/><line style="stroke:#181818;stroke-width:1.0;" x1="301.5" x2="301.5" y1="219.9219" y2="245.2373"/><polygon fill="#181818" points="297.5,235.2373,301.5,245.2373,305.5,235.2373,301.5,239.2373" style="stroke:#181818;stroke-width:1.0;"/><line style="stroke:#181818;stroke-width:1.0;" x1="358.5" x2="397" y1="207.9219" y2="207.9219"/><polygon fill="#181818" points="393,253.2178,397,263.2178,401,253.2178,397,257.2178" style="stroke:#181818;stroke-width:1.0;"/><line style="stroke:#181818;stroke-width:1.0;" x1="397" x2="397" y1="207.9219" y2="313.1982"/><line style="stroke:#181818;stroke-width:1.0;" x1="397" x2="313.5" y1="313.1982" y2="313.1982"/><polygon fill="#181818" points="323.5,309.1982,313.5,313.1982,323.5,317.1982,319.5,313.1982" style="stroke:#181818;stroke-width:1.0;"/><line style="stroke:#181818;stroke-width:1.0;" x1="301.5" x2="301.5" y1="281.1982" y2="301.1982"/><polygon fill="#181818" points="297.5,291.1982,301.5,301.1982,305.5,291.1982,301.5,295.1982" style="stroke:#181818;stroke-width:1.0;"/><line style="stroke:#181818;stroke-width:1.0;" x1="301.5" x2="301.5" y1="175.9219" y2="195.9219"/><polygon fill="#181818" points="297.5,185.9219,301.5,195.9219,305.5,185.9219,301.5,189.9219" style="stroke:#181818;stroke-width:1.0;"/><line style="stroke:#181818;stroke-width:1.0;" x1="301.5" x2="301.5" y1="325.1982" y2="345.1982"/><polygon fill="#181818" points="297.5,335.1982,301.5,345.1982,305.5,335.1982,301.5,339.1982" style="stroke:#181818;stroke-width:1.0;"/><line style="stroke:#181818;stroke-width:1.0;" x1="161.5" x2="98.5" y1="117.9609" y2="117.9609"/><line style="stroke:#181818;stroke-width:1.0;" x1="98.5" x2="98.5" y1="117.9609" y2="139.9609"/><polygon fill="#181818" points="94.5,129.9609,98.5,139.9609,102.5,129.9609,98.5,133.9609" style="stroke:#181818;stroke-width:1.0;"/><line style="stroke:#181818;stroke-width:1.0;" x1="238.5" x2="301.5" y1="117.9609" y2="117.9609"/><line style="stroke:#181818;stroke-width:1.0;" x1="301.5" x2="301.5" y1="117.9609" y2="139.9609"/><polygon fill="#181818" points="297.5,129.9609,301.5,139.9609,305.5,129.9609,301.5,133.9609" style="stroke:#181818;stroke-width:1.0;"/><line style="stroke:#181818;stroke-width:1.0;" x1="98.5" x2="98.5" y1="175.9219" y2="399.1592"/><line style="stroke:#181818;stroke-width:1.0;" x1="98.5" x2="188" y1="399.1592" y2="399.1592"/><polygon fill="#181818" points="178,395.1592,188,399.1592,178,403.1592,182,399.1592" style="stroke:#181818;stroke-width:1.0;"/><line style="stroke:#181818;stroke-width:1.0;" x1="301.5" x2="301.5" y1="381.1592" y2="399.1592"/><line style="stroke:#181818;stroke-width:1.0;" x1="301.5" x2="212" y1="399.1592" y2="399.1592"/><polygon fill="#181818" points="222,395.1592,212,399.1592,222,403.1592,218,399.1592" style="stroke:#181818;stroke-width:1.0;"/><line style="stroke:#181818;stroke-width:1.0;" x1="200" x2="200" y1="85.9609" y2="105.9609"/><polygon fill="#181818" points="196,95.9609,200,105.9609,204,95.9609,200,99.9609" style="stroke:#181818;stroke-width:1.0;"/><line style="stroke:#181818;stroke-width:1.0;" x1="200" x2="200" y1="411.1592" y2="431.1592"/><polygon fill="#181818" points="196,421.1592,200,431.1592,204,421.1592,200,425.1592" style="stroke:#181818;stroke-width:1.0;"/><line style="stroke:#181818;stroke-width:1.0;" x1="200" x2="200" y1="467.1201" y2="487.1201"/><polygon fill="#181818" points="196,477.1201,200,487.1201,204,477.1201,200,481.1201" style="stroke:#181818;stroke-width:1.0;"/><line style="stroke:#181818;stroke-width:1.0;" x1="200" x2="200" y1="523.0811" y2="543.0811"/><polygon fill="#181818" points="196,533.0811,200,543.0811,204,533.0811,200,537.0811" style="stroke:#181818;stroke-width:1.0;"/><line style="stroke:#181818;stroke-width:1.0;" x1="200" x2="200" y1="579.042" y2="599.042"/><polygon fill="#181818" points="196,589.042,200,599.042,204,589.042,200,593.042" style="stroke:#181818;stroke-width:1.0;"/><!--SRC=[POwn2i8m54NtVCKTw-0FD8E8ar0hM1mSGtER1aeIcwV-lh6WWWvlUVTopirYPb7rCJ5Wcv9MVa3LHETeiG-R5MGiINLXNYcWRitTEoE4HEn68sXy5dJzJ0QjE6MYQkDIxSRuG27vyCc15xtpBgpF2ITURtwc_PNyQDxrBuJ1-k6bAFGoidYNHzrnOYymopAj_iU-4QKPB4ov4tlwEt5WpiOnQvKbfYS0]--></g></svg>